<svg width="95" height="52" viewBox="0 0 95 52" fill="none" xmlns="http://www.w3.org/2000/svg">
<path d="M14.8965 42.0575L8.56469 40.834C7.74916 39.121 7.49236 37.195 7.83057 35.3281C7.8422 34.6313 7.90354 33.9362 8.0141 33.2481C8.33884 32.4674 8.90759 31.8128 9.63528 31.3822V30.0058C9.52419 29.2561 9.46288 28.5 9.45175 27.7422C9.67541 27.168 10.0706 26.6767 10.5835 26.3352C11.1953 25.9069 15.2941 22.3893 15.2941 22.3893L14.9882 21.4716C22.7338 20.0457 30.6069 19.4306 38.48 19.6363C42.6505 19.497 46.82 19.9397 50.8682 20.9516C53.1317 21.7469 62.0941 26.3352 62.7059 26.6716C65.2653 27.7614 67.9799 28.4426 70.7506 28.6905C74.948 29.1792 79.1004 29.9974 83.1694 31.1375C84.6376 31.7493 86.2282 32.4222 86.6565 34.3493C87.5074 36.9738 87.5074 39.8001 86.6565 42.4246L83.4141 43.0364L82.0988 43.7093H77.9694" fill="white"/>
<path d="M81.9764 44.4434H77.847C77.6442 44.4434 77.4497 44.3628 77.3063 44.2194C77.1629 44.076 77.0823 43.8815 77.0823 43.6787C77.0823 43.4759 77.1629 43.2814 77.3063 43.138C77.4497 42.9945 77.6442 42.914 77.847 42.914H81.8235L82.9553 42.3022C83.0234 42.2719 83.0955 42.2513 83.1694 42.241L85.9223 41.7516C86.5769 39.5562 86.5769 37.2176 85.9223 35.0222L85.8 34.5328C85.4941 33.0034 84.3317 32.4528 82.7411 31.7799C78.7307 30.6689 74.6399 29.8712 70.5059 29.394C67.6614 29.1347 64.8749 28.433 62.247 27.314C58.3995 25.2807 54.4818 23.383 50.5012 21.6246C46.5319 20.6385 42.4453 20.2062 38.3576 20.3399C30.8486 20.2272 23.3446 20.7903 15.9364 22.0222V22.0528C15.9937 22.2002 16.0038 22.3617 15.9655 22.5151C15.9271 22.6684 15.8422 22.8062 15.7223 22.9093C14.1731 24.2895 12.6027 25.6457 11.0117 26.9775C10.6501 27.2154 10.3553 27.5418 10.1553 27.9257C10.1777 28.6016 10.239 29.2757 10.3388 29.9446V31.4128C10.3338 31.5451 10.2945 31.6739 10.2248 31.7865C10.1551 31.8991 10.0574 31.9917 9.94115 32.0552C9.40666 32.397 8.98189 32.8854 8.71762 33.4622C8.61172 34.0892 8.55039 34.723 8.53409 35.3587C8.21677 36.9853 8.39801 38.6698 9.05409 40.1916L15.0188 41.2928C15.1192 41.3129 15.2147 41.3526 15.2998 41.4095C15.3849 41.4665 15.4579 41.5397 15.5147 41.6249C15.5715 41.7101 15.611 41.8057 15.6309 41.9062C15.6508 42.0066 15.6507 42.11 15.6306 42.2105C15.6105 42.3109 15.5708 42.4064 15.5138 42.4915C15.4568 42.5765 15.3837 42.6496 15.2984 42.7064C15.2132 42.7632 15.1177 42.8027 15.0172 42.8225C14.9167 42.8424 14.8133 42.8423 14.7129 42.8222L8.38115 41.5987C8.262 41.5761 8.14992 41.5255 8.05419 41.451C7.95845 41.3765 7.8818 41.2804 7.83056 41.1705C6.93687 39.2956 6.66881 37.1833 7.06586 35.1446C7.06156 34.447 7.12301 33.7506 7.24939 33.0646C7.55159 32.2319 8.0946 31.5078 8.80939 30.9846V30.0669C8.66946 29.2592 8.61818 28.4387 8.65645 27.6199C8.93471 26.8744 9.43691 26.2333 10.0941 25.7846C10.5223 25.4787 12.847 23.4599 14.3153 22.1752L14.1623 21.8081C14.1195 21.7042 14.1001 21.5922 14.1055 21.48C14.1109 21.3678 14.1409 21.2581 14.1935 21.1588C14.246 21.0596 14.3198 20.9731 14.4096 20.9055C14.4994 20.838 14.6029 20.7911 14.7129 20.7681C22.5164 19.308 30.4518 18.6723 38.3882 18.8716C42.6427 18.7423 46.8944 19.2055 51.0212 20.2481C53.3459 21.0434 62.4 25.754 62.9506 26.0599C65.4203 27.1145 68.0436 27.7652 70.72 27.9869C74.9889 28.4685 79.213 29.2867 83.3529 30.434C84.2816 30.6728 85.1329 31.1475 85.8242 31.8121C86.5155 32.4766 87.0234 33.3084 87.2988 34.2269L87.3906 34.7163C88.172 37.3267 88.1293 40.1146 87.2682 42.6999C87.2269 42.8307 87.1511 42.948 87.0489 43.0395C86.9466 43.131 86.8216 43.1933 86.687 43.2199L83.5364 43.8316L82.3129 44.4434C82.1975 44.4937 82.0714 44.5147 81.9459 44.5046L81.9764 44.4434Z" fill="#053361"/>
<path d="M46.4635 51.2644C65.6376 51.2644 81.1812 50.4838 81.1812 49.5209C81.1812 48.558 65.6376 47.7773 46.4635 47.7773C27.2895 47.7773 11.7459 48.558 11.7459 49.5209C11.7459 50.4838 27.2895 51.2644 46.4635 51.2644Z" fill="#DEDFE0"/>
<path d="M21.6259 48.757C25.3255 48.757 28.3247 45.7579 28.3247 42.0582C28.3247 38.3585 25.3255 35.3594 21.6259 35.3594C17.9262 35.3594 14.9271 38.3585 14.9271 42.0582C14.9271 45.7579 17.9262 48.757 21.6259 48.757Z" fill="#DEDFE0"/>
<path d="M21.6259 49.5521C20.151 49.552 18.7092 49.1151 17.4825 48.2963C16.2558 47.4776 15.2992 46.3137 14.7334 44.9517C14.1676 43.5897 14.0181 42.0906 14.3036 40.6437C14.5891 39.1967 15.2969 37.8668 16.3376 36.8218C17.3784 35.7768 18.7054 35.0636 20.1511 34.7722C21.5969 34.4807 23.0966 34.6242 24.4609 35.1844C25.8252 35.7446 26.9929 36.6965 27.8167 37.9198C28.6405 39.1431 29.0833 40.5831 29.0894 42.0579C29.0894 44.0374 28.3031 45.9358 26.9034 47.3355C25.5037 48.7351 23.6053 49.5215 21.6259 49.5215V49.5521ZM21.6259 36.0932C20.4535 36.0873 19.3057 36.4287 18.3272 37.0744C17.3487 37.72 16.5834 38.6411 16.1278 39.7213C15.6723 40.8015 15.5469 41.9925 15.7675 43.1439C15.988 44.2952 16.5447 45.3555 17.3673 46.1908C18.1898 47.0262 19.2414 47.5992 20.3893 47.8375C21.5371 48.0758 22.7298 47.9688 23.8169 47.5299C24.904 47.0911 25.8368 46.3401 26.4975 45.3717C27.1582 44.4032 27.5173 43.2608 27.5294 42.0885C27.5213 40.5172 26.8936 39.0125 25.7824 37.9014C24.6713 36.7902 23.1666 36.1625 21.5953 36.1544L21.6259 36.0932Z" fill="#053361"/>
<path d="M71.3318 48.757C75.0314 48.757 78.0306 45.7579 78.0306 42.0582C78.0306 38.3585 75.0314 35.3594 71.3318 35.3594C67.6321 35.3594 64.6329 38.3585 64.6329 42.0582C64.6329 45.7579 67.6321 48.757 71.3318 48.757Z" fill="#DEDFE0"/>
<path d="M71.3317 49.5521C69.8569 49.552 68.4151 49.1151 67.1884 48.2963C65.9617 47.4776 65.0051 46.3137 64.4393 44.9517C63.8735 43.5897 63.7239 42.0906 64.0094 40.6437C64.295 39.1967 65.0028 37.8668 66.0435 36.8218C67.0842 35.7768 68.4112 35.0636 69.857 34.7722C71.3028 34.4807 72.8025 34.6242 74.1668 35.1844C75.5311 35.7446 76.6988 36.6965 77.5226 37.9198C78.3464 39.1431 78.7892 40.5831 78.7953 42.0579C78.7953 43.0406 78.6012 44.0137 78.2242 44.9212C77.8472 45.8287 77.2947 46.6528 76.5984 47.3463C75.9021 48.0398 75.0758 48.5889 74.1667 48.9621C73.2577 49.3354 72.2838 49.5255 71.3011 49.5215L71.3317 49.5521ZM71.3317 36.0932C70.1594 36.0933 69.0133 36.4405 68.0381 37.0912C67.0629 37.7419 66.3023 38.6669 65.8523 39.7495C65.4023 40.832 65.283 42.0236 65.5095 43.1738C65.736 44.3241 66.2981 45.3815 67.125 46.2126C67.9518 47.0437 69.0063 47.6113 70.1554 47.8437C71.3045 48.0761 72.4967 47.9629 73.5815 47.5185C74.6663 47.074 75.5952 46.3182 76.2509 45.3464C76.9067 44.3746 77.2598 43.2303 77.2659 42.0579C77.2578 40.4813 76.6258 38.972 75.5081 37.86C74.3903 36.748 72.8778 36.1238 71.3011 36.1238L71.3317 36.0932Z" fill="#053361"/>
<path d="M71.3318 45.8814C73.4435 45.8814 75.1553 44.1696 75.1553 42.0579C75.1553 39.9462 73.4435 38.2344 71.3318 38.2344C69.2201 38.2344 67.5082 39.9462 67.5082 42.0579C67.5082 44.1696 69.2201 45.8814 71.3318 45.8814Z" fill="white"/>
<path d="M67.4776 42.0596C67.4815 41.2399 67.7486 40.4431 68.2398 39.7867C68.7309 39.1304 69.4199 38.6492 70.2053 38.4143C70.9907 38.1794 71.8307 38.203 72.6016 38.4819C73.3725 38.7607 74.0334 39.2799 74.4867 39.9629C74.9401 40.6458 75.1619 41.4564 75.1195 42.2751C75.0772 43.0938 74.7728 43.8771 74.2513 44.5096C73.7299 45.1421 73.019 45.5903 72.2234 45.7881C71.4279 45.9858 70.5898 45.9226 69.8329 45.6078C69.0331 45.2675 68.3743 44.6628 67.967 43.8949" fill="white"/>
<path d="M71.2706 46.2812C70.7133 46.2772 70.1623 46.1629 69.6494 45.9448C68.7792 45.5811 68.0572 44.9344 67.6 44.1095C67.5804 44.0281 67.587 43.9426 67.6188 43.8651C67.6506 43.7877 67.7061 43.7223 67.7773 43.6782C67.8485 43.6341 67.9318 43.6137 68.0153 43.6197C68.0988 43.6257 68.1783 43.658 68.2424 43.7118C68.6327 44.4494 69.2789 45.019 70.0595 45.3139C70.8401 45.6089 71.7015 45.6087 72.482 45.3136C73.2625 45.0184 73.9085 44.4485 74.2986 43.7109C74.6888 42.9733 74.7963 42.1186 74.601 41.3073C74.4057 40.496 73.921 39.7839 73.2379 39.3047C72.5548 38.8254 71.7202 38.6119 70.8909 38.7043C70.0616 38.7967 69.2945 39.1887 68.7336 39.8065C68.1728 40.4244 67.8567 41.2257 67.8447 42.0601C67.821 42.1432 67.7708 42.2163 67.7018 42.2683C67.6329 42.3203 67.5488 42.3485 67.4624 42.3485C67.376 42.3485 67.2919 42.3203 67.2229 42.2683C67.1539 42.2163 67.1038 42.1432 67.08 42.0601C67.0727 41.5047 67.1767 40.9534 67.3859 40.4389C67.6748 39.7288 68.1516 39.1108 68.7652 38.6512C69.3787 38.1915 70.1058 37.9077 70.8685 37.8301C71.6312 37.7525 72.4006 37.884 73.0942 38.2106C73.7877 38.5372 74.3793 39.0465 74.8053 39.6838C75.2313 40.3212 75.4757 41.0625 75.5123 41.8282C75.5488 42.594 75.3762 43.3552 75.0128 44.0302C74.6495 44.7053 74.1092 45.2686 73.4499 45.6598C72.7906 46.051 72.0372 46.2553 71.2706 46.2507V46.2812ZM64.6636 43.8342H32.3318C32.129 43.8342 31.9345 43.7536 31.7911 43.6102C31.6477 43.4668 31.5671 43.2723 31.5671 43.0695C31.5671 42.8667 31.6477 42.6722 31.7911 42.5288C31.9345 42.3853 32.129 42.3048 32.3318 42.3048H64.6941C64.897 42.3048 65.0915 42.3853 65.2349 42.5288C65.3783 42.6722 65.4588 42.8667 65.4588 43.0695C65.4588 43.2723 65.3783 43.4668 65.2349 43.6102C65.0915 43.7536 64.897 43.8342 64.6941 43.8342H64.6636ZM62.0024 40.8365H28.2636C28.1805 40.8128 28.1074 40.7626 28.0553 40.6937C28.0033 40.6247 27.9751 40.5406 27.9751 40.4542C27.9751 40.3678 28.0033 40.2837 28.0553 40.2147C28.1074 40.1457 28.1805 40.0956 28.2636 40.0718H61.7271C62 38.3665 62.7648 36.778 63.9276 35.5011C65.0903 34.2242 66.6006 33.3145 68.273 32.8836C68.3234 32.8701 68.3761 32.8675 68.4276 32.876C68.4791 32.8844 68.5282 32.9038 68.5716 32.9327C68.615 32.9617 68.6517 32.9996 68.6794 33.0438C68.707 33.0881 68.7249 33.1378 68.7318 33.1895C68.7417 33.2859 68.7161 33.3826 68.6598 33.4614C68.6035 33.5403 68.5203 33.5959 68.4259 33.6177C66.8646 34.0558 65.4654 34.9407 64.4002 36.1634C63.3351 37.3861 62.6505 38.8935 62.4306 40.5001C62.4096 40.589 62.3585 40.6679 62.2861 40.7236C62.2137 40.7793 62.1243 40.8084 62.033 40.806L62.0024 40.8365Z" fill="#053361"/>
<path d="M30.8941 27.0406L20.953 25.817C20.3327 25.0583 19.7606 24.2614 19.24 23.4311C25.5905 22.6284 31.9874 22.2503 38.3883 22.2994C42.5689 22.1572 46.7489 22.5999 50.8071 23.6147C52.6424 24.2264 58.6683 27.2853 61.36 28.6923L30.8941 27.0406Z" fill="#DEDFE0"/>
<path d="M61.36 29.4535H61.3294L30.8941 27.8323H30.8024L20.8918 26.6087C20.7032 26.5933 20.5279 26.5056 20.4024 26.364C19.7489 25.588 19.146 24.7706 18.5977 23.917C18.5228 23.8077 18.4775 23.6809 18.4664 23.5489C18.4552 23.417 18.4785 23.2843 18.534 23.1641C18.5895 23.0438 18.6753 22.94 18.783 22.8629C18.8907 22.7858 19.0165 22.7379 19.1483 22.724C25.5386 21.9061 31.9766 21.5178 38.4188 21.5617C42.6836 21.4275 46.9461 21.8908 51.0824 22.9382C53.04 23.6111 59.7388 27.0064 61.7271 28.0464C61.8735 28.1245 61.9906 28.248 62.0607 28.3985C62.1307 28.5489 62.1499 28.7181 62.1154 28.8804C62.0808 29.0427 61.9944 29.1894 61.8692 29.2983C61.744 29.4072 61.5867 29.4724 61.4212 29.484L61.36 29.4535ZM30.9859 26.3029L57.7812 27.7405L50.5318 24.3758C46.5625 23.3897 42.476 22.9574 38.3883 23.0911C32.4296 23.0571 26.4744 23.384 20.5553 24.0699L21.32 25.1099L30.9859 26.3335V26.3029Z" fill="#053361"/>
<path d="M55.0588 29.0593H57.3223C57.5502 29.0522 57.7672 28.9605 57.9312 28.8022C58.0951 28.6439 58.1943 28.4302 58.2094 28.2028C58.2094 28.0823 58.1857 27.963 58.1395 27.8516C58.0934 27.7403 58.0258 27.6391 57.9406 27.5539C57.8554 27.4687 57.7543 27.4011 57.6429 27.355C57.5316 27.3089 57.4123 27.2852 57.2917 27.2852H55.0588V29.0593Z" fill="#053361"/>
<path d="M57.2918 29.8512H55.0589C54.856 29.8512 54.6615 29.7707 54.5181 29.6272C54.3747 29.4838 54.2941 29.2893 54.2941 29.0865V27.3124C54.2941 27.1096 54.3747 26.9151 54.5181 26.7717C54.6615 26.6283 54.856 26.5477 55.0589 26.5477H57.3224C57.7605 26.5477 58.1806 26.7217 58.4904 27.0315C58.8001 27.3412 58.9742 27.7614 58.9742 28.1995C58.9742 28.6375 58.8001 29.0577 58.4904 29.3674C58.1806 29.6772 57.7605 29.8512 57.3224 29.8512H57.2918ZM55.7624 28.3218H57.2918V28.0771H55.7624V28.3218ZM42.3036 38.5995C42.2132 38.5935 42.1276 38.557 42.0608 38.4958C41.9941 38.4346 41.9502 38.3525 41.9365 38.263C41.3194 32.1396 40.4315 26.0466 39.2753 20.0018C39.291 19.9225 39.3305 19.8498 39.3885 19.7935C39.4465 19.7372 39.5203 19.7 39.6001 19.6867C39.6798 19.6734 39.7617 19.6847 39.8348 19.7191C39.908 19.7536 39.9689 19.8095 40.0094 19.8795C40.0094 19.9712 42.1506 31.1971 42.7012 38.2324C42.7015 38.3328 42.6638 38.4295 42.5958 38.5033C42.5277 38.577 42.4342 38.6223 42.3341 38.63L42.3036 38.5995ZM46.28 30.5853H43.2212C43.1381 30.5616 43.065 30.5114 43.013 30.4425C42.9609 30.3735 42.9328 30.2894 42.9328 30.203C42.9328 30.1166 42.9609 30.0325 43.013 29.9635C43.065 29.8945 43.1381 29.8444 43.2212 29.8206H46.28C46.3631 29.8444 46.4362 29.8945 46.4883 29.9635C46.5403 30.0325 46.5685 30.1166 46.5685 30.203C46.5685 30.2894 46.5403 30.3735 46.4883 30.4425C46.4362 30.5114 46.3631 30.5616 46.28 30.5853ZM27.713 30.0959H24.6541C24.5711 30.0722 24.498 30.022 24.4459 29.953C24.3939 29.8841 24.3657 29.8 24.3657 29.7136C24.3657 29.6272 24.3939 29.5431 24.4459 29.4741C24.498 29.4051 24.5711 29.355 24.6541 29.3312H27.713C27.7961 29.355 27.8692 29.4051 27.9212 29.4741C27.9732 29.5431 28.0014 29.6272 28.0014 29.7136C28.0014 29.8 27.9732 29.8841 27.9212 29.953C27.8692 30.022 27.7961 30.0722 27.713 30.0959ZM19.6071 20.9195C19.5401 20.9197 19.4741 20.903 19.4153 20.8709C19.3565 20.8388 19.3067 20.7924 19.2706 20.7359C19.2256 20.646 19.2164 20.5423 19.2448 20.4458C19.2731 20.3493 19.337 20.2672 19.4236 20.2159C20.7103 19.5235 22.0383 18.9106 23.4 18.3806C24.9098 18.0441 26.4441 17.8293 27.9883 17.7383L43.5883 17.983C45.7177 18.3099 47.7823 18.9706 49.7059 19.9406C49.7739 19.9953 49.822 20.0707 49.8429 20.1554C49.8638 20.24 49.8563 20.3292 49.8215 20.4091C49.7867 20.4891 49.7266 20.5554 49.6505 20.5979C49.5743 20.6404 49.4863 20.6566 49.4 20.6442C47.5353 19.7008 45.5321 19.0606 43.4659 18.7477C38.3332 18.4404 33.1894 18.3588 28.0494 18.503C26.5674 18.591 25.0946 18.7956 23.6447 19.1148C22.3368 19.6311 21.0601 20.2235 19.8212 20.8889C19.7545 20.9203 19.6799 20.931 19.6071 20.9195Z" fill="#053361"/>
<path d="M24.7765 20.5543C24.7109 20.5507 24.6475 20.5296 24.5929 20.4931C24.5064 20.4419 24.4425 20.3597 24.4141 20.2632C24.3858 20.1668 24.395 20.0631 24.44 19.9731L25.4494 18.1378C25.5085 18.0797 25.5843 18.0415 25.6662 18.0286C25.7481 18.0156 25.8319 18.0286 25.9061 18.0657C25.9802 18.1028 26.0409 18.1621 26.0797 18.2353C26.1185 18.3086 26.1334 18.3922 26.1223 18.4743L25.1129 20.3096C25.0834 20.3676 25.04 20.4175 24.9867 20.4548C24.9334 20.4921 24.8717 20.5158 24.807 20.5237L24.7765 20.5543ZM32.1176 20.0037C32.0669 20.008 32.0159 20.0016 31.9678 19.9851C31.9196 19.9685 31.8755 19.9422 31.8381 19.9077C31.8007 19.8731 31.7709 19.8312 31.7506 19.7846C31.7302 19.7379 31.7198 19.6876 31.72 19.6367V18.0461C31.72 17.9406 31.7619 17.8395 31.8365 17.7649C31.911 17.6903 32.0122 17.6484 32.1176 17.6484C32.2231 17.6484 32.3242 17.6903 32.3988 17.7649C32.4734 17.8395 32.5153 17.9406 32.5153 18.0461V19.6673C32.5076 19.7673 32.4623 19.8608 32.3885 19.9289C32.3148 19.9969 32.218 20.0346 32.1176 20.0343V20.0037ZM9.63528 32.239C9.55685 32.2315 9.48241 32.2009 9.42141 32.1511C9.3604 32.1012 9.31559 32.0343 9.29265 31.959C9.26971 31.8836 9.26968 31.8031 9.29256 31.7277C9.31544 31.6523 9.3602 31.5854 9.42116 31.5355L15.1106 27.9261C13.2643 27.5331 11.3482 27.6173 9.54352 28.1708C9.49249 28.2024 9.43497 28.222 9.37527 28.2283C9.31557 28.2345 9.25524 28.2271 9.1988 28.2067C9.14236 28.1862 9.09127 28.1533 9.04937 28.1103C9.00747 28.0673 8.97585 28.0154 8.95687 27.9585C8.93789 27.9016 8.93204 27.8411 8.93977 27.7815C8.94751 27.722 8.96861 27.665 9.00151 27.6148C9.03441 27.5646 9.07825 27.5225 9.12973 27.4916C9.18122 27.4608 9.23903 27.442 9.29881 27.4367C11.3055 26.8334 13.434 26.7597 15.4776 27.2226C15.6245 27.2385 15.7626 27.3002 15.8724 27.3991C15.9822 27.4979 16.0581 27.6288 16.0894 27.7731C16.1035 27.9171 16.0728 28.0618 16.0017 28.1877C15.9305 28.3136 15.8223 28.4145 15.6918 28.4767L9.78822 32.1167C9.73362 32.1531 9.67024 32.1742 9.60469 32.1778L9.63528 32.239Z" fill="#053361"/>
<path d="M9.4212 27.7732C11.3578 27.1895 13.4124 27.1157 15.3859 27.5591C15.8141 27.6509 15.753 27.9568 15.5083 28.1097L12.6941 29.7309H9.57415L9.4212 27.7732ZM86.6871 35.9709H86.6565C86.473 35.9709 82.1294 35.3591 81.273 35.0532C79.8457 34.2145 78.4947 33.2524 77.2353 32.1779C77.1771 32.1318 77.1342 32.0691 77.1124 31.9981C77.0905 31.9271 77.0907 31.8512 77.113 31.7803C77.129 31.7052 77.1664 31.6364 77.2207 31.5821C77.275 31.5278 77.3438 31.4904 77.4189 31.4744C80.5334 31.4317 83.6209 32.0575 86.473 33.3097C86.5282 33.3671 86.5649 33.4398 86.5784 33.5183C86.5919 33.5968 86.5815 33.6775 86.5485 33.75C86.5155 33.8225 86.4616 33.8835 86.3935 33.925C86.3255 33.9664 86.2467 33.9865 86.1671 33.9827C83.7337 32.9726 81.1496 32.3731 78.52 32.2085H78.4589C79.4112 33.0138 80.435 33.7305 81.5177 34.3497C82.1294 34.5638 85.4942 35.0532 86.7177 35.2674C86.8 35.2942 86.8713 35.3472 86.9208 35.4183C86.9702 35.4894 86.9951 35.5747 86.9917 35.6613C86.9882 35.7478 86.9566 35.8309 86.9016 35.8978C86.8466 35.9647 86.7713 36.0119 86.6871 36.0321V35.9709Z" fill="#053361"/>
<path d="M82.3741 32.3304C80.7823 31.8915 79.1257 31.7362 77.48 31.8716C78.7738 32.9387 80.1437 33.9099 81.5788 34.7775L83.1083 35.0834L82.3741 32.3304ZM15.233 40.3751C15.2025 40.3784 15.1717 40.3784 15.1412 40.3751C13.4855 39.9955 11.8517 39.5258 10.2471 38.9681C10.1928 38.9415 10.1453 38.9029 10.1082 38.8552C10.0711 38.8075 10.0454 38.7519 10.033 38.6928C9.81885 37.8975 9.11532 35.7869 7.80002 35.7257C7.71693 35.702 7.64383 35.6518 7.59179 35.5828C7.53975 35.5139 7.5116 35.4298 7.5116 35.3434C7.5116 35.257 7.53975 35.1729 7.59179 35.1039C7.64383 35.0349 7.71693 34.9848 7.80002 34.961H7.83061C9.6659 35.0528 10.5224 37.5916 10.7059 38.3257C12.113 38.8763 15.2941 39.641 15.2941 39.641C15.3763 39.673 15.4456 39.7315 15.4909 39.8071C15.5363 39.8828 15.5552 39.9714 15.5447 40.059C15.5342 40.1465 15.4948 40.2281 15.4329 40.2909C15.3709 40.3537 15.2898 40.3941 15.2024 40.4057L15.233 40.3751Z" fill="#053361"/>
<path d="M21.6259 45.8814C23.7376 45.8814 25.4494 44.1696 25.4494 42.0579C25.4494 39.9462 23.7376 38.2344 21.6259 38.2344C19.5142 38.2344 17.8024 39.9462 17.8024 42.0579C17.8024 44.1696 19.5142 45.8814 21.6259 45.8814Z" fill="white"/>
<path d="M17.8023 41.5986C17.7445 41.5993 17.6873 41.5874 17.6346 41.5637C17.5819 41.54 17.5349 41.5051 17.4971 41.4614C17.4592 41.4177 17.4314 41.3663 17.4154 41.3108C17.3994 41.2552 17.3958 41.1969 17.4047 41.1398C17.5942 40.2744 18.055 39.4921 18.72 38.9068C18.8011 38.8379 18.9063 38.804 19.0124 38.8126C19.1185 38.8212 19.2169 38.8716 19.2858 38.9527C19.3548 39.0338 19.3887 39.139 19.3801 39.2452C19.3715 39.3513 19.3211 39.4496 19.24 39.5186C18.6942 39.9987 18.3186 40.6426 18.1694 41.3539C18.1441 41.4321 18.0953 41.5005 18.0296 41.5498C17.9638 41.5991 17.8844 41.6268 17.8023 41.6292V41.5986ZM21.5647 46.2786C20.5965 46.275 19.6581 45.9433 18.9026 45.3378C18.1471 44.7323 17.6191 43.8887 17.4047 42.9445C17.3865 42.8433 17.4081 42.739 17.4652 42.6534C17.5222 42.5679 17.6101 42.5078 17.7106 42.4857C17.8117 42.4674 17.9161 42.4891 18.0016 42.5461C18.0871 42.6032 18.1473 42.6911 18.1694 42.7915C18.3101 43.474 18.6539 44.0981 19.1556 44.5817C19.6573 45.0654 20.2935 45.3861 20.9806 45.5018C21.6678 45.6175 22.374 45.5228 23.0064 45.2301C23.6388 44.9374 24.168 44.4604 24.5245 43.8617C24.881 43.2629 25.0482 42.5704 25.0042 41.8749C24.9601 41.1794 24.7069 40.5135 24.2777 39.9645C23.8485 39.4155 23.2634 39.009 22.5991 38.7985C21.9348 38.5879 21.2224 38.583 20.5553 38.7845C20.5072 38.8035 20.4558 38.8122 20.4042 38.81C20.3526 38.8077 20.302 38.7947 20.2558 38.7716C20.2096 38.7485 20.1688 38.7159 20.1361 38.6759C20.1034 38.636 20.0794 38.5896 20.0658 38.5398C20.0362 38.4424 20.0451 38.3373 20.0906 38.2463C20.1362 38.1552 20.2149 38.0851 20.3106 38.0504C20.8889 37.8742 21.4983 37.8243 22.0976 37.9041C22.6969 37.9839 23.2721 38.1915 23.7842 38.5129C24.2963 38.8342 24.7334 39.2618 25.0659 39.7667C25.3985 40.2717 25.6186 40.8421 25.7116 41.4395C25.8045 42.0369 25.768 42.6473 25.6046 43.2294C25.4411 43.8115 25.1546 44.3517 24.7643 44.8134C24.374 45.2751 23.8891 45.6476 23.3423 45.9057C22.7956 46.1637 22.1998 46.3014 21.5953 46.3092L21.5647 46.2786Z" fill="#053361"/>
<path d="M61.36 28.6914L63.6235 29.7314L61.36 28.6914Z" fill="#DEDFE0"/>
<path d="M63.6235 30.4976C63.5164 30.488 63.4124 30.4568 63.3177 30.4059L61.0541 29.3965C60.8675 29.3153 60.7208 29.1634 60.6463 28.9741C60.5717 28.7848 60.5754 28.5736 60.6565 28.387C60.7376 28.2005 60.8895 28.0537 61.0788 27.9792C61.2681 27.9046 61.4793 27.9083 61.6659 27.9894L63.96 29.0294C64.1227 29.0987 64.2563 29.2222 64.3382 29.3789C64.42 29.5356 64.4451 29.7158 64.409 29.8889C64.3729 30.062 64.278 30.2173 64.1404 30.3282C64.0028 30.4392 63.8309 30.4991 63.6541 30.4976H63.6235Z" fill="#053361"/>
</svg>
