<svg width="94" height="52" viewBox="0 0 94 52" fill="none" xmlns="http://www.w3.org/2000/svg">
<path d="M85.1458 41.3549H92.2109C92.2109 41.3549 93.1206 40.896 93.1206 40.2843C93.1206 38.816 93.4239 37.5313 91.8168 36.9196V28.6607C91.3084 28.1854 90.7369 27.7839 90.1187 27.4678C89.9064 27.376 85.2671 26.5501 80.1122 26.0301L72.8348 25.4184L62.2826 18.7807C60.6312 17.9882 58.8344 17.5507 57.0064 17.496C56.7032 17.4654 39.8135 17.0678 37.2968 17.2513C34.78 17.4348 33.0516 17.5572 32.7484 18.689C32.3026 21.1077 31.9787 23.5477 31.778 25.9996H5.24579C4.33611 25.9996 2.91095 25.8772 2.51675 26.9172C1.82119 30.569 1.7494 34.3139 2.3045 37.9901H1.03095C0.735228 38.8626 0.735228 39.8094 1.03095 40.6819C1.18256 41.1713 1.42514 41.3548 2.75934 41.5384C6.63065 41.8827 10.5194 41.9848 14.4032 41.8443" fill="white"/>
<path d="M9.39998 42.6072C7.17219 42.6448 4.94423 42.5427 2.72901 42.3013C1.33417 42.0872 0.667075 41.873 0.303204 40.9248C-0.0565813 39.8269 -0.0244011 38.6366 0.394172 37.5601C0.472383 37.4661 0.569719 37.3901 0.679584 37.3373C0.789449 37.2845 0.909277 37.2562 1.03095 37.2542H1.45546C1.00086 33.7097 1.12377 30.114 1.81933 26.6095C2.33482 25.1719 4.00256 25.2024 4.97288 25.2024H31.1413L32.0509 18.473C32.5361 16.7907 34.598 16.6377 37.2058 16.4848C39.6316 16.3319 56.4606 16.6683 57.0671 16.7295C58.9807 16.8022 60.8591 17.2707 62.5858 18.106C65.0116 19.3295 71.8342 23.9177 73.0774 24.6824C78.8753 25.0199 84.6474 25.7145 90.3613 26.7624C90.3613 26.7624 92.5445 27.8024 92.5445 28.6895V36.4283C93.075 36.7754 93.4872 37.2781 93.7258 37.8688C93.9643 38.4594 94.0177 39.1097 93.8787 39.7319V40.2824C93.8787 41.3225 92.7264 41.9342 92.4838 42.026C92.39 42.0769 92.2868 42.1082 92.1806 42.1177H85.1155C84.9144 42.1177 84.7216 42.0372 84.5794 41.8938C84.4373 41.7504 84.3574 41.5559 84.3574 41.353C84.3574 41.1502 84.4373 40.9557 84.5794 40.8123C84.7216 40.6689 84.9144 40.5883 85.1155 40.5883H91.9987C92.1525 40.506 92.2869 40.3913 92.3929 40.2519V39.6401C92.3929 38.3554 92.3929 37.9272 91.5439 37.6213C91.3921 37.5696 91.2604 37.4707 91.1678 37.3388C91.0752 37.2069 91.0264 37.0488 91.0284 36.8872V28.9342C90.6408 28.6439 90.2358 28.3783 89.8155 28.1389C84.1924 27.115 78.5107 26.4509 72.8045 26.1507C72.6647 26.1459 72.5286 26.1037 72.4103 26.0283C72.3193 25.9977 64.5264 20.706 61.9187 19.4519C60.4114 18.7159 58.7705 18.2995 57.0974 18.2283C56.1877 18.1671 39.7226 17.8001 37.3271 17.9224C35.5077 18.0448 33.6884 18.1671 33.4761 18.8401C33.1729 19.8495 32.5664 25.0495 32.5664 25.9366C32.5586 26.134 32.4753 26.3208 32.334 26.4576C32.1926 26.5945 32.0043 26.6708 31.8084 26.6707H4.97288C4.36643 26.6707 3.39611 26.6707 3.24449 27.0683C2.59554 30.6021 2.53406 34.2201 3.06256 37.7742C3.08533 37.8866 3.08273 38.0027 3.05498 38.114C3.02722 38.2252 2.975 38.3287 2.9022 38.4169C2.8294 38.505 2.73788 38.5755 2.63441 38.6231C2.53095 38.6707 2.41819 38.6942 2.30449 38.6919H1.60708C1.55634 39.2674 1.60768 39.8474 1.75869 40.4048C1.81933 40.4966 2.06191 40.5883 2.88062 40.7107C5.8726 41.0127 8.88109 41.1149 11.8864 41.0166L14.4032 40.986C14.6043 40.986 14.7971 41.0665 14.9392 41.21C15.0814 41.3534 15.1613 41.5479 15.1613 41.7507C15.1613 41.9535 15.0814 42.148 14.9392 42.2914C14.7971 42.4348 14.6043 42.5154 14.4032 42.5154H11.8864H9.36966L9.39998 42.6072ZM39.3284 30.8919H36.2355C36.1756 30.917 36.1104 30.9269 36.0458 30.9206C35.9812 30.9143 35.9192 30.892 35.8652 30.8557C35.8112 30.8193 35.7669 30.7702 35.7363 30.7124C35.7057 30.6547 35.6897 30.5903 35.6897 30.5248C35.6897 30.4593 35.7057 30.3949 35.7363 30.3372C35.7669 30.2794 35.8112 30.2303 35.8652 30.1939C35.9192 30.1576 35.9812 30.1353 36.0458 30.129C36.1104 30.1227 36.1756 30.1326 36.2355 30.1577H39.3284C39.387 30.1408 39.4488 30.1379 39.5088 30.1492C39.5687 30.1604 39.6253 30.1856 39.674 30.2226C39.7227 30.2597 39.7623 30.3077 39.7895 30.3628C39.8167 30.4178 39.8308 30.4785 39.8308 30.5401C39.8308 30.6016 39.8167 30.6623 39.7895 30.7174C39.7623 30.7725 39.7227 30.8205 39.674 30.8575C39.6253 30.8946 39.5687 30.9198 39.5088 30.931C39.4488 30.9423 39.387 30.9394 39.3284 30.9224V30.8919ZM56.8548 30.8919H53.7619C53.6901 30.8617 53.6287 30.8107 53.5855 30.7454C53.5424 30.6801 53.5193 30.6033 53.5193 30.5248C53.5193 30.4463 53.5424 30.3695 53.5855 30.3042C53.6287 30.2389 53.6901 30.1879 53.7619 30.1577H56.8548C56.9372 30.1815 57.0097 30.2316 57.0612 30.3006C57.1128 30.3696 57.1407 30.4537 57.1407 30.5401C57.1407 30.6265 57.1128 30.7106 57.0612 30.7796C57.0097 30.8486 56.9372 30.8987 56.8548 30.9224V30.8919Z" fill="#053361"/>
<path d="M49.6077 51.2644C70.7421 51.2644 87.8748 50.4838 87.8748 49.5209C87.8748 48.5579 70.7421 47.7773 49.6077 47.7773C28.4734 47.7773 11.3406 48.5579 11.3406 49.5209C11.3406 50.4838 28.4734 51.2644 49.6077 51.2644Z" fill="#DEDFE0"/>
<path d="M21.711 48.7865C25.7469 48.7865 29.0187 45.4861 29.0187 41.4147C29.0187 37.3434 25.7469 34.043 21.711 34.043C17.675 34.043 14.4032 37.3434 14.4032 41.4147C14.4032 45.4861 17.675 48.7865 21.711 48.7865Z" fill="#DEDFE0"/>
<path d="M21.711 49.5542C20.1157 49.5542 18.5563 49.077 17.2298 48.183C15.9034 47.2889 14.8696 46.0182 14.2591 44.5314C13.6487 43.0447 13.4889 41.4087 13.8001 39.8304C14.1114 38.2521 14.8796 36.8023 16.0076 35.6644C17.1356 34.5265 18.5728 33.7515 20.1374 33.4376C21.702 33.1236 23.3238 33.2848 24.7976 33.9006C26.2715 34.5164 27.5312 35.5593 28.4174 36.8973C29.3037 38.2354 29.7768 39.8085 29.7768 41.4177C29.7768 43.5756 28.927 45.6452 27.4144 47.1711C25.9017 48.697 23.8502 49.5542 21.711 49.5542ZM21.711 34.8107C20.4156 34.8107 19.1493 35.1982 18.0722 35.9242C16.9951 36.6501 16.1556 37.682 15.6599 38.8893C15.1641 40.0966 15.0344 41.4251 15.2871 42.7067C15.5399 43.9883 16.1637 45.1656 17.0796 46.0896C17.9956 47.0136 19.1627 47.6429 20.4332 47.8978C21.7037 48.1528 23.0206 48.0219 24.2174 47.5218C25.4142 47.0218 26.4371 46.1749 27.1568 45.0884C27.8765 44.0019 28.2606 42.7245 28.2606 41.4177C28.2646 40.5475 28.0982 39.6851 27.7708 38.8799C27.4434 38.0748 26.9616 37.3428 26.353 36.726C25.7445 36.1093 25.0211 35.6199 24.2244 35.2859C23.4278 34.952 22.5736 34.7801 21.711 34.7801V34.8107Z" fill="#053361"/>
<path d="M21.711 45.6377C24.022 45.6377 25.8955 43.7478 25.8955 41.4165C25.8955 39.0852 24.022 37.1953 21.711 37.1953C19.3999 37.1953 17.5265 39.0852 17.5265 41.4165C17.5265 43.7478 19.3999 45.6377 21.711 45.6377Z" fill="white"/>
<path d="M77.8381 48.7865C81.874 48.7865 85.1458 45.4861 85.1458 41.4147C85.1458 37.3434 81.874 34.043 77.8381 34.043C73.8021 34.043 70.5303 37.3434 70.5303 41.4147C70.5303 45.4861 73.8021 48.7865 77.8381 48.7865Z" fill="#DEDFE0"/>
<path d="M77.8381 49.5542C76.2428 49.5542 74.6834 49.077 73.357 48.183C72.0306 47.2889 70.9967 46.0182 70.3863 44.5314C69.7758 43.0447 69.616 41.4087 69.9273 39.8304C70.2385 38.2521 71.0067 36.8023 72.1347 35.6644C73.2627 34.5265 74.6999 33.7515 76.2645 33.4376C77.8291 33.1236 79.4509 33.2848 80.9247 33.9006C82.3986 34.5164 83.6583 35.5593 84.5446 36.8973C85.4309 38.2354 85.9039 39.8085 85.9039 41.4177C85.9039 43.5756 85.0541 45.6452 83.5415 47.1711C82.0289 48.697 79.9773 49.5542 77.8381 49.5542ZM77.8381 34.8107C76.5427 34.8107 75.2764 35.1982 74.1993 35.9242C73.1222 36.6501 72.2827 37.682 71.787 38.8893C71.2912 40.0966 71.1615 41.4251 71.4143 42.7067C71.667 43.9883 72.2908 45.1656 73.2068 46.0896C74.1228 47.0136 75.2898 47.6429 76.5603 47.8978C77.8308 48.1528 79.1478 48.0219 80.3446 47.5218C81.5413 47.0218 82.5643 46.1749 83.284 45.0884C84.0036 44.0019 84.3878 42.7245 84.3878 41.4177C84.3918 40.5475 84.2253 39.6851 83.8979 38.8799C83.5706 38.0748 83.0888 37.3428 82.4802 36.726C81.8716 36.1093 81.1482 35.6199 80.3516 35.2859C79.5549 34.952 78.7008 34.7801 77.8381 34.7801V34.8107Z" fill="#053361"/>
<path d="M77.8381 45.6377C80.1491 45.6377 82.0226 43.7478 82.0226 41.4165C82.0226 39.0852 80.1491 37.1953 77.8381 37.1953C75.527 37.1953 73.6536 39.0852 73.6536 41.4165C73.6536 43.7478 75.527 45.6377 77.8381 45.6377Z" fill="white"/>
<path d="M73.7445 40.8651C73.6912 40.8659 73.6384 40.8548 73.5897 40.8326C73.5411 40.8105 73.4979 40.7778 73.4632 40.737C73.4285 40.6961 73.4031 40.648 73.3888 40.5962C73.3746 40.5443 73.3718 40.4899 73.3807 40.4369C73.5792 39.4936 74.0672 38.6374 74.7755 37.9898C74.8133 37.9557 74.8575 37.9294 74.9054 37.9124C74.9533 37.8955 75.004 37.8882 75.0547 37.8911C75.1054 37.8939 75.155 37.9068 75.2008 37.929C75.2465 37.9512 75.2875 37.9822 75.3213 38.0204C75.3552 38.0586 75.3812 38.1031 75.398 38.1514C75.4148 38.1997 75.422 38.2509 75.4192 38.302C75.4164 38.3532 75.4036 38.4032 75.3816 38.4494C75.3596 38.4955 75.3288 38.5368 75.291 38.571C74.6985 39.1037 74.2852 39.8093 74.1084 40.5898C74.0939 40.6762 74.0493 40.7546 73.9826 40.8107C73.9158 40.8668 73.8314 40.8969 73.7445 40.8957V40.8651ZM77.8381 46.0039C76.7953 46 75.785 45.637 74.9745 44.9751C74.1639 44.3132 73.6017 43.392 73.3807 42.3639C73.348 42.3095 73.3287 42.248 73.3245 42.1846C73.3202 42.1211 73.3311 42.0575 73.3563 41.9992C73.3814 41.9409 73.4201 41.8895 73.469 41.8493C73.5179 41.8092 73.5756 41.7815 73.6374 41.7685C73.6991 41.7555 73.763 41.7577 73.8237 41.7748C73.8845 41.7919 73.9403 41.8234 73.9864 41.8668C74.0325 41.9101 74.0677 41.964 74.0889 42.0239C74.1102 42.0838 74.1169 42.148 74.1084 42.211C74.2625 42.9136 74.61 43.558 75.111 44.0703C75.6119 44.5825 76.246 44.9418 76.9404 45.1067C77.6347 45.2717 78.3611 45.2356 79.036 45.0027C79.7109 44.7699 80.307 44.3496 80.7557 43.7902C81.2044 43.2308 81.4875 42.5551 81.5726 41.8407C81.6576 41.1262 81.541 40.4021 81.2362 39.7515C80.9315 39.1009 80.4509 38.5502 79.8498 38.1629C79.2487 37.7755 78.5514 37.5671 77.8381 37.5616C77.4571 37.5651 77.0788 37.6269 76.7162 37.7451C76.6278 37.7531 76.5393 37.7307 76.4651 37.6816C76.3909 37.6326 76.3353 37.5597 76.3072 37.4748C76.2792 37.3899 76.2803 37.2979 76.3105 37.2137C76.3407 37.1296 76.3981 37.0581 76.4736 37.011C76.9147 36.869 77.375 36.7968 77.8381 36.7969C79.0444 36.7969 80.2013 37.2803 81.0543 38.1407C81.9073 39.0012 82.3865 40.1682 82.3865 41.3851C82.3865 42.602 81.9073 43.769 81.0543 44.6295C80.2013 45.49 79.0444 45.9734 77.8381 45.9734V46.0039ZM70.5303 42.8228H32.4452C32.2441 42.8228 32.0513 42.7422 31.9091 42.5988C31.767 42.4554 31.6871 42.2609 31.6871 42.0581C31.6871 41.8552 31.767 41.6607 31.9091 41.5173C32.0513 41.3739 32.2441 41.2933 32.4452 41.2933H70.5303C70.7314 41.2933 70.9242 41.3739 71.0664 41.5173C71.2085 41.6607 71.2884 41.8552 71.2884 42.0581C71.2884 42.2609 71.2085 42.4554 71.0664 42.5988C70.9242 42.7422 70.7314 42.8228 70.5303 42.8228ZM14.4336 38.8463H7.15615C5.68748 38.7959 4.22099 38.6939 2.75937 38.5404C2.6602 38.5252 2.57049 38.4725 2.50852 38.3929C2.44655 38.3134 2.41697 38.213 2.42582 38.1122C2.43315 38.0637 2.45005 38.0171 2.4755 37.9753C2.50096 37.9335 2.53447 37.8973 2.57404 37.8688C2.61362 37.8403 2.65846 37.8201 2.70592 37.8093C2.75337 37.7986 2.80248 37.7976 2.85034 37.8063L7.15615 38.1122H14.4336C14.4935 38.087 14.5586 38.0771 14.6232 38.0834C14.6878 38.0898 14.7498 38.1121 14.8038 38.1484C14.8578 38.1847 14.9021 38.2339 14.9327 38.2916C14.9634 38.3493 14.9794 38.4138 14.9794 38.4792C14.9794 38.5447 14.9634 38.6091 14.9327 38.6669C14.9021 38.7246 14.8578 38.7738 14.8038 38.8101C14.7498 38.8464 14.6878 38.8687 14.6232 38.875C14.5586 38.8813 14.4935 38.8715 14.4336 38.8463Z" fill="#053361"/>
<path d="M37.2968 26.3979L55.6419 26.7038C57.4006 26.7344 58.6742 28.1415 60.4329 28.1415L67.2252 28.2638C67.9226 28.2638 67.589 26.8262 67.5284 26.4897C66.9826 24.7156 65.0419 24.0426 63.5258 23.2473C61.2188 21.7683 58.6229 20.8084 55.9148 20.4332L38.8129 20.1885C37.6 20.1885 36.2051 20.0968 36.0839 21.6568L35.9019 25.0215C35.9019 25.2662 35.8413 26.1838 37.2968 26.3979Z" fill="#DEDFE0"/>
<path d="M67.2555 28.9999H66.5581L60.4935 28.9387C59.5341 28.8728 58.6015 28.5906 57.7645 28.1128C57.1182 27.7609 56.4049 27.5523 55.6722 27.5011L37.2361 27.1952C35.8716 26.9505 35.1135 26.1552 35.1742 24.9928L35.3864 21.6281C35.5381 19.4258 37.5697 19.4258 38.6613 19.4258L55.9452 19.6705C58.3848 19.9285 60.7365 20.7332 62.8284 22.0258L64.4961 22.8823C65.3231 23.1429 66.0859 23.5776 66.734 24.1576C67.3821 24.7376 67.9009 25.4498 68.2561 26.247C68.397 26.6206 68.4616 27.0192 68.4459 27.4187C68.4303 27.8182 68.3348 28.2103 68.1651 28.5717C68.0585 28.7113 67.9203 28.823 67.762 28.8975C67.6037 28.972 67.43 29.0071 67.2555 28.9999ZM37.4181 25.6352C38.3277 25.6964 55.5206 25.9411 55.7026 25.9411C56.6393 26.0045 57.5505 26.2761 58.371 26.7364C59.0236 27.1041 59.748 27.3233 60.4935 27.3787L66.5581 27.4705H66.8613C66.8525 27.2014 66.8118 26.9344 66.74 26.6752C66.3761 25.4517 65.0419 24.8399 63.7684 24.2281L62.04 23.3717C60.1526 22.193 58.0296 21.4512 55.8239 21.1999C54.9142 21.1387 38.9342 20.894 38.8432 20.894H38.631C37.1148 20.894 36.9026 21.047 36.8116 21.6587L36.6297 25.0234C36.6297 25.207 36.6297 25.4823 37.3574 25.6352H37.4181Z" fill="#053361"/>
<path d="M51.791 37.4109C51.7381 37.4156 51.6848 37.4085 51.6348 37.3901C51.5849 37.3718 51.5396 37.3427 51.502 37.3048C51.4644 37.2669 51.4355 37.2211 51.4174 37.1708C51.3992 37.1204 51.3922 37.0666 51.3968 37.0132C51.024 30.3848 50.1829 23.7916 48.88 17.2838C48.862 17.1826 48.8834 17.0783 48.94 16.9928C48.9965 16.9072 49.0837 16.8471 49.1832 16.825C49.2332 16.8115 49.2855 16.8089 49.3365 16.8174C49.3876 16.8258 49.4362 16.8452 49.4793 16.8741C49.5223 16.9031 49.5587 16.941 49.5861 16.9852C49.6135 17.0295 49.6312 17.0792 49.6381 17.1309C50.9432 23.6898 51.7842 30.334 52.1549 37.0132C52.1591 37.064 52.1528 37.115 52.1364 37.1631C52.12 37.2112 52.0938 37.2554 52.0596 37.2928C52.0254 37.3302 51.9839 37.36 51.9376 37.3803C51.8914 37.4007 51.8414 37.4111 51.791 37.4109ZM64.4355 28.1427H66.7097C66.951 28.1427 67.1823 28.046 67.3529 27.8739C67.5235 27.7018 67.6194 27.4684 67.6194 27.225C67.604 26.9924 67.5014 26.7744 67.3324 26.6153C67.1635 26.4563 66.9408 26.368 66.7097 26.3685H64.4658L64.4355 28.1427Z" fill="#053361"/>
<path d="M66.7097 28.9086H64.4355C64.2344 28.9086 64.0416 28.828 63.8995 28.6846C63.7573 28.5412 63.6774 28.3467 63.6774 28.1439V26.3698C63.6774 26.1669 63.7573 25.9724 63.8995 25.829C64.0416 25.6856 64.2344 25.6051 64.4355 25.6051H66.7097C67.144 25.6051 67.5604 25.7791 67.8675 26.0888C68.1746 26.3986 68.3471 26.8187 68.3471 27.2568C68.3471 27.6949 68.1746 28.115 67.8675 28.4248C67.5604 28.7346 67.144 28.9086 66.7097 28.9086ZM65.1936 27.3792H66.7097V27.1345H65.1936V27.3792ZM70.9549 39.3086H31.02C30.9697 39.3128 30.9191 39.3065 30.8714 39.2899C30.8237 39.2734 30.78 39.247 30.7429 39.2125C30.7058 39.178 30.6763 39.1361 30.6561 39.0894C30.636 39.0428 30.6256 38.9924 30.6258 38.9415C30.4262 37.5981 29.8697 36.3343 29.0155 35.2842C28.1614 34.234 27.0413 33.4367 25.7742 32.9768C25.7275 32.96 25.6847 32.9337 25.6485 32.8995C25.6122 32.8654 25.5833 32.8242 25.5634 32.7783C25.5435 32.7325 25.5331 32.683 25.5329 32.633C25.5326 32.583 25.5425 32.5334 25.562 32.4874C25.602 32.3973 25.6739 32.3255 25.7636 32.2859C25.8533 32.2464 25.9543 32.2418 26.0471 32.2733C27.3939 32.766 28.5909 33.6028 29.521 34.7019C30.4511 35.801 31.0826 37.1248 31.3536 38.5439H70.9549C71.0372 38.5676 71.1097 38.6178 71.1613 38.6868C71.2129 38.7558 71.2408 38.8398 71.2408 38.9262C71.2408 39.0127 71.2129 39.0967 71.1613 39.1657C71.1097 39.2347 71.0372 39.2849 70.9549 39.3086ZM4.5484 34.4145H2.30453C2.24586 34.4314 2.18411 34.4343 2.12413 34.423C2.06415 34.4118 2.00757 34.3866 1.95887 34.3496C1.91016 34.3125 1.87064 34.2645 1.84343 34.2095C1.81623 34.1544 1.80206 34.0937 1.80206 34.0321C1.80206 33.9706 1.81623 33.9099 1.84343 33.8548C1.87064 33.7997 1.91016 33.7517 1.95887 33.7147C2.00757 33.6776 2.06415 33.6524 2.12413 33.6412C2.18411 33.6299 2.24586 33.6329 2.30453 33.6498H4.60905C4.66969 33.6498 4.8213 33.6498 4.8213 33.4662V31.2333C4.82052 30.9484 4.9292 30.6743 5.12453 30.4686L6.03421 29.5509C6.09485 29.5204 6.09485 29.4898 6.09485 29.3368V28.4192L3.06259 28.4804C2.76723 28.4784 2.47274 28.4477 2.18324 28.3886C2.09578 28.3528 2.02394 28.2866 1.98077 28.202C1.9376 28.1173 1.92597 28.0198 1.948 27.9273C1.97002 27.8347 2.02423 27.7532 2.10079 27.6975C2.17734 27.6418 2.27115 27.6157 2.36517 27.6239C2.5943 27.6764 2.82779 27.7071 3.06259 27.7156H6.09485C6.28055 27.7226 6.45726 27.798 6.59143 27.9277C6.72559 28.0574 6.80785 28.2323 6.82259 28.4192V29.3368C6.83728 29.4988 6.8117 29.662 6.74817 29.8115C6.68464 29.9611 6.58516 30.0923 6.45872 30.1933C6.24647 30.3156 5.54905 30.9274 5.54905 30.9886C5.51847 31.0212 5.49467 31.0596 5.47905 31.1017C5.46342 31.1437 5.4563 31.1884 5.45808 31.2333V33.4356C5.45815 33.5588 5.43365 33.6807 5.38605 33.794C5.33845 33.9074 5.26872 34.01 5.18101 34.0956C5.0933 34.1812 4.98941 34.2481 4.87552 34.2924C4.76163 34.3367 4.64007 34.3574 4.51808 34.3533L4.5484 34.4145ZM24.8039 44.6615C24.7524 44.6618 24.7015 44.651 24.6544 44.6299C24.6074 44.6088 24.5653 44.5779 24.531 44.5392C24.4923 44.5047 24.4613 44.4624 24.44 44.4149C24.4188 44.3674 24.4078 44.316 24.4078 44.2639C24.4078 44.2118 24.4188 44.1603 24.44 44.1129C24.4613 44.0654 24.4923 44.023 24.531 43.9886C24.9194 43.5493 25.202 43.0255 25.3568 42.458C25.5116 41.8905 25.5344 41.2946 25.4235 40.7167C25.3126 40.1388 25.0709 39.5946 24.7173 39.1264C24.3637 38.6582 23.9077 38.2786 23.3848 38.0174C22.8619 37.7561 22.2863 37.6201 21.7028 37.62C21.1193 37.6199 20.5437 37.7558 20.0208 38.0169C19.4978 38.278 19.0417 38.6574 18.688 39.1255C18.3342 39.5936 18.0924 40.1378 17.9813 40.7156C17.9594 40.8161 17.8998 40.904 17.815 40.961C17.7302 41.0181 17.6268 41.0397 17.5265 41.0215C17.4269 40.9994 17.3397 40.9393 17.2832 40.8537C17.2267 40.7682 17.2052 40.6639 17.2232 40.5627C17.3587 39.8702 17.6508 39.2185 18.0767 38.6584C18.5026 38.0983 19.0508 37.6449 19.6788 37.3334C20.3068 37.022 20.9976 36.8609 21.6973 36.8627C22.3971 36.8645 23.087 37.0292 23.7134 37.3439C24.3398 37.6586 24.8857 38.1149 25.3088 38.6772C25.7318 39.2395 26.0205 39.8927 26.1524 40.586C26.2843 41.2792 26.2559 41.9938 26.0694 42.6742C25.8828 43.3545 25.5431 43.9823 25.0768 44.5086C25.0379 44.5497 24.9906 44.5818 24.9383 44.6029C24.886 44.624 24.8298 44.6336 24.7736 44.6309L24.8039 44.6615ZM21.711 46.0074C20.6682 46.0034 19.6579 45.6405 18.8474 44.9786C18.0368 44.3167 17.4746 43.3955 17.2536 42.3674C17.2437 42.271 17.2691 42.1743 17.3249 42.0955C17.3807 42.0166 17.4632 41.961 17.5568 41.9392C17.6068 41.9257 17.659 41.9231 17.7101 41.9315C17.7611 41.94 17.8098 41.9594 17.8528 41.9883C17.8959 42.0173 17.9323 42.0551 17.9597 42.0994C17.9871 42.1437 18.0048 42.1933 18.0116 42.2451C18.1302 42.8106 18.3744 43.3416 18.7258 43.7982C19.0771 44.2548 19.5266 44.6251 20.0402 44.8812C20.5539 45.1374 21.1185 45.2727 21.6915 45.277C22.2645 45.2814 22.831 45.1546 23.3484 44.9062C23.4273 44.9023 23.5055 44.9224 23.5729 44.9639C23.6403 45.0054 23.6938 45.0663 23.7265 45.1389C23.7592 45.2114 23.7695 45.2921 23.7561 45.3706C23.7428 45.4491 23.7064 45.5218 23.6516 45.5792C23.0439 45.8644 22.3812 46.0107 21.711 46.0074ZM31.8387 30.1627C31.6377 30.1627 31.4449 30.0821 31.3027 29.9387C31.1605 29.7953 31.0807 29.6008 31.0807 29.398V26.0027C31.0807 25.7999 31.1605 25.6054 31.3027 25.462C31.4449 25.3186 31.6377 25.238 31.8387 25.238C32.0398 25.238 32.2326 25.3186 32.3748 25.462C32.5169 25.6054 32.5968 25.7999 32.5968 26.0027V29.3674C32.6009 29.4704 32.5843 29.5731 32.548 29.6695C32.5118 29.7658 32.4566 29.8537 32.3858 29.928C32.315 30.0023 32.23 30.0614 32.136 30.1017C32.042 30.142 31.9409 30.1628 31.8387 30.1627ZM72.8349 26.1862L69.4387 26.0027C69.243 25.987 69.061 25.8954 68.9309 25.7471C68.8008 25.5987 68.7328 25.4053 68.7413 25.2074C68.7452 25.107 68.7687 25.0083 68.8105 24.917C68.8522 24.8257 68.9114 24.7436 68.9846 24.6755C69.0578 24.6073 69.1437 24.5543 69.2372 24.5196C69.3307 24.4849 69.4301 24.4692 69.5297 24.4733L72.9258 24.6874L72.8349 26.1862Z" fill="#053361"/>
<path d="M2.33488 28.0508C2.59434 28.1056 2.85824 28.1363 3.12327 28.1425H6.15553C6.15553 28.1425 6.45875 28.2037 6.45875 28.4484V29.3661C6.46718 29.4636 6.4523 29.5617 6.41536 29.6521C6.37843 29.7426 6.32052 29.8228 6.24649 29.8861L5.27617 30.7425L2.24391 33.3425L2.33488 28.0508ZM91.8472 37.6861H88.5117C88.3106 37.6861 88.1178 37.6055 87.9756 37.4621C87.8335 37.3187 87.7536 37.1242 87.7536 36.9214C87.7536 36.7186 87.8335 36.5241 87.9756 36.3806C88.1178 36.2372 88.3106 36.1567 88.5117 36.1567H91.8472C92.0482 36.1567 92.241 36.2372 92.3832 36.3806C92.5253 36.5241 92.6052 36.7186 92.6052 36.9214C92.6052 37.1242 92.5253 37.3187 92.3832 37.4621C92.241 37.6055 92.0482 37.6861 91.8472 37.6861ZM24.4097 32.5473C24.3795 32.5503 24.349 32.5503 24.3188 32.5473C23.822 32.4238 23.3139 32.3521 22.8026 32.3331C22.744 32.35 22.6822 32.353 22.6222 32.3417C22.5622 32.3305 22.5057 32.3053 22.457 32.2682C22.4083 32.2312 22.3687 32.1832 22.3415 32.1281C22.3143 32.073 22.3002 32.0123 22.3002 31.9508C22.3002 31.8892 22.3143 31.8285 22.3415 31.7734C22.3687 31.7184 22.4083 31.6704 22.457 31.6333C22.5057 31.5963 22.5622 31.5711 22.6222 31.5599C22.6822 31.5486 22.744 31.5515 22.8026 31.5684C23.3757 31.5886 23.9449 31.6707 24.5007 31.8131C24.5822 31.8451 24.6508 31.9036 24.6957 31.9792C24.7407 32.0549 24.7595 32.1435 24.749 32.2311C24.7386 32.3186 24.6996 32.4002 24.6382 32.463C24.5768 32.5258 24.4964 32.5662 24.4097 32.5778V32.5473ZM91.8472 34.9026H90.0278C89.7114 34.8867 89.4138 34.7466 89.1984 34.5122C88.9831 34.2779 88.8672 33.9679 88.8755 33.6484V31.9049C88.8598 31.6836 88.7625 31.4762 88.6026 31.3237L87.3897 30.2837C87.3473 30.2458 87.3142 30.1984 87.2932 30.1453C87.2721 30.0922 87.2636 30.0348 87.2684 29.9778V29.2437C87.2914 29.03 87.3962 28.8337 87.5604 28.6966C87.7246 28.5595 87.9353 28.4924 88.1478 28.5096H91.7865C91.8689 28.5333 91.9413 28.5835 91.9929 28.6525C92.0445 28.7215 92.0724 28.8055 92.0724 28.892C92.0724 28.9784 92.0445 29.0624 91.9929 29.1314C91.9413 29.2004 91.8689 29.2506 91.7865 29.2743H88.1478C88.0955 29.2711 88.0433 29.2817 87.9962 29.3049V29.8249L89.1181 30.8037C89.4141 31.0943 89.5878 31.4886 89.6033 31.9049V33.6484C89.6033 33.6484 89.6033 34.1378 89.9975 34.1378H91.8168C91.8992 34.1616 91.9717 34.2117 92.0233 34.2807C92.0748 34.3497 92.1027 34.4338 92.1027 34.5202C92.1027 34.6066 92.0748 34.6907 92.0233 34.7597C91.9717 34.8287 91.8992 34.8788 91.8168 34.9026H91.8472Z" fill="#053361"/>
<path d="M89.6032 31.9032C89.6032 31.475 88.9968 31.1691 88.8755 31.0774L87.6626 30.0068V29.2421C87.6626 28.9974 87.9658 28.875 88.1781 28.875H91.8168L89.6032 31.9032Z" fill="#053361"/>
</svg>
