<svg width="95" height="52" viewBox="0 0 95 52" fill="none" xmlns="http://www.w3.org/2000/svg">
<path d="M16.1116 42.0579C16.1116 42.0579 10.6086 41.232 9.99714 38.7544C9.92586 38.2697 9.97197 37.7751 10.1316 37.312C10.2912 36.8489 10.5596 36.4309 10.9143 36.0932V28.0179L14.8887 20.9826C14.6186 20.8638 14.3869 20.6721 14.2196 20.429C14.0522 20.1859 13.9557 19.901 13.941 19.6061C13.941 18.6273 15.8364 18.6885 16.6925 18.6273C27.3101 18.316 37.9289 18.0509 48.5488 17.832C50.6277 17.832 56.4976 18.7497 64.4464 25.6932L80.2217 29.2414C80.2217 29.2414 87.1311 34.1356 82.9121 42.0273H76.4308" fill="white"/>
<path d="M16.1116 42.823C15.5001 42.823 9.99711 41.8136 9.38566 38.9077C9.3028 38.3617 9.34209 37.8042 9.50069 37.2752C9.6593 36.7462 9.93326 36.2591 10.3028 35.8489V28.0183C10.2753 27.8975 10.2753 27.7721 10.3028 27.6513C10.3028 27.4677 12.6263 23.3077 13.9104 21.2277C13.6969 21.0216 13.5273 20.7745 13.4117 20.5012C13.2962 20.2278 13.237 19.9339 13.2378 19.6371C13.2378 18.1077 15.225 17.9854 16.295 17.9242H16.6619C17.6402 17.9242 46.5616 17.1289 48.5794 17.1289C50.5971 17.1289 56.2836 17.7407 64.8438 25.0818C66.5559 25.3877 78.1734 27.8348 80.5275 28.5995C81.5185 28.9787 82.4193 29.561 83.1722 30.309C83.9251 31.057 84.5134 31.9542 84.8993 32.943C85.4217 34.5256 85.5803 36.2057 85.3632 37.8582C85.1462 39.5106 84.5591 41.0927 83.6458 42.4866C83.5774 42.6052 83.4796 42.7041 83.3617 42.7737C83.2439 42.8434 83.1101 42.8815 82.9732 42.8842H76.4308C76.2281 42.8842 76.0336 42.8036 75.8903 42.6602C75.747 42.5168 75.6665 42.3223 75.6665 42.1195C75.6665 41.9167 75.747 41.7222 75.8903 41.5788C76.0336 41.4354 76.2281 41.3548 76.4308 41.3548H82.5452C83.2522 40.1872 83.7048 38.8834 83.8734 37.5287C84.042 36.174 83.9227 34.799 83.5235 33.4936C83.2224 32.7107 82.7589 32.0006 82.1634 31.41C81.5679 30.8195 80.854 30.362 80.0689 30.0677C77.6842 29.2724 64.477 26.5501 64.3853 26.5195C64.2476 26.5192 64.1156 26.4641 64.0184 26.3666C55.7639 19.2395 50.1386 18.7195 48.7322 18.7195C46.745 18.7195 17.9153 19.4536 16.937 19.5148H16.3867C15.8239 19.5008 15.2637 19.5943 14.7358 19.7901C14.7777 19.9223 14.849 20.0432 14.9443 20.1439C15.0396 20.2445 15.1565 20.3223 15.2861 20.3713C15.389 20.4163 15.4807 20.4836 15.5547 20.5682C15.6287 20.6528 15.6831 20.7526 15.7141 20.8607C15.7588 20.9619 15.7818 21.0712 15.7818 21.1818C15.7818 21.2925 15.7588 21.4018 15.7141 21.503C14.6135 23.0324 12.2289 27.3148 11.7397 28.2324V36.1242C11.7423 36.2284 11.7216 36.3318 11.6793 36.427C11.637 36.5222 11.5741 36.6069 11.4951 36.6748C11.2472 36.9271 11.0562 37.2297 10.9349 37.5621C10.8136 37.8945 10.7649 38.249 10.792 38.6018C11.0977 40.0395 14.2772 41.0489 16.2033 41.3548C16.406 41.3548 16.6004 41.4354 16.7437 41.5788C16.8871 41.7222 16.9676 41.9167 16.9676 42.1195C16.9676 42.3223 16.8871 42.5168 16.7437 42.6602C16.6004 42.8036 16.406 42.8842 16.2033 42.8842L16.1116 42.823Z" fill="#053361"/>
<path d="M46.256 51.2644C64.4745 51.2644 79.2435 50.4838 79.2435 49.5209C79.2435 48.5579 64.4745 47.7773 46.256 47.7773C28.0375 47.7773 13.2684 48.5579 13.2684 49.5209C13.2684 50.4838 28.0375 51.2644 46.256 51.2644Z" fill="#DEDFE0"/>
<path d="M13.8187 31.5982C14.8091 31.204 15.8321 30.897 16.8759 30.6806L15.9587 29.457H13.5129L13.8187 31.5982ZM81.5669 34.1982C80.5886 34.0147 76.0639 32.4547 76.0639 31.6288C76.0639 30.8029 76.8588 30.7111 77.5925 30.7111H78.5097L81.5669 34.1982Z" fill="#053361"/>
<path d="M22.8376 48.757C26.5353 48.757 29.5329 45.7579 29.5329 42.0582C29.5329 38.3585 26.5353 35.3594 22.8376 35.3594C19.1398 35.3594 16.1422 38.3585 16.1422 42.0582C16.1422 45.7579 19.1398 48.757 22.8376 48.757Z" fill="#DEDFE0"/>
<path d="M22.8376 49.5521C21.3622 49.5521 19.92 49.1143 18.6932 48.2942C17.4665 47.4741 16.5104 46.3085 15.9458 44.9447C15.3812 43.5809 15.2334 42.0803 15.5213 40.6325C15.8091 39.1847 16.5196 37.8548 17.5628 36.811C18.6061 35.7672 19.9353 35.0564 21.3823 34.7684C22.8293 34.4804 24.3292 34.6282 25.6923 35.1931C27.0553 35.758 28.2204 36.7146 29.0401 37.942C29.8597 39.1694 30.2972 40.6124 30.2972 42.0885C30.2892 44.0655 29.5007 45.9592 28.1035 47.3571C26.7063 48.7551 24.8135 49.544 22.8376 49.5521ZM22.8376 36.1544C21.6645 36.1544 20.5178 36.5024 19.5425 37.1545C18.5671 37.8065 17.8069 38.7333 17.358 39.8176C16.9091 40.902 16.7917 42.0951 17.0205 43.2462C17.2494 44.3973 17.8142 45.4547 18.6437 46.2846C19.4732 47.1145 20.53 47.6797 21.6805 47.9086C22.831 48.1376 24.0235 48.0201 25.1073 47.5709C26.1911 47.1218 27.1173 46.3612 27.7691 45.3854C28.4208 44.4095 28.7686 43.2622 28.7686 42.0885C28.7686 40.5147 28.1437 39.0053 27.0315 37.8925C25.9192 36.7796 24.4106 36.1544 22.8376 36.1544Z" fill="#053361"/>
<path d="M22.8375 45.8853C24.948 45.8853 26.659 44.1735 26.659 42.0618C26.659 39.9501 24.948 38.2383 22.8375 38.2383C20.7269 38.2383 19.0159 39.9501 19.0159 42.0618C19.0159 44.1735 20.7269 45.8853 22.8375 45.8853Z" fill="white"/>
<path d="M19.2605 43.5592C19.0655 43.0832 18.9618 42.5747 18.9548 42.0604C18.9488 41.2981 19.1688 40.5512 19.5871 39.9141C20.0053 39.277 20.603 38.7782 21.3045 38.481C22.0061 38.1837 22.78 38.1012 23.5283 38.244C24.2767 38.3868 24.966 38.7484 25.509 39.2831C26.0519 39.8178 26.4243 40.5016 26.5788 41.248C26.7334 41.9944 26.6633 42.7699 26.3773 43.4764C26.0914 44.183 25.6024 44.7888 24.9724 45.2173C24.3423 45.6459 23.5993 45.8778 22.8375 45.8839C21.9713 45.8916 21.1289 45.5999 20.4529 45.058" fill="white"/>
<path d="M22.8375 46.2796C21.8825 46.2803 20.9556 45.9567 20.2083 45.362C20.1353 45.293 20.0927 45.1979 20.0898 45.0975C20.0869 44.9971 20.1241 44.8997 20.193 44.8267C20.2619 44.7537 20.357 44.711 20.4573 44.7082C20.5577 44.7053 20.655 44.7424 20.728 44.8114C21.3375 45.3039 22.0961 45.5745 22.8796 45.5788C23.663 45.5831 24.4246 45.3209 25.0395 44.8352C25.6543 44.3494 26.0859 43.669 26.2634 42.9056C26.441 42.1421 26.3538 41.341 26.0164 40.6336C25.679 39.9262 25.1112 39.3546 24.4063 39.0125C23.7015 38.6704 22.9013 38.5782 22.1371 38.7509C21.373 38.9237 20.6902 39.3512 20.2008 39.9633C19.7115 40.5754 19.4446 41.3358 19.444 42.1196C19.4439 42.5822 19.5375 43.0401 19.7191 43.4655C19.7441 43.5593 19.7366 43.6588 19.6977 43.7477C19.6588 43.8366 19.5909 43.9097 19.5051 43.9549C19.4599 43.9799 19.4096 43.9941 19.358 43.9965C19.3064 43.9989 19.255 43.9893 19.2077 43.9686C19.1604 43.9479 19.1185 43.9166 19.0852 43.8771C19.052 43.8376 19.0283 43.7909 19.0159 43.7408C18.7787 43.2341 18.6635 42.6789 18.6796 42.1196C18.6796 41.2847 18.9271 40.4686 19.3907 39.7745C19.8543 39.0803 20.5132 38.5392 21.2841 38.2198C22.055 37.9003 22.9033 37.8167 23.7217 37.9795C24.5401 38.1424 25.2919 38.5444 25.8819 39.1348C26.4719 39.7251 26.8738 40.4773 27.0365 41.2961C27.1993 42.1149 27.1158 42.9637 26.7965 43.735C26.4771 44.5063 25.9364 45.1656 25.2426 45.6294C24.5488 46.0932 23.7331 46.3408 22.8986 46.3408L22.8375 46.2796Z" fill="#053361"/>
<path d="M69.6743 48.757C73.372 48.757 76.3696 45.7579 76.3696 42.0582C76.3696 38.3585 73.372 35.3594 69.6743 35.3594C65.9765 35.3594 62.9789 38.3585 62.9789 42.0582C62.9789 45.7579 65.9765 48.757 69.6743 48.757Z" fill="#DEDFE0"/>
<path d="M69.7049 49.552C68.2308 49.546 66.7916 49.1031 65.5689 48.2793C64.3462 47.4556 63.3948 46.2878 62.8349 44.9235C62.275 43.5592 62.1316 42.0595 62.4229 40.6137C62.7142 39.168 63.427 37.841 64.4715 36.8002C65.5159 35.7595 66.8452 35.0517 68.2914 34.7662C69.7375 34.4807 71.2359 34.6303 72.5971 35.196C73.9584 35.7618 75.1217 36.7185 75.94 37.9452C76.7583 39.1719 77.1951 40.6136 77.1951 42.0885C77.1951 43.0712 77.0011 44.0442 76.6244 44.9517C76.2476 45.8592 75.6954 46.6834 74.9994 47.3768C74.3035 48.0703 73.4775 48.6194 72.5689 48.9927C71.6604 49.3659 70.6871 49.556 69.7049 49.552ZM69.7049 36.1544C68.5332 36.1604 67.3895 36.5136 66.4181 37.1693C65.4468 37.825 64.6914 38.7539 64.2472 39.8387C63.8029 40.9235 63.6898 42.1157 63.9221 43.2648C64.1544 44.4139 64.7217 45.4684 65.5524 46.2952C66.383 47.1221 67.4399 47.6842 68.5896 47.9107C69.7392 48.1372 70.9302 48.0179 72.0122 47.5679C73.0941 47.1179 74.0186 46.3573 74.669 45.3821C75.3194 44.4069 75.6665 43.2608 75.6665 42.0885C75.6665 41.3066 75.5121 40.5325 75.2121 39.8105C74.9121 39.0885 74.4725 38.433 73.9185 37.8816C73.3645 37.3301 72.7071 36.8937 71.984 36.5972C71.2609 36.3008 70.4863 36.1503 69.7049 36.1544Z" fill="#053361"/>
<path d="M69.6743 45.8814C71.7848 45.8814 73.4958 44.1696 73.4958 42.0579C73.4958 39.9462 71.7848 38.2344 69.6743 38.2344C67.5637 38.2344 65.8527 39.9462 65.8527 42.0579C65.8527 44.1696 67.5637 45.8814 69.6743 45.8814Z" fill="white"/>
<path d="M62.979 42.8234H33.0181C32.8154 42.8234 32.621 42.7428 32.4777 42.5994C32.3344 42.456 32.2538 42.2615 32.2538 42.0587C32.2538 41.8559 32.3344 41.6614 32.4777 41.518C32.621 41.3746 32.8154 41.294 33.0181 41.294H62.979C63.1817 41.294 63.3761 41.3746 63.5195 41.518C63.6628 41.6614 63.7433 41.8559 63.7433 42.0587C63.7433 42.2615 63.6628 42.456 63.5195 42.5994C63.3761 42.7428 63.1817 42.8234 62.979 42.8234ZM11.0061 33.4022C10.943 33.4034 10.881 33.3868 10.8269 33.3543C10.7728 33.3219 10.729 33.2749 10.7003 33.2187C10.6661 33.1846 10.639 33.1441 10.6205 33.0995C10.602 33.0548 10.5924 33.007 10.5924 32.9587C10.5924 32.9104 10.602 32.8626 10.6205 32.8179C10.639 32.7733 10.6661 32.7328 10.7003 32.6987C12.44 31.6763 14.3431 30.9623 16.3256 30.5881L15.9282 29.9763H11.0061C10.9552 29.9765 10.9049 29.9661 10.8582 29.9458C10.8116 29.9255 10.7697 29.8956 10.7352 29.8583C10.7007 29.8209 10.6744 29.7767 10.6578 29.7286C10.6413 29.6804 10.635 29.6294 10.6392 29.5787C10.612 29.5201 10.6008 29.4554 10.6066 29.3912C10.6124 29.3269 10.635 29.2652 10.6722 29.2125C10.7095 29.1597 10.7599 29.1178 10.8185 29.0908C10.8771 29.0638 10.9418 29.0527 11.0061 29.0587H16.1116C16.2394 29.0637 16.3601 29.1186 16.4479 29.2116L17.304 30.4352C17.3334 30.4918 17.3488 30.5548 17.3488 30.6187C17.3488 30.6826 17.3334 30.7455 17.304 30.8022C17.2792 30.8609 17.2416 30.9134 17.194 30.9557C17.1464 30.998 17.09 31.0292 17.0288 31.0469C14.9587 31.4317 12.9784 32.1994 11.1895 33.3105L11.0061 33.4022ZM83.4013 34.6869C82.7712 34.7524 82.136 34.7524 81.5058 34.6869C81.5058 34.6869 75.6359 33.1575 75.6359 31.6281C75.6359 31.0163 75.9417 30.3434 77.562 30.3434H82.5453C82.6426 30.3434 82.7359 30.3821 82.8047 30.4509C82.8735 30.5197 82.9122 30.6131 82.9122 30.7105C82.9164 30.7612 82.91 30.8122 82.8935 30.8603C82.877 30.9085 82.8506 30.9526 82.8161 30.99C82.7816 31.0274 82.7397 31.0572 82.6931 31.0775C82.6465 31.0979 82.5962 31.1083 82.5453 31.1081H77.562C76.4003 31.1081 76.4003 31.4752 76.4003 31.6281C77.993 32.6771 79.7651 33.4237 81.6281 33.8305C82.645 33.9249 83.6685 33.9249 84.6854 33.8305C84.8688 33.8305 85.0828 33.9834 85.0828 34.1975C85.087 34.2482 85.0807 34.2993 85.0642 34.3474C85.0476 34.3955 85.0213 34.4397 84.9868 34.4771C84.9523 34.5145 84.9104 34.5443 84.8638 34.5646C84.8171 34.5849 84.7668 34.5953 84.7159 34.5952L83.4013 34.6869ZM38.9797 29.7928H35.9225C35.8716 29.793 35.8213 29.7826 35.7747 29.7623C35.728 29.7419 35.6862 29.7121 35.6517 29.6747C35.6172 29.6373 35.5908 29.5932 35.5743 29.545C35.5577 29.4969 35.5514 29.4459 35.5556 29.3952C35.5556 29.2978 35.5943 29.2045 35.6631 29.1356C35.7319 29.0668 35.8252 29.0281 35.9225 29.0281H38.9797C39.077 29.0281 39.1704 29.0668 39.2392 29.1356C39.308 29.2045 39.3466 29.2978 39.3466 29.3952C39.3508 29.4459 39.3445 29.4969 39.328 29.545C39.3114 29.5932 39.2851 29.6373 39.2506 29.6747C39.2161 29.7121 39.1742 29.7419 39.1276 29.7623C39.0809 29.7826 39.0306 29.793 38.9797 29.7928ZM48.9157 29.7928H45.8585C45.8076 29.793 45.7573 29.7826 45.7107 29.7623C45.664 29.7419 45.6222 29.7121 45.5877 29.6747C45.5532 29.6373 45.5268 29.5932 45.5103 29.545C45.4937 29.4969 45.4874 29.4459 45.4916 29.3952C45.4916 29.2978 45.5303 29.2045 45.5991 29.1356C45.6679 29.0668 45.7612 29.0281 45.8585 29.0281H48.9157C49.0161 29.0278 49.1128 29.0655 49.1865 29.1336C49.2602 29.2016 49.3055 29.2951 49.3132 29.3952C49.3132 29.5006 49.2713 29.6018 49.1968 29.6763C49.1222 29.7509 49.0211 29.7928 48.9157 29.7928ZM61.1447 39.7646H28.9826C28.9317 39.7648 28.8814 39.7543 28.8348 39.734C28.7881 39.7137 28.7462 39.6839 28.7117 39.6465C28.6772 39.6091 28.6509 39.5649 28.6344 39.5168C28.6178 39.4687 28.6115 39.4176 28.6157 39.3669C28.6157 39.2696 28.6544 39.1762 28.7232 39.1074C28.792 39.0385 28.8853 38.9999 28.9826 38.9999H60.6555C60.8414 37.9542 61.2556 36.9624 61.8686 36.0953C62.4816 35.2281 63.2783 34.507 64.2019 33.9834C64.236 33.9492 64.2765 33.922 64.3211 33.9035C64.3657 33.885 64.4135 33.8754 64.4618 33.8754C64.51 33.8754 64.5579 33.885 64.6025 33.9035C64.647 33.922 64.6875 33.9492 64.7216 33.9834C64.7684 34.0779 64.7786 34.1863 64.7504 34.2879C64.7222 34.3895 64.6575 34.4771 64.5688 34.534C63.7261 35.0473 63.0123 35.7471 62.4823 36.5796C61.9522 37.4122 61.6202 38.3553 61.5115 39.3363C61.5205 39.3894 61.5177 39.4438 61.5033 39.4957C61.489 39.5475 61.4634 39.5956 61.4284 39.6364C61.3933 39.6773 61.3498 39.71 61.3008 39.7321C61.2517 39.7542 61.1984 39.7653 61.1447 39.7646ZM16.6619 39.7646C15.4543 39.7225 14.277 39.375 13.2398 38.7545C12.2027 38.134 11.3395 37.2608 10.7309 36.2163C10.6884 36.1228 10.6837 36.0163 10.7179 35.9194C10.7521 35.8224 10.8225 35.7425 10.9143 35.6963C11.0079 35.6649 11.1098 35.6694 11.2002 35.709C11.2906 35.7486 11.3631 35.8204 11.4035 35.9105C11.9901 36.8141 12.785 37.5635 13.7214 38.0958C14.6577 38.6281 15.7081 38.9277 16.7842 38.9693C16.8327 38.9767 16.8792 38.9937 16.921 39.0194C16.9628 39.0451 16.999 39.0789 17.0275 39.1188C17.056 39.1587 17.0762 39.204 17.0869 39.2518C17.0977 39.2997 17.0987 39.3492 17.09 39.3975C17.0861 39.4498 17.0719 39.5008 17.0483 39.5476C17.0247 39.5944 16.992 39.636 16.9522 39.6701C16.9125 39.7042 16.8663 39.7301 16.8165 39.7463C16.7667 39.7626 16.7142 39.7688 16.6619 39.7646ZM60.3804 26.3975L62.2147 27.774L60.3804 26.3975ZM62.2147 28.5387C62.0486 28.5435 61.8861 28.4894 61.7561 28.3858L59.9218 27.0093C59.8415 26.949 59.7738 26.8735 59.7227 26.7871C59.6716 26.7007 59.6379 26.6051 59.6237 26.5057C59.6095 26.4063 59.6151 26.305 59.64 26.2077C59.6649 26.1105 59.7087 26.019 59.7689 25.9387C59.8291 25.8584 59.9046 25.7907 59.9909 25.7395C60.0773 25.6883 60.1729 25.6547 60.2723 25.6405C60.3716 25.6263 60.4728 25.6318 60.57 25.6567C60.6673 25.6817 60.7587 25.7255 60.8389 25.7858L62.6733 27.1622C62.7536 27.2225 62.8212 27.298 62.8724 27.3844C62.9235 27.4708 62.9571 27.5664 62.9713 27.6658C62.9855 27.7653 62.98 27.8665 62.9551 27.9638C62.9302 28.0611 62.8864 28.1525 62.8261 28.2328C62.7586 28.3316 62.6671 28.4116 62.5601 28.4651C62.4531 28.5186 62.3342 28.544 62.2147 28.5387Z" fill="#053361"/>
<path d="M73.5264 42.0587C73.5325 42.8223 73.3117 43.5704 72.8921 44.2082C72.4725 44.8461 71.8731 45.3448 71.1697 45.6412C70.4664 45.9376 69.6909 46.0183 68.9417 45.8731C68.1925 45.7278 67.5032 45.3632 66.9614 44.8254C66.4196 44.2877 66.0497 43.601 65.8986 42.8525C65.7475 42.1041 65.8219 41.3276 66.1126 40.6216C66.4032 39.9155 66.8969 39.3118 67.531 38.8869C68.1651 38.4621 68.9111 38.2352 69.6743 38.2352C70.2099 38.2239 70.7417 38.3283 71.2335 38.5411" fill="white"/>
<path d="M69.7049 46.2785C68.5859 46.2785 67.5128 45.8337 66.7216 45.0421C65.9304 44.2505 65.4859 43.1768 65.4859 42.0573C65.4859 40.9378 65.9304 39.8641 66.7216 39.0725C67.5128 38.2808 68.5859 37.8361 69.7049 37.8361C70.2956 37.8306 70.8803 37.956 71.4169 38.2032C71.507 38.2436 71.5787 38.3161 71.6183 38.4066C71.6578 38.497 71.6623 38.599 71.6309 38.6926C71.5847 38.785 71.5066 38.8576 71.4111 38.897C71.3156 38.9363 71.2091 38.9398 71.1112 38.9067C70.6734 38.6942 70.1913 38.5894 69.7049 38.6008C69.0216 38.6008 68.3537 38.8035 67.7855 39.1833C67.2174 39.5631 66.7746 40.103 66.5132 40.7346C66.2517 41.3661 66.1833 42.0611 66.3166 42.7316C66.4499 43.4021 66.7789 44.018 67.262 44.5014C67.7452 44.9848 68.3607 45.314 69.0309 45.4473C69.701 45.5807 70.3956 45.5123 71.0269 45.2507C71.6582 44.989 72.1977 44.546 72.5773 43.9776C72.9569 43.4092 73.1595 42.7409 73.1595 42.0573C73.1595 41.9518 73.2014 41.8507 73.2759 41.7761C73.3505 41.7015 73.4516 41.6596 73.557 41.6596C73.657 41.6674 73.7504 41.7126 73.8184 41.7864C73.8865 41.8601 73.9241 41.9569 73.9238 42.0573C73.9238 43.1768 73.4793 44.2505 72.6881 45.0421C71.8969 45.8337 70.8238 46.2785 69.7049 46.2785Z" fill="#053361"/>
<path d="M72.8845 39.9492C73.0368 40.1777 73.16 40.4243 73.2513 40.6833L72.8845 39.9492Z" fill="white"/>
<path d="M73.3736 41.0795C73.2994 41.0775 73.2275 41.0531 73.1675 41.0094C73.1074 40.9657 73.062 40.9048 73.0373 40.8348C72.9461 40.5853 72.8228 40.3488 72.6705 40.1312C72.6178 40.0461 72.601 39.9434 72.624 39.8459C72.6469 39.7484 72.7076 39.664 72.7927 39.6112C72.8779 39.5585 72.9805 39.5418 73.0779 39.5647C73.1754 39.5877 73.2598 39.6484 73.3125 39.7336C73.4911 39.9887 73.635 40.2664 73.7405 40.5595C73.7601 40.6055 73.77 40.6551 73.7698 40.7051C73.7695 40.7551 73.7591 40.8046 73.739 40.8504C73.719 40.8962 73.6898 40.9375 73.6533 40.9716C73.6167 41.0057 73.5736 41.032 73.5265 41.0489L73.3736 41.0795Z" fill="#053361"/>
<path d="M12.2289 26.6693H48.5183C45.1544 23.539 40.86 21.5947 36.2893 21.1328H15.5307" fill="#DEDFE0"/>
<path d="M11.9232 26.3958H60.4109C57.0927 23.2881 52.8541 21.3448 48.3349 20.8594L21.4007 20.9511" fill="#DEDFE0"/>
<path d="M60.3804 27.1616H11.9233C11.7205 27.1616 11.5261 27.081 11.3828 26.9376C11.2395 26.7942 11.1589 26.5997 11.1589 26.3969C11.1589 26.1941 11.2395 25.9996 11.3828 25.8562C11.5261 25.7128 11.7205 25.6322 11.9233 25.6322H58.0875C55.3045 23.3407 51.8944 21.944 48.3043 21.6251L21.4007 21.7169C21.2032 21.7171 21.0132 21.6407 20.8708 21.5039C20.7283 21.367 20.6443 21.1803 20.6364 20.9828C20.6362 20.7771 20.7157 20.5793 20.8583 20.431C21.0008 20.2827 21.1952 20.1954 21.4007 20.1875H48.396C49.6801 20.1875 54.3271 20.6157 60.9307 25.8769C61.049 25.9814 61.1349 26.1175 61.1783 26.2693C61.2216 26.4211 61.2206 26.5822 61.1753 26.7334C61.1 26.8824 60.9798 27.004 60.8316 27.0809C60.6835 27.1577 60.5149 27.186 60.3498 27.1616H60.3804ZM14.9805 21.7781C14.7778 21.7781 14.5834 21.6975 14.44 21.5541C14.2967 21.4107 14.2162 21.2162 14.2162 21.0134C14.2162 20.8106 14.2967 20.6161 14.44 20.4727C14.5834 20.3292 14.7778 20.2487 14.9805 20.2487H18.0377C18.2404 20.2487 18.4348 20.3292 18.5782 20.4727C18.7215 20.6161 18.802 20.8106 18.802 21.0134C18.8061 21.1123 18.7902 21.2111 18.7552 21.3037C18.7202 21.3963 18.6668 21.4809 18.5982 21.5524C18.5297 21.6238 18.4474 21.6806 18.3563 21.7194C18.2652 21.7582 18.1673 21.7782 18.0683 21.7781H15.0111H14.9805Z" fill="#053361"/>
<path d="M24.7637 26.7625C24.6633 26.7404 24.5754 26.6803 24.5184 26.5947C24.4614 26.5092 24.4397 26.4049 24.4579 26.3037L25.5585 21.4096C25.5873 21.3067 25.6534 21.2184 25.7439 21.1618C25.8344 21.1052 25.9427 21.0845 26.0477 21.1037C26.1156 21.1274 26.1763 21.1679 26.2244 21.2214C26.2725 21.2748 26.3064 21.3396 26.3229 21.4096L25.1611 26.4872C25.1303 26.5678 25.0759 26.6372 25.005 26.6864C24.934 26.7355 24.8499 26.762 24.7637 26.7625ZM42.9848 38.2331C42.8875 38.2331 42.7942 38.1944 42.7254 38.1256C42.6566 38.0567 42.6179 37.9634 42.6179 37.866C42.2429 31.2274 41.3949 24.6239 40.0804 18.106C40.0717 18.0577 40.0727 18.0082 40.0834 17.9603C40.0942 17.9125 40.1144 17.8672 40.1429 17.8273C40.1714 17.7874 40.2076 17.7536 40.2494 17.7279C40.2912 17.7022 40.3377 17.6852 40.3861 17.6778C40.4324 17.6641 40.4811 17.6606 40.5289 17.6675C40.5767 17.6743 40.6225 17.6914 40.6631 17.7175C40.7037 17.7436 40.7382 17.7782 40.7642 17.8188C40.7903 17.8595 40.8073 17.9053 40.8141 17.9531C42.1449 24.5208 43.0031 31.1755 43.3822 37.866C43.3824 37.9169 43.372 37.9673 43.3517 38.0139C43.3314 38.0606 43.3016 38.1025 43.2642 38.137C43.2268 38.1715 43.1827 38.1979 43.1346 38.2144C43.0865 38.231 43.0355 38.2373 42.9848 38.2331ZM54.694 27.2825H56.9563C57.1915 27.2825 57.417 27.189 57.5832 27.0227C57.7495 26.8563 57.8429 26.6307 57.8429 26.3954C57.8429 26.1602 57.7495 25.9345 57.5832 25.7682C57.417 25.6018 57.1915 25.5084 56.9563 25.5084H54.694V27.2825Z" fill="#053361"/>
<path d="M56.9563 28.0457H54.6939C54.4912 28.0457 54.2968 27.9651 54.1535 27.8217C54.0101 27.6783 53.9296 27.4838 53.9296 27.281V25.5069C53.9296 25.3041 54.0101 25.1096 54.1535 24.9662C54.2968 24.8228 54.4912 24.7422 54.6939 24.7422H56.9563C57.3941 24.7422 57.814 24.9162 58.1236 25.226C58.4332 25.5357 58.6072 25.9559 58.6072 26.3939C58.6072 26.832 58.4332 27.2522 58.1236 27.5619C57.814 27.8717 57.3941 28.0457 56.9563 28.0457ZM55.4276 26.5163H56.9563V26.3022H55.4276V26.5163Z" fill="#053361"/>
</svg>
