<svg width="31" height="31" viewBox="0 0 31 31" fill="none" xmlns="http://www.w3.org/2000/svg">
<rect width="30" height="30" transform="translate(0.816895 0.5)" fill="white"/>
<path d="M17.7473 13.5711C16.7234 12.5476 15.335 11.9727 13.8873 11.9727C12.4396 11.9727 11.0512 12.5476 10.0273 13.5711L6.16602 17.431C5.14212 18.455 4.56689 19.8437 4.56689 21.2917C4.56689 22.7397 5.14212 24.1284 6.16602 25.1523C7.18992 26.1762 8.57863 26.7514 10.0266 26.7514C11.4747 26.7514 12.8634 26.1762 13.8873 25.1523L15.8173 23.2223" stroke="black" stroke-width="2" stroke-linecap="round" stroke-linejoin="round"/>
<path d="M13.8877 17.4304C14.9116 18.4538 16.3 19.0288 17.7477 19.0288C19.1954 19.0288 20.5838 18.4538 21.6077 17.4304L25.4689 13.5704C26.4928 12.5465 27.0681 11.1578 27.0681 9.70975C27.0681 8.26173 26.4928 6.87302 25.4689 5.84912C24.445 4.82522 23.0563 4.25 21.6083 4.25C20.1603 4.25 18.7716 4.82522 17.7477 5.84912L15.8177 7.77912" stroke="black" stroke-width="2" stroke-linecap="round" stroke-linejoin="round"/>
</svg>
