<svg width="30" height="31" viewBox="0 0 30 31" fill="none" xmlns="http://www.w3.org/2000/svg">
<g clip-path="url(#clip0)">
<path d="M15 30.5C23.2843 30.5 30 23.7843 30 15.5C30 7.21573 23.2843 0.5 15 0.5C6.71573 0.5 0 7.21573 0 15.5C0 23.7843 6.71573 30.5 15 30.5Z" fill="#3C5A9A"/>
<path d="M19.8777 5.10547H16.5548C14.5829 5.10547 12.3896 5.93482 12.3896 8.79317C12.3992 9.78913 12.3896 10.743 12.3896 11.8164H10.1084V15.4465H12.4602V25.897H16.7818V15.3776H19.6342L19.8923 11.8063H16.7073C16.7073 11.8063 16.7145 10.2176 16.7073 9.75623C16.7073 8.62667 17.8827 8.69136 17.9534 8.69136C18.5127 8.69136 19.6002 8.69299 19.8793 8.69136V5.10547H19.8777Z" fill="white"/>
</g>
<defs>
<clipPath id="clip0">
<rect width="30" height="30" fill="white" transform="translate(0 0.5)"/>
</clipPath>
</defs>
</svg>
