<svg width="31" height="31" viewBox="0 0 31 31" fill="none" xmlns="http://www.w3.org/2000/svg">
<g clip-path="url(#clip0)">
<path d="M8.42411 30.3939C6.64 30.3128 5.67082 30.0159 5.02619 29.7644C4.17202 29.4319 3.56305 29.036 2.92199 28.3958C2.28092 27.7556 1.88415 27.1467 1.55336 26.2925C1.30193 25.6479 1.00502 24.6787 0.923888 22.8946C0.834727 20.966 0.816895 20.3874 0.816895 15.5013C0.816895 10.6153 0.83651 10.0376 0.922996 8.10722C1.00413 6.3231 1.30282 5.35571 1.55247 4.70929C1.88504 3.85513 2.28181 3.24616 2.92109 2.6042C3.56127 1.96402 4.17024 1.56637 5.02529 1.23558C5.66993 0.984144 6.63911 0.687238 8.42322 0.606102C10.3527 0.517832 10.9322 0.5 15.8164 0.5C20.7025 0.5 21.2802 0.519615 23.2106 0.606102C24.9947 0.687238 25.9621 0.985927 26.6085 1.23558C27.4627 1.56637 28.0716 1.96402 28.7127 2.6042C29.3538 3.24438 29.7487 3.85424 30.0813 4.7084C30.3328 5.35303 30.6297 6.32221 30.7108 8.10632C30.7991 10.0367 30.8169 10.6144 30.8169 15.5004C30.8169 20.3847 30.7991 20.9642 30.7108 22.8946C30.6297 24.6787 30.331 25.6479 30.0813 26.2925C29.7487 27.1467 29.3529 27.7556 28.7127 28.3958C28.0725 29.036 27.4627 29.4319 26.6085 29.7644C25.9639 30.0159 24.9947 30.3128 23.2106 30.3939C21.282 30.4822 20.7025 30.5 15.8164 30.5C10.9322 30.5 10.3527 30.4831 8.42411 30.3939Z" fill="url(#paint0_radial)"/>
<path d="M8.42411 30.3939C6.64 30.3128 5.67082 30.0159 5.02619 29.7644C4.17202 29.4319 3.56305 29.036 2.92199 28.3958C2.28092 27.7556 1.88415 27.1467 1.55336 26.2925C1.30193 25.6479 1.00502 24.6787 0.923888 22.8946C0.834727 20.966 0.816895 20.3874 0.816895 15.5013C0.816895 10.6153 0.83651 10.0376 0.922996 8.10722C1.00413 6.3231 1.30282 5.35571 1.55247 4.70929C1.88504 3.85513 2.28181 3.24616 2.92109 2.6042C3.56127 1.96402 4.17024 1.56637 5.02529 1.23558C5.66993 0.984144 6.63911 0.687238 8.42322 0.606102C10.3527 0.517832 10.9322 0.5 15.8164 0.5C20.7025 0.5 21.2802 0.519615 23.2106 0.606102C24.9947 0.687238 25.9621 0.985927 26.6085 1.23558C27.4627 1.56637 28.0716 1.96402 28.7127 2.6042C29.3538 3.24438 29.7487 3.85424 30.0813 4.7084C30.3328 5.35303 30.6297 6.32221 30.7108 8.10632C30.7991 10.0367 30.8169 10.6144 30.8169 15.5004C30.8169 20.3847 30.7991 20.9642 30.7108 22.8946C30.6297 24.6787 30.331 25.6479 30.0813 26.2925C29.7487 27.1467 29.3529 27.7556 28.7127 28.3958C28.0725 29.036 27.4627 29.4319 26.6085 29.7644C25.9639 30.0159 24.9947 30.3128 23.2106 30.3939C21.282 30.4822 20.7025 30.5 15.8164 30.5C10.9322 30.5 10.3527 30.4831 8.42411 30.3939Z" fill="url(#paint1_radial)"/>
<path d="M12.1338 15.5631C12.1338 13.5114 13.7966 11.8478 15.8482 11.8478C17.8999 11.8478 19.5636 13.5114 19.5636 15.5631C19.5636 17.6148 17.8999 19.2784 15.8482 19.2784C13.7966 19.2784 12.1338 17.6148 12.1338 15.5631ZM10.1254 15.5631C10.1254 18.7239 12.6875 21.286 15.8482 21.286C19.009 21.286 21.5711 18.7239 21.5711 15.5631C21.5711 12.4023 19.009 9.84021 15.8482 9.84021C12.6875 9.84021 10.1255 12.4022 10.1255 15.5631H10.1254ZM20.4604 9.61329C20.4603 9.87781 20.5386 10.1364 20.6855 10.3564C20.8323 10.5764 21.0411 10.7479 21.2855 10.8492C21.5298 10.9506 21.7987 10.9771 22.0582 10.9256C22.3176 10.8741 22.556 10.7469 22.7431 10.5599C22.9302 10.3729 23.0577 10.1347 23.1094 9.87527C23.1611 9.61586 23.1347 9.34694 23.0336 9.10251C22.9325 8.85809 22.7611 8.64915 22.5413 8.5021C22.3214 8.35506 22.0628 8.27652 21.7983 8.27641H21.7978C21.4432 8.27658 21.1032 8.41746 20.8525 8.66813C20.6017 8.91879 20.4607 9.25873 20.4604 9.61329ZM11.3456 24.635C10.259 24.5856 9.66841 24.4046 9.27593 24.2517C8.75558 24.0491 8.38432 23.8078 7.99397 23.418C7.60362 23.0282 7.36199 22.6573 7.16031 22.1369C7.00731 21.7446 6.82632 21.1538 6.77692 20.0672C6.72289 18.8925 6.7121 18.5396 6.7121 15.5633C6.7121 12.587 6.72378 12.2351 6.77692 11.0593C6.8264 9.9727 7.00874 9.38308 7.16031 8.98961C7.36289 8.46927 7.60416 8.098 7.99397 7.70765C8.38378 7.31731 8.75469 7.07568 9.27593 6.874C9.66823 6.721 10.259 6.54 11.3456 6.49061C12.5204 6.43657 12.8733 6.42579 15.8482 6.42579C18.8232 6.42579 19.1765 6.43729 20.3522 6.49078C21.4388 6.54027 22.0284 6.7226 22.4219 6.87418C22.9423 7.07586 23.3135 7.31802 23.7039 7.70783C24.0942 8.09764 24.3349 8.46945 24.5375 8.98979C24.6905 9.3821 24.8715 9.97288 24.9209 11.0595C24.9749 12.2352 24.9857 12.5872 24.9857 15.5635C24.9857 18.5397 24.9749 18.8917 24.9209 20.0674C24.8714 21.154 24.6895 21.7446 24.5375 22.1371C24.3349 22.6575 24.0937 23.0287 23.7039 23.4182C23.3141 23.8076 22.9423 24.0493 22.4219 24.2518C22.0296 24.4048 21.4388 24.5858 20.3522 24.6352C19.1774 24.6893 18.8245 24.7 15.8482 24.7C12.872 24.7 12.52 24.6893 11.3456 24.6352V24.635ZM11.2533 4.48546C10.0669 4.5395 9.25613 4.72763 8.5481 5.00313C7.81529 5.28765 7.1941 5.66934 6.57381 6.28866C5.95352 6.90797 5.5728 7.52924 5.28829 8.26295C5.01278 8.97142 4.82465 9.78172 4.77062 10.9682C4.7157 12.1565 4.70312 12.5364 4.70312 15.5631C4.70312 18.5898 4.7157 18.9697 4.77062 20.158C4.82465 21.3446 5.01278 22.1548 5.28829 22.8632C5.5728 23.5961 5.95361 24.2185 6.57381 24.8375C7.19402 25.4566 7.8144 25.8377 8.5481 26.1231C9.25747 26.3986 10.0669 26.5867 11.2533 26.6407C12.4423 26.6948 12.8216 26.7082 15.8482 26.7082C18.8749 26.7082 19.2548 26.6957 20.4432 26.6407C21.6297 26.5867 22.4399 26.3986 23.1484 26.1231C23.8812 25.8377 24.5024 25.4568 25.1227 24.8375C25.743 24.2182 26.1229 23.5961 26.4082 22.8632C26.6837 22.1548 26.8727 21.3445 26.9259 20.158C26.9799 18.9688 26.9925 18.5898 26.9925 15.5631C26.9925 12.5364 26.9799 12.1565 26.9259 10.9682C26.8718 9.78163 26.6837 8.97098 26.4082 8.26295C26.1229 7.53013 25.742 6.90895 25.1227 6.28866C24.5034 5.66836 23.8812 5.28765 23.1493 5.00313C22.4399 4.72763 21.6296 4.5386 20.4441 4.48546C19.2555 4.43116 18.8758 4.41797 15.8496 4.41797C12.8234 4.41797 12.4427 4.43054 11.2538 4.48546" fill="white"/>
</g>
<defs>
<radialGradient id="paint0_radial" cx="0" cy="0" r="1" gradientUnits="userSpaceOnUse" gradientTransform="translate(2.75846 29.8428) scale(38.0889)">
<stop offset="0.09" stop-color="#FA8F21"/>
<stop offset="0.78" stop-color="#D82D7E"/>
</radialGradient>
<radialGradient id="paint1_radial" cx="0" cy="0" r="1" gradientUnits="userSpaceOnUse" gradientTransform="translate(21.5968 28.8795) scale(33.5186)">
<stop offset="0.64" stop-color="#8C3AAA" stop-opacity="0"/>
<stop offset="1" stop-color="#8C3AAA"/>
</radialGradient>
<clipPath id="clip0">
<rect width="30" height="30" fill="white" transform="translate(0.816895 0.5)"/>
</clipPath>
</defs>
</svg>
