<svg width="30" height="31" viewBox="0 0 30 31" fill="none" xmlns="http://www.w3.org/2000/svg">
<g clip-path="url(#clip0)">
<path d="M0 2.69455C0 1.52736 0.99002 0.558594 2.21299 0.558594H27.6041C28.8271 0.558594 29.8171 1.51569 29.8171 2.69455V28.3026C29.8171 29.4698 28.8271 30.4386 27.6041 30.4386H2.21299C0.99002 30.4386 0 29.4815 0 28.3026V2.69455Z" fill="#006699"/>
<path d="M9.06188 25.5606V12.1146H4.60097V25.5606H9.06188ZM6.83725 10.2704C8.38634 10.2704 9.35306 9.24328 9.35306 7.9477C9.32977 6.62878 8.38634 5.625 6.87219 5.625C5.34639 5.625 4.34473 6.62878 4.34473 7.95938C4.34473 9.24328 5.31145 10.2821 6.81395 10.2821H6.83725V10.2704ZM11.5311 25.5606H15.992V18.0672C15.992 17.6587 16.027 17.2502 16.1434 16.9701C16.4579 16.1764 17.1917 15.336 18.4263 15.336C20.0453 15.336 20.6859 16.5732 20.6859 18.3707V25.5722H25.1584V17.8688C25.1584 13.737 22.9571 11.7994 20.0336 11.7994C19.2143 11.7677 18.4022 11.9635 17.687 12.3651C16.9717 12.7668 16.3811 13.3586 15.9804 14.0754H16.0037V12.1146H11.5311C11.5893 13.3751 11.5311 25.5606 11.5311 25.5606Z" fill="white"/>
</g>
<defs>
<clipPath id="clip0">
<rect width="29.8171" height="30" fill="white" transform="translate(0 0.5)"/>
</clipPath>
</defs>
</svg>
