<svg width="31" height="31" viewBox="0 0 31 31" fill="none" xmlns="http://www.w3.org/2000/svg">
<g clip-path="url(#clip0)">
<path d="M0.816895 15.4419C0.816895 21.5602 4.49604 26.8164 9.76075 29.1274C9.71872 28.084 9.75328 26.8315 10.0208 25.6963C10.3081 24.4833 11.9434 17.5545 11.9434 17.5545C11.9434 17.5545 11.4661 16.6004 11.4661 15.1904C11.4661 12.9761 12.7494 11.3224 14.3477 11.3224C15.7068 11.3224 16.3634 12.3432 16.3634 13.5656C16.3634 14.9319 15.492 16.9755 15.0439 18.8683C14.6695 20.4533 15.8386 21.7461 17.4022 21.7461C20.2332 21.7461 22.1399 18.11 22.1399 13.8019C22.1399 10.5271 19.9342 8.07599 15.9225 8.07599C11.3901 8.07599 8.56647 11.4561 8.56647 15.2316C8.56647 16.5334 8.95028 17.4514 9.55145 18.1623C9.82787 18.4888 9.86627 18.6201 9.76623 18.9951C9.69456 19.27 9.52997 19.9318 9.4618 20.1941C9.36234 20.5726 9.05569 20.7079 8.71367 20.5681C6.62604 19.7159 5.65378 17.4297 5.65378 14.8597C5.65378 10.6153 9.23347 5.52576 16.3326 5.52576C22.0373 5.52576 25.792 9.65385 25.792 14.0851C25.792 19.9465 22.5333 24.3255 17.7298 24.3255C16.1167 24.3255 14.5993 23.4535 14.0795 22.463C14.0795 22.463 13.212 25.9057 13.0283 26.5705C12.7115 27.7225 12.0914 28.8739 11.5244 29.7714C12.8683 30.168 14.2878 30.3841 15.7591 30.3841C24.0102 30.3841 30.7003 23.6943 30.7003 15.4419C30.7003 7.18977 24.0102 0.5 15.7591 0.5C7.50724 0.5 0.816895 7.18977 0.816895 15.4419Z" fill="#CB1F27"/>
</g>
<defs>
<clipPath id="clip0">
<rect width="30" height="30" fill="white" transform="translate(0.816895 0.5)"/>
</clipPath>
</defs>
</svg>
