<svg width="30" height="31" viewBox="0 0 30 31" fill="none" xmlns="http://www.w3.org/2000/svg">
<g clip-path="url(#clip0)">
<path d="M25.6283 4.85962C22.8081 2.04991 19.0581 0.501714 15.0628 0.5C6.82972 0.5 0.129672 7.16844 0.126376 15.3649C0.125416 17.9849 0.813021 20.5425 2.11997 22.7969L0.000976562 30.5L7.91893 28.4329C10.1005 29.6174 12.5568 30.2416 15.0563 30.2426H15.0627H15.0628C23.2945 30.2426 29.9955 23.573 29.999 15.3769C30.0004 11.4046 28.4481 7.66951 25.6283 4.85962ZM15.0628 27.7319H15.0579C12.8299 27.7307 10.645 27.1352 8.73931 26.0093L8.28578 25.7416L3.5871 26.9682L4.84158 22.4088L4.54609 21.9414C3.30329 19.974 2.6472 17.7004 2.64813 15.3658C2.65086 8.55322 8.21968 3.01083 15.0675 3.01083C18.3835 3.0122 21.5002 4.29908 23.8443 6.63442C26.1882 8.96973 27.478 12.0742 27.477 15.3759C27.4741 22.1887 21.9051 27.7319 15.0628 27.7319Z" fill="#E0E0E0"/>
<path d="M0.686523 29.6446L2.70873 22.2934C1.46115 20.1419 0.805084 17.701 0.805872 15.2012C0.809143 7.37926 7.20319 1.01562 15.0595 1.01562C18.8725 1.01734 22.4513 2.49474 25.142 5.17617C27.8334 7.85757 29.3146 11.4217 29.3131 15.2122C29.3098 23.0343 22.9153 29.3985 15.06 29.3985C15.0595 29.3985 15.0604 29.3985 15.06 29.3985H15.0537C12.6683 29.3978 10.3244 28.8016 8.24264 27.672L0.686523 29.6446Z" fill="url(#paint0_linear)"/>
<path fill-rule="evenodd" clip-rule="evenodd" d="M11.3723 9.0534C11.096 8.44173 10.805 8.42948 10.5421 8.41878C10.3271 8.4096 10.0809 8.41016 9.83515 8.41016C9.58917 8.41016 9.18946 8.50219 8.85144 8.86973C8.51322 9.23727 7.56006 10.1258 7.56006 11.9328C7.56006 13.7401 8.88218 15.4863 9.06647 15.7316C9.25095 15.9765 11.6187 19.8033 15.3685 21.2756C18.4849 22.4991 19.1191 22.2557 19.7955 22.1945C20.4719 22.1333 21.9781 21.3062 22.2856 20.4485C22.5931 19.5909 22.5931 18.8559 22.5008 18.7022C22.4086 18.5492 22.1626 18.4573 21.7937 18.2737C21.4247 18.09 19.611 17.2013 19.2728 17.0788C18.9346 16.9564 18.6886 16.8952 18.4426 17.2629C18.1966 17.6303 17.49 18.4573 17.2748 18.7022C17.0596 18.9477 16.8443 18.9783 16.4754 18.7946C16.1064 18.6104 14.9182 18.2229 13.5087 16.9717C12.412 15.9982 11.6715 14.7959 11.4563 14.4282C11.2411 14.0609 11.4332 13.8619 11.6183 13.6788C11.7839 13.5143 11.9872 13.25 12.1717 13.0356C12.3558 12.8211 12.4173 12.668 12.5403 12.4231C12.6633 12.1778 12.6018 11.9634 12.5096 11.7797C12.4173 11.596 11.7003 9.77966 11.3723 9.0534Z" fill="white"/>
<path d="M25.5065 4.81349C22.7187 2.03604 19.0117 0.505645 15.0623 0.503906C6.92369 0.503906 0.300559 7.09579 0.297288 15.1982C0.296328 17.7881 0.976037 20.3163 2.26798 22.5448L0.17334 30.1595L8.0004 28.1162C10.1569 29.287 12.585 29.9041 15.0559 29.905H15.0622H15.0623C23.1995 29.905 29.8236 23.312 29.827 15.21C29.8284 11.2833 28.2939 7.59114 25.5065 4.81349ZM15.0623 27.4232H15.0575C12.855 27.4221 10.6952 26.8333 8.81136 25.7204L8.36302 25.4558L3.71829 26.6682L4.95836 22.1612L4.66626 21.6992C3.43773 19.7544 2.78916 17.5069 2.79012 15.1991C2.7928 8.46472 8.29769 2.98596 15.0669 2.98596C18.3449 2.98731 21.4258 4.25942 23.743 6.56794C26.0599 8.87646 27.335 11.9453 27.334 15.2091C27.3311 21.9437 21.826 27.4232 15.0623 27.4232Z" fill="white"/>
</g>
<defs>
<linearGradient id="paint0_linear" x1="14.9998" y1="29.6446" x2="14.9998" y2="1.01567" gradientUnits="userSpaceOnUse">
<stop stop-color="#20B038"/>
<stop offset="1" stop-color="#60D66A"/>
</linearGradient>
<clipPath id="clip0">
<rect width="30" height="30" fill="white" transform="translate(0 0.5)"/>
</clipPath>
</defs>
</svg>
