<svg width="45" height="45" viewBox="0 0 45 45" fill="none" xmlns="http://www.w3.org/2000/svg">
<path d="M33.1554 40.7819H4.73649V11.842H21.3142V7.10547H4.73649C2.13142 7.10547 0 9.23689 0 11.842V40.2609C0 42.866 2.13142 44.9974 4.73649 44.9974H33.1554C35.7605 44.9974 37.8919 42.866 37.8919 40.2609V23.6832H33.1554V40.7819Z" fill="#48565C" fill-opacity="0.5"/>
<path d="M37.8936 0H33.1571V7.10474H26.0523C26.076 7.12842 26.0523 11.8412 26.0523 11.8412H33.1571V18.9223C33.1807 18.946 37.8936 18.9223 37.8936 18.9223V11.8412H44.9983V7.10474H37.8936V0ZM9.47461 16.5777H28.4206V21.3142H9.47461V16.5777ZM9.47461 23.6825V28.4189H28.4206V23.6825H21.3158H9.47461ZM9.47461 30.7872H28.4206V35.5237H9.47461V30.7872Z" fill="#48565C" fill-opacity="0.5"/>
</svg>
