<svg width="20" height="15" viewBox="0 0 20 15" fill="none" xmlns="http://www.w3.org/2000/svg">
<path d="M19.6621 8.12705L13.5166 14.2756L13.3874 14.3863C13.1653 14.551 12.8914 14.6305 12.6156 14.6102C12.3398 14.5898 12.0805 14.4711 11.8849 14.2756L11.7742 14.1464C11.6094 13.9243 11.53 13.6504 11.5503 13.3746C11.5707 13.0988 11.6894 12.8394 11.8849 12.6439L16.0695 8.45924H1.15343L0.996559 8.44847C0.720423 8.41057 0.467354 8.27395 0.284153 8.06389C0.10095 7.85383 1.14441e-05 7.58454 0 7.30581L0.0107651 7.14895C0.0486717 6.87281 0.185287 6.61974 0.395348 6.43654C0.605408 6.25334 0.874701 6.1524 1.15343 6.15239L16.0588 6.15239L11.8849 1.96929L11.7726 1.84011C11.5986 1.60604 11.5198 1.31474 11.5519 1.02487C11.5841 0.734995 11.7249 0.468062 11.9459 0.277807C12.167 0.087553 12.4519 -0.0118961 12.7433 -0.000519753C13.0348 0.0108566 13.3111 0.132213 13.5166 0.33912L19.6636 6.49688L19.7743 6.62606C19.9385 6.84824 20.0174 7.12194 19.9968 7.39739C19.9762 7.67285 19.8574 7.93176 19.6621 8.12705Z" fill="#48565C"/>
</svg>
