<svg width="13" height="13" viewBox="0 0 13 13" fill="none" xmlns="http://www.w3.org/2000/svg">
<path fill-rule="evenodd" clip-rule="evenodd" d="M13 4.03733L12.9913 0.472155C12.9911 0.358873 12.9502 0.249436 12.8761 0.163744C12.802 0.0780512 12.6996 0.0217937 12.5876 0.00519977L12.518 0L8.94968 0.00467331C8.83007 0.00454128 8.71485 0.0497263 8.62722 0.131132C8.53958 0.212538 8.48604 0.324121 8.47737 0.443417C8.4687 0.562714 8.50554 0.680866 8.58048 0.774089C8.65542 0.867312 8.7629 0.928683 8.88127 0.945849L8.9513 0.950602L11.3748 0.947984L7.06176 5.27988C6.98111 5.36089 6.93252 5.46836 6.92498 5.58242C6.91745 5.69648 6.95146 5.80942 7.02075 5.90034L7.06322 5.94885C7.14423 6.0295 7.2517 6.07809 7.36576 6.08563C7.47982 6.09317 7.59275 6.05915 7.68367 5.98987L7.73219 5.94739L12.0483 1.61237L12.0536 4.0394C12.0539 4.15281 12.0949 4.26236 12.1692 4.34807C12.2434 4.43378 12.346 4.48995 12.4583 4.50635L12.5278 4.51155C12.6413 4.51129 12.7508 4.47028 12.8365 4.39601C12.9222 4.32173 12.9784 4.21914 12.9948 4.10692L13 4.03733ZM0.998278 2.18191C0.998278 1.53869 1.51971 1.01725 2.16294 1.01725H6.48881V0.018973H2.16294C0.968379 0.018973 0 0.987353 0 2.18191V10.8337C0 12.0282 0.96838 12.9966 2.16294 12.9966H10.8147C12.0092 12.9966 12.9776 12.0282 12.9776 10.8337V6.50778H11.9793V10.8337C11.9793 11.4769 11.4579 11.9983 10.8147 11.9983H2.16294C1.51971 11.9983 0.998278 11.4769 0.998278 10.8337V2.18191Z" fill="#03A9F4"/>
</svg>
