<svg width="12" height="23" viewBox="0 0 12 23" fill="none" xmlns="http://www.w3.org/2000/svg">
<path d="M9.59188 22.9999C9.34641 23.0007 9.10386 22.9466 8.88207 22.8414C8.66028 22.7362 8.46488 22.5827 8.31023 22.3921L0.373798 12.5359C0.13212 12.2419 0 11.8732 0 11.4928C0 11.1123 0.13212 10.7436 0.373798 10.4496L8.58956 0.59343C8.86847 0.257963 9.26925 0.0469997 9.70374 0.00695109C10.1382 -0.0330975 10.5708 0.101049 10.9064 0.379879C11.242 0.658708 11.453 1.05938 11.493 1.49376C11.5331 1.92813 11.3989 2.36062 11.12 2.69609L3.77512 11.501L10.8735 20.3059C11.0745 20.547 11.2021 20.8406 11.2413 21.152C11.2806 21.4633 11.2298 21.7794 11.095 22.0628C10.9601 22.3463 10.7469 22.5851 10.4805 22.7512C10.2142 22.9172 9.90578 23.0036 9.59188 22.9999Z" fill="white"/>
</svg>
