<svg width="19" height="20" viewBox="0 0 19 20" fill="none" xmlns="http://www.w3.org/2000/svg">
<path d="M17.0003 8.999H19.0003C19.0003 3.869 15.1273 0 9.9903 0V2C14.0523 2 17.0003 4.943 17.0003 8.999Z" fill="black"/>
<path d="M10.0003 6.00219C12.1033 6.00219 13.0003 6.89919 13.0003 9.00219H15.0003C15.0003 5.77719 13.2253 4.00219 10.0003 4.00219V6.00219ZM13.4223 11.4452C13.2301 11.2705 12.9776 11.1774 12.7181 11.1854C12.4585 11.1934 12.2123 11.302 12.0313 11.4882L9.63828 13.9492C9.06228 13.8392 7.90428 13.4782 6.71228 12.2892C5.52028 11.0962 5.15928 9.93519 5.05228 9.36319L7.51128 6.96919C7.69769 6.78832 7.80642 6.54201 7.81444 6.2824C7.82247 6.02278 7.72917 5.77023 7.55428 5.57819L3.85928 1.51519C3.68432 1.32255 3.44116 1.2057 3.18143 1.18945C2.92171 1.17321 2.66588 1.25885 2.46828 1.42819L0.298282 3.28919C0.125393 3.46271 0.0222015 3.69364 0.00828196 3.93819C-0.00671804 4.18819 -0.292718 10.1102 4.29928 14.7042C8.30528 18.7092 13.3233 19.0022 14.7053 19.0022C14.9073 19.0022 15.0313 18.9962 15.0643 18.9942C15.3088 18.9805 15.5396 18.8769 15.7123 18.7032L17.5723 16.5322C17.7417 16.3347 17.8276 16.079 17.8115 15.8192C17.7954 15.5595 17.6788 15.3163 17.4863 15.1412L13.4223 11.4452Z" fill="black"/>
</svg>
