<svg width="28" height="25" viewBox="0 0 28 25" fill="none" xmlns="http://www.w3.org/2000/svg">
<path d="M26.0722 8.54861L24.1722 2.84861C23.8966 2.01873 23.3664 1.29681 22.6571 0.785428C21.9478 0.27405 21.0953 -0.000775286 20.2208 1.64274e-06H7.55694C6.68248 -0.000775286 5.83002 0.27405 5.12067 0.785428C4.41133 1.29681 3.88118 2.01873 3.60556 2.84861L1.70556 8.54861C1.20031 8.76002 0.768834 9.11607 0.465371 9.57201C0.161907 10.0279 -6.67917e-07 10.5634 0 11.1111V18.0556C0 19.0806 0.561111 19.9667 1.38889 20.4486V23.6111C1.38889 23.9795 1.53522 24.3327 1.79568 24.5932C2.05615 24.8537 2.40942 25 2.77778 25H4.16667C4.53502 25 4.88829 24.8537 5.14876 24.5932C5.40923 24.3327 5.55555 23.9795 5.55555 23.6111V20.8333H22.2222V23.6111C22.2222 23.9795 22.3685 24.3327 22.629 24.5932C22.8895 24.8537 23.2428 25 23.6111 25H25C25.3684 25 25.7216 24.8537 25.9821 24.5932C26.2426 24.3327 26.3889 23.9795 26.3889 23.6111V20.4486C26.8103 20.207 27.1605 19.8585 27.4043 19.4384C27.6482 19.0183 27.777 18.5413 27.7778 18.0556V11.1111C27.7778 10.5634 27.6159 10.0279 27.3124 9.57201C27.0089 9.11607 26.5775 8.76002 26.0722 8.54861ZM7.55694 2.77778H20.2194C20.8181 2.77778 21.3486 3.15833 21.5375 3.72778L23.0736 8.33333H4.70417L6.23889 3.72778C6.33104 3.4511 6.50794 3.21045 6.74451 3.03994C6.98108 2.86943 7.26533 2.77771 7.55694 2.77778ZM4.86111 16.6667C4.58743 16.6666 4.31645 16.6126 4.06364 16.5078C3.81083 16.4029 3.58114 16.2494 3.38768 16.0558C3.19423 15.8622 3.0408 15.6324 2.93615 15.3795C2.8315 15.1266 2.77769 14.8556 2.77778 14.5819C2.77787 14.3083 2.83186 14.0373 2.93668 13.7845C3.0415 13.5317 3.19508 13.302 3.38867 13.1085C3.58225 12.9151 3.81204 12.7616 4.06492 12.657C4.3178 12.5523 4.58882 12.4985 4.8625 12.4986C5.41522 12.4988 5.94523 12.7185 6.33593 13.1095C6.72663 13.5005 6.94602 14.0306 6.94583 14.5833C6.94565 15.1361 6.7259 15.6661 6.33494 16.0568C5.94398 16.4475 5.41383 16.6668 4.86111 16.6667ZM22.9167 16.6667C22.643 16.6666 22.372 16.6126 22.1192 16.5078C21.8664 16.4029 21.6367 16.2494 21.4432 16.0558C21.2498 15.8622 21.0963 15.6324 20.9917 15.3795C20.8871 15.1266 20.8332 14.8556 20.8333 14.5819C20.8334 14.3083 20.8874 14.0373 20.9922 13.7845C21.097 13.5317 21.2506 13.302 21.4442 13.1085C21.6378 12.9151 21.8676 12.7616 22.1205 12.657C22.3734 12.5523 22.6444 12.4985 22.9181 12.4986C23.4708 12.4988 24.0008 12.7185 24.3915 13.1095C24.7822 13.5005 25.0016 14.0306 25.0014 14.5833C25.0012 15.1361 24.7815 15.6661 24.3905 16.0568C23.9995 16.4475 23.4694 16.6668 22.9167 16.6667Z" fill="black"/>
</svg>
