<svg width="16" height="17" viewBox="0 0 16 17" fill="none" xmlns="http://www.w3.org/2000/svg">
<path d="M14 1.85547C14.2652 1.85547 14.5196 1.96083 14.7071 2.14836C14.8946 2.3359 15 2.59025 15 2.85547V10.8555C15 11.1207 14.8946 11.375 14.7071 11.5626C14.5196 11.7501 14.2652 11.8555 14 11.8555H4.414C3.88361 11.8556 3.37499 12.0664 3 12.4415L1 14.4415V2.85547C1 2.59025 1.10536 2.3359 1.29289 2.14836C1.48043 1.96083 1.73478 1.85547 2 1.85547H14ZM2 0.855469C1.46957 0.855469 0.960859 1.06618 0.585786 1.44126C0.210714 1.81633 0 2.32504 0 2.85547L0 15.6485C2.10149e-05 15.7474 0.0293926 15.8441 0.0843973 15.9263C0.139402 16.0086 0.217567 16.0726 0.308999 16.1104C0.400432 16.1482 0.501021 16.1581 0.598036 16.1387C0.695051 16.1193 0.784131 16.0715 0.854 16.0015L3.707 13.1485C3.89449 12.9609 4.14881 12.8555 4.414 12.8555H14C14.5304 12.8555 15.0391 12.6448 15.4142 12.2697C15.7893 11.8946 16 11.3859 16 10.8555V2.85547C16 2.32504 15.7893 1.81633 15.4142 1.44126C15.0391 1.06618 14.5304 0.855469 14 0.855469H2Z" fill="black"/>
<path d="M3 4.35547C3 4.22286 3.05268 4.09568 3.14645 4.00192C3.24021 3.90815 3.36739 3.85547 3.5 3.85547H12.5C12.6326 3.85547 12.7598 3.90815 12.8536 4.00192C12.9473 4.09568 13 4.22286 13 4.35547C13 4.48808 12.9473 4.61525 12.8536 4.70902C12.7598 4.80279 12.6326 4.85547 12.5 4.85547H3.5C3.36739 4.85547 3.24021 4.80279 3.14645 4.70902C3.05268 4.61525 3 4.48808 3 4.35547ZM3 6.85547C3 6.72286 3.05268 6.59568 3.14645 6.50192C3.24021 6.40815 3.36739 6.35547 3.5 6.35547H12.5C12.6326 6.35547 12.7598 6.40815 12.8536 6.50192C12.9473 6.59568 13 6.72286 13 6.85547C13 6.98808 12.9473 7.11525 12.8536 7.20902C12.7598 7.30279 12.6326 7.35547 12.5 7.35547H3.5C3.36739 7.35547 3.24021 7.30279 3.14645 7.20902C3.05268 7.11525 3 6.98808 3 6.85547ZM3 9.35547C3 9.22286 3.05268 9.09568 3.14645 9.00191C3.24021 8.90815 3.36739 8.85547 3.5 8.85547H8.5C8.63261 8.85547 8.75979 8.90815 8.85355 9.00191C8.94732 9.09568 9 9.22286 9 9.35547C9 9.48808 8.94732 9.61525 8.85355 9.70902C8.75979 9.80279 8.63261 9.85547 8.5 9.85547H3.5C3.36739 9.85547 3.24021 9.80279 3.14645 9.70902C3.05268 9.61525 3 9.48808 3 9.35547Z" fill="black"/>
</svg>
