<svg width="51" height="51" viewBox="0 0 51 51" fill="none" xmlns="http://www.w3.org/2000/svg">
<path d="M20.4496 5.5105e-07C16.9031 -0.000822978 13.418 0.921422 10.3402 2.67521C7.26243 4.429 4.69895 6.95336 2.90417 9.99777C1.1094 13.0422 0.145734 16.5008 0.108816 20.0304C0.0718985 23.5599 0.963011 27.0378 2.69372 30.1187L0.206323 36.6021C-0.000712908 37.141 -0.0532302 37.7266 0.0546301 38.2935C0.16249 38.8604 0.426486 39.3864 0.817166 39.8127C1.20785 40.239 1.70984 40.5488 2.26716 40.7077C2.82447 40.8666 3.41519 40.8683 3.9734 40.7126L11.7547 38.5421C14.5112 39.8383 17.5251 40.5012 20.5737 40.4817C23.6223 40.4622 26.6274 39.7608 29.3669 38.4294C32.1063 37.0979 34.51 35.1706 36.4001 32.7898C38.2901 30.4091 39.6182 27.6359 40.2861 24.6754C40.9539 21.7148 40.9445 18.6428 40.2585 15.6864C39.5725 12.73 38.2275 9.96487 36.3228 7.59565C34.4182 5.22643 32.0028 3.31369 29.2553 1.99892C26.5077 0.684159 23.4983 0.00100663 20.4496 5.5105e-07ZM20.4277 12.1477C19.3076 12.3657 18.0812 13.0882 17.1175 14.7822C17.016 14.9601 16.8803 15.1163 16.7181 15.242C16.556 15.3677 16.3705 15.4604 16.1724 15.5148C15.9742 15.5691 15.7673 15.5841 15.5633 15.5589C15.3593 15.5336 15.1624 15.4686 14.9836 15.3676C14.8049 15.2666 14.6479 15.1316 14.5216 14.9702C14.3953 14.8088 14.3022 14.6242 14.2476 14.427C14.193 14.2298 14.1779 14.0238 14.2033 13.8208C14.2286 13.6178 14.2939 13.4218 14.3954 13.2439C15.7752 10.8274 17.737 9.49773 19.827 9.09291C21.7717 8.72737 23.783 9.13063 25.4338 10.2171C26.9482 11.2135 28.1715 12.8422 28.2091 14.7947C28.2497 16.8343 27.0045 18.6747 24.7079 20.0262C23.1498 20.9417 22.5428 21.5645 22.2831 21.9787C22.0641 22.3274 22.014 22.6451 22.014 23.3551C22.014 23.768 21.8492 24.164 21.5558 24.456C21.2625 24.748 20.8646 24.9121 20.4496 24.9121C20.0347 24.9121 19.6368 24.748 19.3435 24.456C19.0501 24.164 18.8853 23.768 18.8853 23.3551C18.8853 22.5081 18.9291 21.4555 19.6268 20.3345C20.2838 19.2851 21.4071 18.3509 23.1154 17.345C24.7893 16.3579 25.0928 15.4206 25.0834 14.8601C25.0678 14.2155 24.6391 13.4276 23.7067 12.8141C22.7414 12.1785 21.5662 11.9397 20.4277 12.1477ZM21.2318 32.6971C20.6095 32.6971 20.0126 32.451 19.5726 32.013C19.1325 31.575 18.8853 30.981 18.8853 30.3616C18.8853 29.7422 19.1325 29.1481 19.5726 28.7101C20.0126 28.2721 20.6095 28.0261 21.2318 28.0261C21.8542 28.0261 22.4511 28.2721 22.8911 28.7101C23.3312 29.1481 23.5784 29.7422 23.5784 30.3616C23.5784 30.981 23.3312 31.575 22.8911 32.013C22.4511 32.451 21.8542 32.6971 21.2318 32.6971Z" fill="#48565C" fill-opacity="0.5"/>
<path d="M14.3027 42.7803C16.21 44.9908 18.5753 46.7643 21.2363 47.9791C23.8972 49.1939 26.7908 49.8212 29.7183 49.818C32.8252 49.818 35.7757 49.1235 38.4164 47.8779L46.1977 50.0484C46.7557 50.2034 47.346 50.2012 47.9028 50.0419C48.4596 49.8827 48.9611 49.5728 49.3513 49.1466C49.7416 48.7204 50.0052 48.1948 50.113 47.6283C50.2208 47.0617 50.1684 46.4765 49.9617 45.9379L47.4711 39.4545C49.1169 36.5305 50.0555 33.1611 50.0555 29.5769C50.0555 23.5357 47.396 18.1111 43.1753 14.4023C43.6321 16.1586 43.8855 17.999 43.9106 19.8892C45.8129 22.6451 46.9267 25.9833 46.9267 29.5769C46.9267 32.8466 46.0069 35.9015 44.4081 38.5017L44.0076 39.1556L47.0425 47.0496L38.0941 44.5584L37.5466 44.8324C35.2 46.0282 32.5405 46.704 29.7183 46.704C26.1701 46.7094 22.7077 45.618 19.8094 43.5806C17.9485 43.5322 16.0999 43.2635 14.3027 42.7803Z" fill="#48565C" fill-opacity="0.5"/>
</svg>
