<svg width="59" height="59" viewBox="0 0 59 59" fill="none" xmlns="http://www.w3.org/2000/svg">
<path d="M29.5 4.21429C43.4071 4.21429 54.7857 15.5929 54.7857 29.5C54.7857 43.4071 43.4071 54.7857 29.5 54.7857C15.5929 54.7857 4.21429 43.4071 4.21429 29.5C4.21429 15.5929 15.5929 4.21429 29.5 4.21429ZM29.5 0C13.275 0 0 13.275 0 29.5C0 45.725 13.275 59 29.5 59C45.725 59 59 45.725 59 29.5C59 13.275 45.725 0 29.5 0Z" fill="#F5490F"/>
<path d="M46.3569 27.3945H31.6069V12.6445H27.3926V27.3945H12.6426V31.6088H27.3926V46.3588H31.6069V31.6088H46.3569V27.3945Z" fill="#F5490F"/>
</svg>
