<svg width="16" height="15" viewBox="0 0 16 15" fill="none" xmlns="http://www.w3.org/2000/svg">
<path d="M7.59064 0C3.45064 0 0.0981445 3.36 0.0981445 7.5C0.0981445 11.64 3.45064 15 7.59064 15C11.7381 15 15.0981 11.64 15.0981 7.5C15.0981 3.36 11.7381 0 7.59064 0ZM7.59814 13.5C4.28314 13.5 1.59814 10.815 1.59814 7.5C1.59814 4.185 4.28314 1.5 7.59814 1.5C10.9131 1.5 13.5981 4.185 13.5981 7.5C13.5981 10.815 10.9131 13.5 7.59814 13.5ZM7.43314 3.75H7.38814C7.08814 3.75 6.84814 3.99 6.84814 4.29V7.83C6.84814 8.0925 6.98314 8.34 7.21564 8.475L10.3281 10.3425C10.5831 10.4925 10.9131 10.4175 11.0631 10.1625C11.1008 10.1018 11.1259 10.0341 11.1368 9.96347C11.1478 9.89286 11.1444 9.82076 11.1269 9.75148C11.1094 9.68219 11.0781 9.61714 11.035 9.56019C10.9918 9.50324 10.9376 9.45557 10.8756 9.42L7.97314 7.695V4.29C7.97314 3.99 7.73314 3.75 7.43314 3.75Z" fill="#03A9F4"/>
</svg>
