<svg width="13" height="20" viewBox="0 0 13 20" fill="none" xmlns="http://www.w3.org/2000/svg">
<path d="M11.5 13.5C11.5 14.5408 11.0146 15.2966 10.248 15.8626C9.45791 16.4458 8.39246 16.7998 7.38969 16.9358L7.67687 16.8842C8.4171 16.7512 9.31321 16.4812 10.052 15.9905C10.8051 15.4903 11.5 14.6776 11.5 13.5ZM11.5 13.5C11.5 12.4592 11.0147 11.7037 10.2481 11.138C9.46427 10.5596 8.4093 10.2068 7.41329 10.0684L7.67687 10.1158C8.4171 10.2488 9.31321 10.5188 10.052 11.0095C10.8051 11.5097 11.5 12.3224 11.5 13.5ZM1.5 6.5C1.5 5.45923 1.9853 4.70374 2.75191 4.138C3.53572 3.55956 4.59069 3.20681 5.58669 3.0684L5.32313 3.11577C4.5829 3.24878 3.68679 3.51875 2.94795 4.00952C2.19487 4.50974 1.5 5.32239 1.5 6.5ZM1.5 6.5C1.5 7.43768 1.92842 8.17192 2.64138 8.74548C2.01977 8.23943 1.5 7.49907 1.5 6.5ZM2.66073 15.7905C2.20769 15.4264 1.87116 14.9973 1.68024 14.5H1.68849C1.93361 15.1179 2.38943 15.5967 2.88516 15.9422C3.61084 16.4481 4.51279 16.7438 5.3292 16.8853L5.76951 16.9616L5.62218 16.9435C4.47596 16.8024 3.41325 16.3951 2.66073 15.7905ZM7.67687 3.11577L7.4133 3.0684C8.40931 3.20681 9.46428 3.55956 10.2481 4.138C10.744 4.50397 11.1222 4.94935 11.3275 5.5H11.3153C11.0594 4.84434 10.5694 4.35319 10.052 4.00952C9.31321 3.51875 8.4171 3.24878 7.67687 3.11577ZM5.59946 9.93424C4.83564 9.8266 4.05547 9.58962 3.38527 9.23212C4.01142 9.56292 4.70486 9.76915 5.31853 9.8824L5.59946 9.93424Z" stroke="#B4C5CC" stroke-width="2"/>
</svg>
