<svg width="27" height="20" viewBox="0 0 27 20" fill="none" xmlns="http://www.w3.org/2000/svg">
<path d="M25.5171 0H1.88077C1.37793 0 0.97168 0.40625 0.97168 0.909091V19.0909C0.97168 19.5938 1.37793 20 1.88077 20H25.5171C26.02 20 26.4262 19.5938 26.4262 19.0909V0.909091C26.4262 0.40625 26.02 0 25.5171 0ZM23.2217 3.09375L14.2586 10.0682C14.037 10.2415 13.7274 10.2415 13.5058 10.0682L4.53986 3.09375C4.50606 3.06767 4.48127 3.03166 4.46897 2.99078C4.45666 2.9499 4.45745 2.90619 4.47124 2.86579C4.48502 2.82538 4.5111 2.7903 4.54582 2.76546C4.58054 2.74062 4.62217 2.72727 4.66486 2.72727H23.0967C23.1394 2.72727 23.181 2.74062 23.2157 2.76546C23.2504 2.7903 23.2765 2.82538 23.2903 2.86579C23.3041 2.90619 23.3049 2.9499 23.2926 2.99078C23.2803 3.03166 23.2555 3.06767 23.2217 3.09375Z" fill="#48565C"/>
</svg>
