<svg width="80" height="46" viewBox="0 0 80 46" fill="none" xmlns="http://www.w3.org/2000/svg">
<path d="M0 26C0 37.0457 8.95431 46 20 46H70C75.5229 46 80 41.5228 80 36V10C80 4.47715 75.5229 0 70 0H20C8.95431 0 0 8.95431 0 20V26Z" fill="#1877F2"/>
<rect x="22.5" y="11" width="25" height="25" rx="5" fill="#1877F2"/>
<path d="M39.8633 27.1133L40.4199 23.5H36.9531V21.1562C36.9531 20.1699 37.4365 19.2031 38.9893 19.2031H40.5664V16.127C40.5664 16.127 39.1357 15.8828 37.7686 15.8828C34.9121 15.8828 33.0469 17.6113 33.0469 20.7461V23.5H29.873V27.1133H33.0469V36H36.9531V27.1133H39.8633Z" fill="white"/>
</svg>
