<svg width="20" height="20" viewBox="0 0 20 20" fill="none" xmlns="http://www.w3.org/2000/svg">
<mask id="path-1-inside-1" fill="white">
<path d="M8.66342 0.512406C9.03061 0.182501 9.5068 0 10.0004 0C10.494 0 10.9702 0.182501 11.3374 0.512406L18.6726 7.10341C18.8812 7.29095 19.048 7.52026 19.1621 7.77645C19.2763 8.03263 19.3354 8.30997 19.3354 8.59045V17.9995C19.3354 18.5301 19.1247 19.0389 18.7495 19.4141C18.3743 19.7892 17.8655 20 17.3349 20H14.0008C13.4702 20 12.9614 19.7892 12.5862 19.4141C12.211 19.0389 12.0003 18.5301 12.0003 17.9995V13.3316C12.0003 13.1548 11.93 12.9852 11.805 12.8601C11.6799 12.7351 11.5103 12.6648 11.3334 12.6648H8.66609C8.48923 12.6648 8.31962 12.7351 8.19456 12.8601C8.06951 12.9852 7.99925 13.1548 7.99925 13.3316V17.9995C7.99925 18.5301 7.78848 19.0389 7.41332 19.4141C7.03815 19.7892 6.52931 20 5.99874 20H2.66457C2.134 20 1.62516 19.7892 1.25 19.4141C0.87483 19.0389 0.664062 18.5301 0.664062 17.9995V8.59045C0.664062 8.02364 0.904123 7.4835 1.32823 7.10341L8.66342 0.512406ZM10.4452 1.50466C10.3228 1.39481 10.1642 1.33405 9.99976 1.33405C9.83532 1.33405 9.67668 1.39481 9.55431 1.50466L2.21912 8.09566C2.14963 8.15803 2.09402 8.23431 2.05588 8.31954C2.01775 8.40478 1.99794 8.49707 1.99773 8.59045V17.9995C1.99773 18.1763 2.06799 18.346 2.19304 18.471C2.3181 18.5961 2.48771 18.6663 2.66457 18.6663H5.99874C6.1756 18.6663 6.34521 18.5961 6.47027 18.471C6.59532 18.346 6.66558 18.1763 6.66558 17.9995V13.3316C6.66558 12.8011 6.87635 12.2922 7.25151 11.9171C7.62668 11.5419 8.13552 11.3311 8.66609 11.3311H11.3334C11.864 11.3311 12.3728 11.5419 12.748 11.9171C13.1232 12.2922 13.3339 12.8011 13.3339 13.3316V17.9995C13.3339 18.1763 13.4042 18.346 13.5292 18.471C13.6543 18.5961 13.8239 18.6663 14.0008 18.6663H17.3349C17.5118 18.6663 17.6814 18.5961 17.8065 18.471C17.9315 18.346 18.0018 18.1763 18.0018 17.9995V8.59045C18.0016 8.49707 17.9818 8.40478 17.9436 8.31954C17.9055 8.23431 17.8499 8.15803 17.7804 8.09566L10.4452 1.50466Z"/>
</mask>
<path d="M10.0004 0V2V0ZM11.3374 0.512406L12.6742 -0.975258L12.6741 -0.975318L11.3374 0.512406ZM18.6726 7.10341L20.0099 5.61628L20.0093 5.61574L18.6726 7.10341ZM19.3354 8.59045H21.3354V8.58999L19.3354 8.59045ZM19.3354 17.9995H21.3354H19.3354ZM14.0008 20V22V20ZM12.0003 17.9995H10.0003H12.0003ZM7.99925 17.9995H9.99925H7.99925ZM2.66457 20V22V20ZM1.32823 7.10341L2.66305 8.59279L2.66496 8.59107L1.32823 7.10341ZM10.4452 1.50466L11.7819 0.0169928L11.7812 0.0163341L10.4452 1.50466ZM9.55431 1.50466L8.21831 0.0163339L8.21758 0.0169929L9.55431 1.50466ZM2.21912 8.09566L3.55512 9.58398L3.55586 9.58332L2.21912 8.09566ZM1.99773 8.59045L-0.002267 8.58612V8.59045H1.99773ZM1.99773 17.9995H3.99773H1.99773ZM8.66609 11.3311V9.33114V11.3311ZM11.3334 11.3311V9.33114V11.3311ZM13.3339 13.3316H15.3339H13.3339ZM18.0018 8.59045H20.0018L20.0018 8.58612L18.0018 8.59045ZM17.7804 8.09566L16.4437 9.58332L16.4444 9.58398L17.7804 8.09566ZM10.0001 2.00013L10.0004 2V-2C9.0133 -2 8.06103 -1.63504 7.32675 -0.975318L10.0001 2.00013ZM10.0004 2L10.0008 2.00013L12.6741 -0.975318C11.9398 -1.63504 10.9875 -2 10.0004 -2V2ZM10.0007 2.00007L17.3359 8.59107L20.0093 5.61574L12.6742 -0.975258L10.0007 2.00007ZM17.3353 8.59053L17.3354 8.5907L20.9889 6.96219C20.7605 6.44989 20.427 5.99133 20.0099 5.61628L17.3353 8.59053ZM17.3354 8.5907L17.3354 8.59091L21.3354 8.58999C21.3353 8.0291 21.2172 7.4745 20.9889 6.96219L17.3354 8.5907ZM17.3354 8.59045V17.9995H21.3354V8.59045H17.3354ZM17.3354 17.9995L17.3353 17.9998L20.1637 20.8283C20.914 20.078 21.3354 19.0605 21.3354 17.9995H17.3354ZM17.3353 17.9998L17.3349 18V22C18.3959 22 19.4135 21.5785 20.1637 20.8283L17.3353 17.9998ZM17.3349 18H14.0008V22H17.3349V18ZM14.0008 18L14.0004 17.9998L11.172 20.8283C11.9222 21.5785 12.9398 22 14.0008 22V18ZM14.0004 17.9998L14.0003 17.9995H10.0003C10.0003 19.0605 10.4217 20.078 11.172 20.8283L14.0004 17.9998ZM14.0003 17.9995V13.3316H10.0003V17.9995H14.0003ZM14.0003 13.3316C14.0003 12.6244 13.7193 11.946 13.2192 11.4459L10.3907 14.2743C10.1407 14.0243 10.0003 13.6852 10.0003 13.3316H14.0003ZM13.2192 11.4459C12.719 10.9458 12.0407 10.6648 11.3334 10.6648V14.6648C10.9799 14.6648 10.6408 14.5244 10.3907 14.2743L13.2192 11.4459ZM11.3334 10.6648H8.66609V14.6648H11.3334V10.6648ZM8.66609 10.6648C7.9588 10.6648 7.28048 10.9458 6.78035 11.4459L9.60878 14.2743C9.35875 14.5244 9.01966 14.6648 8.66609 14.6648V10.6648ZM6.78035 11.4459C6.28022 11.946 5.99925 12.6244 5.99925 13.3316H9.99925C9.99925 13.6852 9.8588 14.0243 9.60878 14.2743L6.78035 11.4459ZM5.99925 13.3316V17.9995H9.99925V13.3316H5.99925ZM5.99925 17.9995L5.9991 17.9998L8.82753 20.8283C9.57777 20.078 9.99925 19.0605 9.99925 17.9995H5.99925ZM5.9991 17.9998L5.99874 18V22C7.05975 22 8.07729 21.5785 8.82753 20.8283L5.9991 17.9998ZM5.99874 18H2.66457V22H5.99874V18ZM2.66457 18L2.66421 17.9998L-0.164216 20.8283C0.586022 21.5785 1.60357 22 2.66457 22V18ZM2.66421 17.9998L2.66406 17.9995H-1.33594C-1.33594 19.0605 -0.914456 20.078 -0.164216 20.8283L2.66421 17.9998ZM2.66406 17.9995V8.59045H-1.33594V17.9995H2.66406ZM2.66406 8.59045C2.66406 8.58998 2.66407 8.59066 2.66364 8.59164C2.66316 8.59271 2.66256 8.59323 2.66305 8.59278L-0.00659114 5.61403C-0.85502 6.37441 -1.33594 7.45658 -1.33594 8.59045H2.66406ZM2.66496 8.59107L10.0002 2.00007L7.32668 -0.975258L-0.0085032 5.61574L2.66496 8.59107ZM11.7812 0.0163341C11.2918 -0.422959 10.6574 -0.665946 9.99976 -0.665946V3.33405C9.671 3.33405 9.35384 3.21258 9.1092 2.99298L11.7812 0.0163341ZM9.99976 -0.665946C9.34213 -0.665946 8.70769 -0.422959 8.21831 0.0163341L10.8903 2.99298C10.6457 3.21258 10.3285 3.33405 9.99976 3.33405V-0.665946ZM8.21758 0.0169929L0.882389 6.60799L3.55586 9.58332L10.891 2.99232L8.21758 0.0169929ZM0.883127 6.60733C0.605224 6.85679 0.382815 7.16183 0.230295 7.5027L3.88147 9.13638C3.80523 9.30678 3.69404 9.45928 3.55512 9.58398L0.883127 6.60733ZM0.230295 7.5027C0.0777776 7.84357 -0.00145441 8.21268 -0.00226229 8.58612L3.99773 8.59477C3.99732 8.78146 3.95772 8.96598 3.88147 9.13638L0.230295 7.5027ZM-0.002267 8.59045V17.9995H3.99773V8.59045H-0.002267ZM-0.002267 17.9995C-0.002267 18.7068 0.278702 19.3851 0.778831 19.8852L3.60726 17.0568C3.85728 17.3068 3.99773 17.6459 3.99773 17.9995H-0.002267ZM0.778831 19.8852C1.27896 20.3854 1.95728 20.6663 2.66457 20.6663V16.6663C3.01814 16.6663 3.35724 16.8068 3.60726 17.0568L0.778831 19.8852ZM2.66457 20.6663H5.99874V16.6663H2.66457V20.6663ZM5.99874 20.6663C6.70603 20.6663 7.38435 20.3854 7.88448 19.8852L5.05605 17.0568C5.30607 16.8068 5.64517 16.6663 5.99874 16.6663V20.6663ZM7.88448 19.8852C8.38461 19.3851 8.66558 18.7068 8.66558 17.9995H4.66558C4.66558 17.6459 4.80604 17.3068 5.05605 17.0568L7.88448 19.8852ZM8.66558 17.9995V13.3316H4.66558V17.9995H8.66558ZM8.66558 13.3316L8.66573 13.3313L5.8373 10.5029C5.08706 11.2531 4.66558 12.2706 4.66558 13.3316H8.66558ZM8.66573 13.3313L8.66609 13.3311V9.33114C7.60509 9.33114 6.58754 9.75262 5.8373 10.5029L8.66573 13.3313ZM8.66609 13.3311H11.3334V9.33114H8.66609V13.3311ZM11.3334 13.3311L11.3338 13.3313L14.1622 10.5029C13.412 9.75262 12.3944 9.33114 11.3334 9.33114V13.3311ZM11.3338 13.3313L11.3339 13.3316H15.3339C15.3339 12.2706 14.9125 11.2531 14.1622 10.5029L11.3338 13.3313ZM11.3339 13.3316V17.9995H15.3339V13.3316H11.3339ZM11.3339 17.9995C11.3339 18.7068 11.6149 19.3851 12.115 19.8852L14.9435 17.0568C15.1935 17.3068 15.3339 17.6459 15.3339 17.9995H11.3339ZM12.115 19.8852C12.6152 20.3854 13.2935 20.6663 14.0008 20.6663V16.6663C14.3543 16.6663 14.6934 16.8068 14.9435 17.0568L12.115 19.8852ZM14.0008 20.6663H17.3349V16.6663H14.0008V20.6663ZM17.3349 20.6663C18.0422 20.6663 18.7205 20.3854 19.2207 19.8852L16.3923 17.0568C16.6423 16.8068 16.9814 16.6663 17.3349 16.6663V20.6663ZM19.2207 19.8852C19.7208 19.3851 20.0018 18.7068 20.0018 17.9995H16.0018C16.0018 17.6459 16.1422 17.3068 16.3923 17.0568L19.2207 19.8852ZM20.0018 17.9995V8.59045H16.0018V17.9995H20.0018ZM20.0018 8.58612C20.001 8.21268 19.9217 7.84357 19.7692 7.5027L16.118 9.13638C16.0418 8.96598 16.0022 8.78146 16.0018 8.59477L20.0018 8.58612ZM19.7692 7.5027C19.6167 7.16182 19.3943 6.85678 19.1164 6.60733L16.4444 9.58398C16.3055 9.45928 16.1943 9.30679 16.118 9.13638L19.7692 7.5027ZM19.1171 6.60799L11.7819 0.0169929L9.10847 2.99232L16.4437 9.58332L19.1171 6.60799Z" fill="#03A9F4" mask="url(#path-1-inside-1)"/>
</svg>
