<svg width="20" height="20" viewBox="0 0 20 20" fill="none" xmlns="http://www.w3.org/2000/svg">
<path d="M10.0029 6.66525C11.8391 6.66525 13.3376 8.16376 13.3376 10C13.3376 11.8362 11.8391 13.3348 10.0029 13.3348C8.16663 13.3348 6.66811 11.8362 6.66811 10C6.66811 8.16376 8.16663 6.66525 10.0029 6.66525ZM0.00111008 10C0.00111008 8.61907 -0.0113983 7.25064 0.0661545 5.87221C0.143705 4.27113 0.508953 2.85017 1.67974 1.67938C2.85304 0.506085 4.2715 0.14334 5.87258 0.065788C7.25351 -0.0117644 8.62194 0.000744113 10.0004 0.000744113C11.3813 0.000744113 12.7497 -0.0117644 14.1282 0.065788C15.7292 0.14334 17.1502 0.508587 18.321 1.67938C19.4943 2.85267 19.857 4.27113 19.9346 5.87221C20.0121 7.25314 19.9996 8.62157 19.9996 10C19.9996 11.3784 20.0121 12.7494 19.9346 14.1278C19.857 15.7289 19.4918 17.1498 18.321 18.3206C17.1477 19.4939 15.7292 19.8567 14.1282 19.9342C12.7472 20.0118 11.3788 19.9993 10.0004 19.9993C8.61943 19.9993 7.25101 20.0118 5.87258 19.9342C4.2715 19.8567 2.85053 19.4914 1.67974 18.3206C0.506451 17.1473 0.143705 15.7289 0.0661545 14.1278C-0.0139008 12.7494 0.00111008 11.3809 0.00111008 10ZM10.0029 15.131C12.8423 15.131 15.1338 12.8394 15.1338 10C15.1338 7.16058 12.8423 4.86903 10.0029 4.86903C7.16345 4.86903 4.8719 7.16058 4.8719 10C4.8719 12.8394 7.16345 15.131 10.0029 15.131ZM4.66176 5.8572C5.32471 5.8572 5.86007 5.32184 5.86007 4.65889C5.86007 3.99594 5.32471 3.46058 4.66176 3.46058C3.99881 3.46058 3.46345 3.99594 3.46345 4.65889C3.46325 4.81631 3.49411 4.97222 3.55426 5.1177C3.61441 5.26317 3.70267 5.39535 3.81399 5.50666C3.9253 5.61798 4.05748 5.70624 4.20295 5.76639C4.34843 5.82654 4.50434 5.8574 4.66176 5.8572Z" fill="#101010"/>
</svg>
