<svg width="21" height="20" viewBox="0 0 21 20" fill="none" xmlns="http://www.w3.org/2000/svg">
<path fill-rule="evenodd" clip-rule="evenodd" d="M0.454926 1.67091C0.454926 1.22776 0.630967 0.802756 0.944324 0.4894C1.25768 0.176044 1.68268 2.22756e-06 2.12583 2.22756e-06H18.7822C19.0018 -0.000356456 19.2193 0.0426049 19.4223 0.126426C19.6253 0.210248 19.8098 0.333284 19.9651 0.48849C20.1205 0.643696 20.2438 0.828024 20.3278 1.03092C20.4118 1.23382 20.455 1.4513 20.4549 1.67091V18.3273C20.4552 18.5469 20.4121 18.7645 20.3282 18.9675C20.2442 19.1705 20.1211 19.3549 19.9658 19.5103C19.8106 19.6656 19.6262 19.7889 19.4232 19.8729C19.2203 19.9569 19.0028 20.0001 18.7831 20H2.12583C1.90633 20 1.68898 19.9568 1.4862 19.8727C1.28341 19.7887 1.09917 19.6655 0.944002 19.5103C0.788832 19.355 0.665773 19.1707 0.581855 18.9679C0.497938 18.7651 0.454806 18.5477 0.454926 18.3282V1.67091ZM8.37129 7.62546H11.0795V8.98546C11.4704 8.20364 12.4704 7.5 13.9731 7.5C16.854 7.5 17.5367 9.05727 17.5367 11.9145V17.2073H14.6213V12.5655C14.6213 10.9382 14.2304 10.02 13.2377 10.02C11.8604 10.02 11.2877 11.01 11.2877 12.5655V17.2073H8.37129V7.62546ZM3.37129 17.0827H6.28765V7.5H3.37129V17.0818V17.0827ZM6.70493 4.37455C6.71042 4.62425 6.66599 4.87254 6.57423 5.10483C6.48248 5.33713 6.34524 5.54876 6.17059 5.7273C5.99594 5.90585 5.78738 6.0477 5.55716 6.14455C5.32694 6.2414 5.07969 6.29129 4.82993 6.29129C4.58016 6.29129 4.33292 6.2414 4.10269 6.14455C3.87247 6.0477 3.66391 5.90585 3.48926 5.7273C3.31461 5.54876 3.17737 5.33713 3.08562 5.10483C2.99386 4.87254 2.94943 4.62425 2.95493 4.37455C2.96572 3.88441 3.168 3.41799 3.51846 3.07517C3.86891 2.73235 4.33967 2.54038 4.82993 2.54038C5.32018 2.54038 5.79094 2.73235 6.14139 3.07517C6.49185 3.41799 6.69413 3.88441 6.70493 4.37455Z" fill="#101010"/>
</svg>
