<svg width="17" height="20" viewBox="0 0 17 20" fill="none" xmlns="http://www.w3.org/2000/svg">
<path d="M8.28391 0C6.20082 0.00245748 4.20375 0.83105 2.73078 2.30402C1.25782 3.77699 0.429224 5.77405 0.426766 7.85714C0.424271 9.55945 0.980324 11.2156 2.00962 12.5714C2.00962 12.5714 2.22391 12.8536 2.25891 12.8943L8.28391 20L14.3118 12.8907C14.3432 12.8529 14.5582 12.5714 14.5582 12.5714L14.5589 12.5693C15.5877 11.214 16.1435 9.55866 16.1411 7.85714C16.1386 5.77405 15.31 3.77699 13.837 2.30402C12.3641 0.83105 10.367 0.00245748 8.28391 0ZM8.28391 10.7143C7.71882 10.7143 7.16642 10.5467 6.69657 10.2328C6.22671 9.91882 5.8605 9.4726 5.64425 8.95052C5.428 8.42845 5.37142 7.85397 5.48167 7.29974C5.59191 6.74551 5.86403 6.23642 6.2636 5.83684C6.66318 5.43726 7.17228 5.16514 7.72651 5.0549C8.28074 4.94466 8.85522 5.00124 9.37729 5.21749C9.89936 5.43374 10.3456 5.79994 10.6595 6.2698C10.9735 6.73965 11.1411 7.29205 11.1411 7.85714C11.1401 8.61461 10.8388 9.34079 10.3032 9.8764C9.76756 10.412 9.04138 10.7133 8.28391 10.7143Z" fill="#48565C"/>
</svg>
