<svg width="26" height="20" viewBox="0 0 26 20" fill="none" xmlns="http://www.w3.org/2000/svg">
<path d="M24.5458 0H0.909457C0.406616 0 0.000366211 0.40625 0.000366211 0.909091V19.0909C0.000366211 19.5938 0.406616 20 0.909457 20H24.5458C25.0487 20 25.4549 19.5938 25.4549 19.0909V0.909091C25.4549 0.40625 25.0487 0 24.5458 0ZM22.2504 3.09375L13.2873 10.0682C13.0657 10.2415 12.756 10.2415 12.5345 10.0682L3.56855 3.09375C3.53475 3.06767 3.50996 3.03166 3.49765 2.99078C3.48535 2.9499 3.48614 2.90619 3.49992 2.86579C3.5137 2.82538 3.53978 2.7903 3.57451 2.76546C3.60923 2.74062 3.65086 2.72727 3.69355 2.72727H22.1254C22.1681 2.72727 22.2097 2.74062 22.2444 2.76546C22.2791 2.7903 22.3052 2.82538 22.319 2.86579C22.3328 2.90619 22.3336 2.9499 22.3213 2.99078C22.309 3.03166 22.2842 3.06767 22.2504 3.09375Z" fill="#101010"/>
</svg>
