<svg width="66" height="45" viewBox="0 0 66 45" fill="none" xmlns="http://www.w3.org/2000/svg">
<path d="M65.4563 45.0007H8.18359V40.9098H61.3654V12.2734H65.4563V45.0007Z" fill="#48565C" fill-opacity="0.5"/>
<path d="M53.1818 4.09091V32.7273H4.09091V4.09091H53.1818ZM57.2727 0H0V36.8182H57.2727V0Z" fill="#48565C" fill-opacity="0.5"/>
<path d="M12.2745 12.2706H8.18359V24.5433H12.2745V28.6342H28.6381C25.9257 28.6342 23.3244 27.5567 21.4064 25.6387C19.4884 23.7207 18.4109 21.1194 18.4109 18.407C18.4109 15.6945 19.4884 13.0932 21.4064 11.1752C23.3244 9.2572 25.9257 8.17969 28.6381 8.17969H12.2745V12.2706Z" fill="#48565C" fill-opacity="0.5"/>
<path d="M45.0004 12.2706V8.17969H28.6367C31.3492 8.17969 33.9505 9.2572 35.8685 11.1752C37.7865 13.0932 38.864 15.6945 38.864 18.407C38.864 21.1194 37.7865 23.7207 35.8685 25.6387C33.9505 27.5567 31.3492 28.6342 28.6367 28.6342H45.0004V24.5433H49.0913V12.2706H45.0004Z" fill="#48565C" fill-opacity="0.5"/>
</svg>
