<svg width="27" height="27" viewBox="0 0 27 27" fill="none" xmlns="http://www.w3.org/2000/svg">
<path d="M25.3792 0C25.2537 0 25.1248 0.0231322 24.9959 0.0760056L5.94826 7.72943H0.528734C0.23793 7.72943 0 7.97397 0 8.27799V18.1587C0 18.4627 0.23793 18.7073 0.528734 18.7073H3.8895C3.76723 19.0906 3.70114 19.4971 3.70114 19.9101C3.70114 22.0879 5.47901 23.8591 7.66664 23.8591C9.49738 23.8591 11.0406 22.6166 11.4967 20.9379L24.9992 26.364C25.1281 26.4136 25.257 26.44 25.3825 26.44C25.941 26.44 26.44 25.9707 26.44 25.3429V1.09712C26.4367 0.469251 25.941 0 25.3792 0ZM7.66664 21.4897C6.79093 21.4897 6.08044 20.7825 6.08044 19.9101C6.08044 19.54 6.20932 19.1864 6.44394 18.9055L9.24954 20.0324C9.18345 20.8453 8.4994 21.4897 7.66664 21.4897ZM24.0574 23.4196L6.83389 16.4998L6.40759 16.328H2.3793V10.1087H6.40759L6.83389 9.93689L24.0574 3.01709V23.4196Z" fill="#48565C" fill-opacity="0.75"/>
</svg>
