<svg width="253" height="221" viewBox="0 0 253 221" fill="none" xmlns="http://www.w3.org/2000/svg">
<path d="M94.7146 71.034C94.7146 77.314 92.2199 83.3367 87.7793 87.7773C83.3387 92.2179 77.3159 94.7126 71.036 94.7126C64.756 94.7126 58.7333 92.2179 54.2927 87.7773C49.8521 83.3367 47.3574 77.314 47.3574 71.034C47.3574 64.7541 49.8521 58.7314 54.2927 54.2908C58.7333 49.8502 64.756 47.3555 71.036 47.3555C77.3159 47.3555 83.3387 49.8502 87.7793 54.2908C92.2199 58.7314 94.7146 64.7541 94.7146 71.034Z" fill="#48565C"/>
<path d="M31.5714 0C23.1982 0 15.1678 3.32627 9.24706 9.24706C3.32627 15.1678 0 23.1982 0 31.5714V189.429C0 197.802 3.32627 205.832 9.24706 211.753C15.1678 217.674 23.1982 221 31.5714 221H221C229.373 221 237.404 217.674 243.324 211.753C249.245 205.832 252.571 197.802 252.571 189.429V31.5714C252.571 23.1982 249.245 15.1678 243.324 9.24706C237.404 3.32627 229.373 0 221 0H31.5714ZM221 15.7857C225.187 15.7857 229.202 17.4488 232.162 20.4092C235.123 23.3696 236.786 27.3848 236.786 31.5714V134.179L177.163 103.444C175.683 102.702 174.007 102.445 172.372 102.708C170.737 102.972 169.227 103.743 168.055 104.912L109.49 163.477L67.4997 135.505C65.9837 134.495 64.1652 134.041 62.3526 134.22C60.54 134.398 58.8449 135.198 57.5547 136.483L15.7857 173.643V31.5714C15.7857 27.3848 17.4488 23.3696 20.4092 20.4092C23.3696 17.4488 27.3848 15.7857 31.5714 15.7857H221Z" fill="#48565C"/>
</svg>
