<svg width="28" height="25" viewBox="0 0 28 25" fill="none" xmlns="http://www.w3.org/2000/svg">
<path d="M9.28027 7.69814L12.9202 0.486654C12.9901 0.341581 13.0993 0.21905 13.2354 0.133013C13.3716 0.0469754 13.5291 0.00088878 13.6902 0C13.9951 0 14.3001 0.161663 14.4651 0.486654L18.105 7.69814L26.2682 8.85811C26.4716 8.89009 26.6579 8.99129 26.7954 9.14461C26.9329 9.29794 27.0134 9.49401 27.0231 9.69975C27.0348 9.83673 27.0153 9.97456 26.9663 10.103C26.9172 10.2314 26.8398 10.3471 26.7398 10.4414L20.8683 16.0346L22.2516 23.9177C22.3816 24.656 21.6516 25.2344 21.0083 24.9044L13.6902 21.1445L6.37534 24.9044C6.29883 24.9441 6.21682 24.9722 6.13201 24.9877C5.56203 25.0877 5.01871 24.5644 5.13204 23.9177L6.51534 16.0346L0.645488 10.4414C0.554233 10.3551 0.481698 10.2509 0.432386 10.1354C0.383073 10.0198 0.358036 9.89537 0.358829 9.76975C0.358915 9.59215 0.40793 9.418 0.500492 9.26643C0.566155 9.15655 0.655653 9.06281 0.762382 8.99214C0.86911 8.92147 0.990346 8.87566 1.11714 8.85811L9.28027 7.69814ZM13.6902 19.2112C13.8247 19.2106 13.9574 19.2426 14.0768 19.3045L20.22 22.4611L19.0634 15.8663C19.036 15.7146 19.0464 15.5585 19.0935 15.4118C19.1405 15.265 19.2229 15.1321 19.3333 15.0246L24.1782 10.4081L17.4251 9.44809C17.2852 9.42698 17.1526 9.37228 17.0385 9.28868C16.9244 9.20509 16.8323 9.09509 16.7701 8.9681L13.6918 2.87159L13.6902 2.87659V19.2095V19.2112Z" fill="#FC9700"/>
</svg>
