<svg width="27" height="25" viewBox="0 0 27 25" fill="none" xmlns="http://www.w3.org/2000/svg">
<path d="M25.5127 8.80321L17.6646 7.66263L14.1563 0.550211C14.0605 0.355478 13.9028 0.197836 13.7081 0.102015C13.2197 -0.139084 12.6262 0.0618317 12.3821 0.550211L8.87376 7.66263L1.02568 8.80321C0.809313 8.83412 0.611488 8.93612 0.460028 9.09068C0.276922 9.27888 0.176022 9.53207 0.1795 9.79463C0.182977 10.0572 0.290548 10.3076 0.478574 10.4909L6.15676 16.0269L4.81526 23.8441C4.7838 24.0259 4.80393 24.2129 4.87335 24.3839C4.94277 24.5549 5.05872 24.703 5.20803 24.8115C5.35735 24.9199 5.53407 24.9844 5.71815 24.9975C5.90222 25.0106 6.0863 24.9719 6.24949 24.8857L13.2692 21.1951L20.2889 24.8857C20.4805 24.9877 20.7031 25.0217 20.9163 24.9847C21.4542 24.8919 21.8158 24.3819 21.7231 23.8441L20.3816 16.0269L26.0598 10.4909C26.2143 10.3394 26.3163 10.1416 26.3472 9.92525C26.4307 9.38432 26.0536 8.88358 25.5127 8.80321Z" fill="#FC9700"/>
</svg>
