<svg width="21" height="20" viewBox="0 0 21 20" fill="none" xmlns="http://www.w3.org/2000/svg">
<path d="M8.35635 7.85634L8.35634 7.85635C8.33551 7.87718 8.30725 7.88889 8.27778 7.88889H1.61111C1.58164 7.88889 1.55338 7.87718 1.53254 7.85635L0.825437 8.56345L1.53254 7.85634C1.51171 7.83551 1.5 7.80725 1.5 7.77778V1.11111C1.5 1.08164 1.51171 1.05338 1.53254 1.03254C1.55338 1.01171 1.58164 1 1.61111 1H8.27778C8.30725 1 8.33551 1.01171 8.35634 1.03254L9.06345 0.325437L8.35635 1.03254C8.37718 1.05338 8.38889 1.08164 8.38889 1.11111V7.77778C8.38889 7.80725 8.37718 7.83551 8.35635 7.85634ZM7.16667 7.66667H8.16667V6.66667V2.22222V1.22222H7.16667H2.72222H1.72222V2.22222V6.66667V7.66667H2.72222H7.16667ZM18.2778 18.7778H19.2778V17.7778V13.3333V12.3333H18.2778H13.8333H12.8333V13.3333V17.7778V18.7778H13.8333H18.2778ZM12.6437 12.1437L11.9365 11.4365L12.6437 12.1437C12.6645 12.1228 12.6928 12.1111 12.7222 12.1111H19.3889C19.4184 12.1111 19.4466 12.1228 19.4675 12.1437C19.4883 12.1645 19.5 12.1927 19.5 12.2222V18.8889C19.5 18.9184 19.4883 18.9466 19.4675 18.9675C19.4466 18.9883 19.4184 19 19.3889 19H12.7222C12.6927 19 12.6645 18.9883 12.6437 18.9675C12.6228 18.9466 12.6111 18.9184 12.6111 18.8889V12.2222C12.6111 12.1928 12.6228 12.1645 12.6437 12.1437ZM12.6111 4.44444C12.6111 2.54562 14.1567 1 16.0556 1C17.9544 1 19.5 2.54562 19.5 4.44444C19.5 6.34327 17.9544 7.88889 16.0556 7.88889C14.1567 7.88889 12.6111 6.34327 12.6111 4.44444ZM12.8333 4.44444C12.8333 6.22229 14.2777 7.66667 16.0556 7.66667C17.8334 7.66667 19.2778 6.22229 19.2778 4.44444C19.2778 2.6666 17.8334 1.22222 16.0556 1.22222C14.2777 1.22222 12.8333 2.6666 12.8333 4.44444ZM1.5 15.5556C1.5 13.6567 3.04562 12.1111 4.94444 12.1111C6.84327 12.1111 8.38889 13.6567 8.38889 15.5556C8.38889 17.4544 6.84327 19 4.94444 19C3.04562 19 1.5 17.4544 1.5 15.5556ZM1.72222 15.5556C1.72222 17.3334 3.1666 18.7778 4.94444 18.7778C6.72229 18.7778 8.16667 17.3334 8.16667 15.5556C8.16667 13.7777 6.72229 12.3333 4.94444 12.3333C3.1666 12.3333 1.72222 13.7777 1.72222 15.5556Z" stroke="#B4C5CC" stroke-width="2"/>
</svg>
