<svg width="25" height="26" viewBox="0 0 25 26" fill="none" xmlns="http://www.w3.org/2000/svg">
<path d="M12.5122 10.0339C11.7823 10.0339 11.0987 10.3171 10.5811 10.8347C10.0659 11.3523 9.7803 12.0359 9.7803 12.7659C9.7803 13.4958 10.0659 14.1794 10.5811 14.697C11.0987 15.2122 11.7823 15.4978 12.5122 15.4978C13.2422 15.4978 13.9258 15.2122 14.4434 14.697C14.9585 14.1794 15.2442 13.4958 15.2442 12.7659C15.2442 12.0359 14.9585 11.3523 14.4434 10.8347C14.1906 10.58 13.8897 10.378 13.5582 10.2405C13.2267 10.1031 12.8711 10.0328 12.5122 10.0339ZM22.5781 15.7834L20.9815 14.4187C21.0572 13.9548 21.0962 13.4812 21.0962 13.01C21.0962 12.5388 21.0572 12.0627 20.9815 11.6013L22.5781 10.2366C22.6988 10.1333 22.7851 9.99579 22.8256 9.84228C22.8662 9.68877 22.8591 9.52655 22.8052 9.37719L22.7832 9.31372C22.3438 8.08494 21.6854 6.94593 20.8399 5.9519L20.7959 5.90063C20.6933 5.77991 20.5564 5.69313 20.4034 5.65173C20.2505 5.61032 20.0885 5.61624 19.939 5.6687L17.9566 6.37427C17.2241 5.77368 16.4087 5.30005 15.5249 4.97046L15.1416 2.8977C15.1127 2.74156 15.037 2.59791 14.9245 2.48583C14.8119 2.37376 14.668 2.29858 14.5117 2.27026L14.4458 2.25806C13.1763 2.02856 11.8384 2.02856 10.5689 2.25806L10.503 2.27026C10.3467 2.29858 10.2028 2.37376 10.0902 2.48583C9.97774 2.59791 9.90199 2.74156 9.87307 2.8977L9.48733 4.98022C8.61191 5.31244 7.7964 5.78493 7.07278 6.37915L5.07571 5.6687C4.92621 5.61582 4.76416 5.60969 4.6111 5.65112C4.45803 5.69255 4.3212 5.77957 4.21878 5.90063L4.17483 5.9519C3.33082 6.947 2.67256 8.08571 2.23147 9.31372L2.2095 9.37719C2.09964 9.68237 2.18997 10.0242 2.43655 10.2366L4.05276 11.616C3.97708 12.0749 3.94046 12.5437 3.94046 13.0076C3.94046 13.4763 3.97708 13.9451 4.05276 14.3992L2.44143 15.7786C2.32082 15.8818 2.23449 16.0193 2.19393 16.1729C2.15338 16.3264 2.16051 16.4886 2.21438 16.6379L2.23636 16.7014C2.67825 17.9294 3.3301 19.0647 4.17971 20.0632L4.22366 20.1145C4.32633 20.2352 4.46317 20.322 4.61615 20.3634C4.76912 20.4048 4.93105 20.3989 5.08059 20.3464L7.07766 19.636C7.8052 20.2341 8.61575 20.7078 9.49221 21.0349L9.87796 23.1174C9.90687 23.2736 9.98262 23.4172 10.0951 23.5293C10.2076 23.6414 10.3516 23.7166 10.5078 23.7449L10.5738 23.7571C11.8558 23.9878 13.1687 23.9878 14.4507 23.7571L14.5166 23.7449C14.6729 23.7166 14.8168 23.6414 14.9293 23.5293C15.0418 23.4172 15.1176 23.2736 15.1465 23.1174L15.5298 21.0447C16.4136 20.7126 17.229 20.2414 17.9615 19.6409L19.9439 20.3464C20.0934 20.3993 20.2554 20.4054 20.4085 20.364C20.5615 20.3226 20.6984 20.2356 20.8008 20.1145L20.8448 20.0632C21.6944 19.0598 22.3462 17.9294 22.7881 16.7014L22.8101 16.6379C22.9151 16.3352 22.8247 15.9958 22.5781 15.7834ZM12.5122 17.0579C10.1416 17.0579 8.22024 15.1365 8.22024 12.7659C8.22024 10.3953 10.1416 8.47388 12.5122 8.47388C14.8828 8.47388 16.8042 10.3953 16.8042 12.7659C16.8042 15.1365 14.8828 17.0579 12.5122 17.0579Z" fill="#48565C"/>
</svg>
