<svg width="22" height="23" viewBox="0 0 22 23" fill="none" xmlns="http://www.w3.org/2000/svg">
<path d="M17.2512 14.7949C16.6371 14.798 16.0314 14.939 15.479 15.2074C14.9266 15.4758 14.4415 15.8648 14.0595 16.3457L8.06155 12.596C8.28015 11.8905 8.28015 11.1353 8.06155 10.4298L14.0595 6.68012C14.6682 7.43393 15.5242 7.94795 16.4756 8.13111C17.4271 8.31427 18.4127 8.15476 19.2578 7.68083C20.1029 7.2069 20.753 6.44914 21.0929 5.54179C21.4329 4.63443 21.4407 3.63605 21.115 2.7235C20.7893 1.81094 20.1511 1.04312 19.3135 0.556045C18.4758 0.0689678 17.4929 -0.105924 16.5387 0.0623505C15.5844 0.230625 14.7206 0.731204 14.1001 1.47541C13.4796 2.21962 13.1426 3.15943 13.1487 4.12834C13.1526 4.49526 13.2078 4.85982 13.3128 5.21141L7.31489 8.96113C6.78537 8.29453 6.0616 7.80918 5.24389 7.57233C4.42618 7.33549 3.55505 7.3589 2.75124 7.6393C1.94743 7.91971 1.25076 8.44323 0.757798 9.13729C0.264836 9.83136 0 10.6616 0 11.5129C0 12.3642 0.264836 13.1945 0.757798 13.8885C1.25076 14.5826 1.94743 15.1061 2.75124 15.3865C3.55505 15.6669 4.42618 15.6903 5.24389 15.4535C6.0616 15.2166 6.78537 14.7313 7.31489 14.0647L13.3128 17.8144C13.2078 18.166 13.1526 18.5306 13.1487 18.8975C13.1487 19.7089 13.3893 20.5021 13.8401 21.1767C14.2909 21.8514 14.9316 22.3772 15.6813 22.6877C16.4309 22.9982 17.2558 23.0795 18.0516 22.9212C18.8474 22.7629 19.5784 22.3721 20.1522 21.7984C20.7259 21.2246 21.1166 20.4936 21.2749 19.6978C21.4332 18.902 21.352 18.0771 21.0415 17.3275C20.731 16.5779 20.2051 15.9371 19.5305 15.4863C18.8558 15.0355 18.0626 14.7949 17.2512 14.7949ZM17.2512 1.66682C17.7381 1.66682 18.214 1.81119 18.6188 2.08166C19.0236 2.35214 19.3391 2.73658 19.5254 3.18636C19.7117 3.63614 19.7604 4.13107 19.6654 4.60856C19.5705 5.08605 19.336 5.52465 18.9918 5.8689C18.6475 6.21315 18.2089 6.44759 17.7314 6.54257C17.254 6.63754 16.759 6.5888 16.3092 6.40249C15.8595 6.21618 15.475 5.90068 15.2045 5.49589C14.9341 5.09109 14.7897 4.61519 14.7897 4.12834C14.7897 3.47551 15.049 2.84941 15.5107 2.38778C15.9723 1.92616 16.5984 1.66682 17.2512 1.66682ZM4.12312 13.9744C3.63627 13.9744 3.16036 13.8301 2.75557 13.5596C2.35077 13.2891 2.03528 12.9047 1.84897 12.4549C1.66266 12.0051 1.61392 11.5102 1.70889 11.0327C1.80387 10.5552 2.03831 10.1166 2.38256 9.77235C2.72681 9.4281 3.16541 9.19366 3.6429 9.09868C4.12039 9.0037 4.61532 9.05245 5.0651 9.23876C5.51488 9.42506 5.89932 9.74056 6.1698 10.1454C6.44027 10.5502 6.58464 11.0261 6.58464 11.5129C6.58464 12.1657 6.3253 12.7918 5.86368 13.2535C5.40205 13.7151 4.77595 13.9744 4.12312 13.9744ZM17.2512 21.359C16.7644 21.359 16.2885 21.2146 15.8837 20.9441C15.4789 20.6737 15.1634 20.2892 14.9771 19.8394C14.7908 19.3897 14.742 18.8947 14.837 18.4172C14.932 17.9398 15.1664 17.5012 15.5107 17.1569C15.8549 16.8127 16.2935 16.5782 16.771 16.4832C17.2485 16.3883 17.7434 16.437 18.1932 16.6233C18.643 16.8096 19.0274 17.1251 19.2979 17.5299C19.5684 17.9347 19.7127 18.4106 19.7127 18.8975C19.7127 19.5503 19.4534 20.1764 18.9918 20.638C18.5302 21.0996 17.9041 21.359 17.2512 21.359Z" fill="black"/>
</svg>
