<svg width="23" height="22" viewBox="0 0 23 22" fill="none" xmlns="http://www.w3.org/2000/svg">
<path d="M11.5 21C5.977 21 1.5 16.523 1.5 11C1.5 5.477 5.977 1 11.5 1C17.023 1 21.5 5.477 21.5 11C21.5 16.523 17.023 21 11.5 21Z" stroke="#FC9700" stroke-width="1.5" stroke-linecap="round" stroke-linejoin="round"/>
<path d="M15.9995 13.5C15.9995 13.5 14.4995 15.5 11.4995 15.5C8.49951 15.5 6.99951 13.5 6.99951 13.5" stroke="#FC9700" stroke-width="1.5" stroke-linecap="round" stroke-linejoin="round"/>
<path d="M14.9996 8.00015C14.867 8.00015 14.7398 7.94747 14.6461 7.85368C14.5523 7.7599 14.4996 7.6327 14.4996 7.50008C14.4996 7.36745 14.5523 7.24025 14.6461 7.14647C14.7398 7.05269 14.867 7 14.9996 7C15.1322 7 15.2594 7.05269 15.3532 7.14647C15.447 7.24025 15.4996 7.36745 15.4996 7.50008C15.4996 7.6327 15.447 7.7599 15.3532 7.85368C15.2594 7.94747 15.1322 8.00015 14.9996 8.00015Z" stroke="#FC9700" stroke-width="1.5" stroke-linecap="round" stroke-linejoin="round"/>
<path d="M8.00024 8.00015C7.86764 8.00015 7.74046 7.94747 7.64669 7.85368C7.55292 7.7599 7.50024 7.6327 7.50024 7.50008C7.50024 7.36745 7.55292 7.24025 7.64669 7.14647C7.74046 7.05269 7.86764 7 8.00024 7C8.13285 7 8.26003 7.05269 8.3538 7.14647C8.44757 7.24025 8.50024 7.36745 8.50024 7.50008C8.50024 7.6327 8.44757 7.7599 8.3538 7.85368C8.26003 7.94747 8.13285 8.00015 8.00024 8.00015Z" stroke="#FC9700" stroke-width="1.5" stroke-linecap="round" stroke-linejoin="round"/>
</svg>
