<svg width="37" height="25" viewBox="0 0 37 25" fill="none" xmlns="http://www.w3.org/2000/svg">
<path d="M14.7315 18.9825L26.1757 3.47906C26.3489 3.24296 26.5984 3.07399 26.8819 3.00077C27.1654 2.92756 27.4655 2.95459 27.7314 3.07729C27.9972 3.2 28.2125 3.41083 28.3407 3.67407C28.4689 3.93732 28.5022 4.23679 28.4349 4.52176L28.38 4.70104L21.3006 22.6265C21.108 23.1052 20.8196 23.5395 20.4531 23.9028C20.0866 24.266 19.6498 24.5505 19.1693 24.7389C18.6889 24.9272 18.1751 25.0153 17.6593 24.9978C17.1436 24.9804 16.6369 24.8577 16.1703 24.6373C15.7037 24.4169 15.2871 24.1035 14.946 23.7163C14.6049 23.3291 14.3466 22.8763 14.1868 22.3856C14.0271 21.8949 13.9693 21.3768 14.017 20.863C14.0648 20.3492 14.217 19.8506 14.4645 19.3977L14.5907 19.1855L14.7297 18.9843L26.1757 3.47906L14.7297 18.9843L14.7315 18.9825ZM30.3904 4.337C31.8026 5.48249 33.0476 6.81987 34.0893 8.31027C35.0479 9.68042 35.9735 11.3396 36.504 12.697C36.5697 12.8648 36.6017 13.0439 36.5982 13.224C36.5947 13.4042 36.5557 13.5819 36.4835 13.747C36.4113 13.9121 36.3073 14.0614 36.1774 14.1863C36.0476 14.3112 35.8943 14.4093 35.7265 14.475C35.5587 14.5407 35.3796 14.5728 35.1995 14.5692C35.0193 14.5657 34.8416 14.5268 34.6765 14.4546C34.5114 14.3824 34.3621 14.2784 34.2372 14.1485C34.1123 14.0186 34.0142 13.8654 33.9484 13.6976C33.7451 13.1903 33.5142 12.6944 33.257 12.2122L29.5069 14.3763C29.2058 14.5481 28.8509 14.5996 28.5135 14.5204C28.176 14.4412 27.881 14.2373 27.6878 13.9495C27.4946 13.6618 27.4174 13.3115 27.4719 12.9692C27.5263 12.6269 27.7083 12.3179 27.9812 12.1043L28.1367 12L31.8283 9.86701L31.4075 9.29261C30.8243 8.53116 30.1768 7.82122 29.4721 7.17061L30.1673 5.40715C30.2368 5.23154 30.2898 5.05226 30.3264 4.87299L30.3703 4.60408L30.3886 4.337H30.3904ZM25.5794 1.48145C25.3026 1.64239 25.0522 1.84474 24.8367 2.08146L24.6281 2.33757L23.6403 3.67845C22.3566 3.23274 21.0237 2.94405 19.6707 2.81867V7.70659C19.6706 8.0542 19.5385 8.38882 19.3012 8.64282C19.0639 8.89682 18.739 9.05127 18.3922 9.07497C18.0454 9.09866 17.7025 8.98983 17.4329 8.77046C17.1632 8.5511 16.9869 8.23755 16.9395 7.89318L16.9267 7.70659V2.78575C13.9071 3.00048 11.003 4.03385 8.52651 5.77484C7.0338 6.82121 5.73133 8.19319 4.6502 9.80847L8.45883 12.0073C8.75965 12.1813 8.98325 12.4629 9.08448 12.7953C9.18572 13.1277 9.15704 13.4862 9.00424 13.7983C8.85144 14.1104 8.58591 14.3529 8.26126 14.4768C7.93661 14.6007 7.57704 14.5968 7.25514 14.4659L7.08685 14.3836L3.29286 12.1939C3.0587 12.6805 2.84284 13.1817 2.64162 13.6958C2.50536 14.0285 2.24393 14.2944 1.91359 14.4364C1.58325 14.5783 1.21039 14.5849 0.875243 14.4547C0.540093 14.3245 0.269437 14.068 0.121507 13.7403C-0.0264232 13.4126 -0.0398037 13.0399 0.0842441 12.7024C1.5605 8.90662 3.88921 5.6724 6.95148 3.52662C9.63378 1.64632 12.7472 0.47326 16.0034 0.11608C19.2596 -0.241099 22.5532 0.22915 25.5794 1.48328V1.48145Z" fill="#03A9F4" fill-opacity="0.5"/>
</svg>
