<svg width="50" height="50" viewBox="0 0 50 50" fill="none" xmlns="http://www.w3.org/2000/svg">
<path d="M22.6854 1.58248C23.4854 -0.527492 26.5127 -0.527492 27.3152 1.58248L32.49 15.9173C32.8525 16.8672 33.7749 17.4997 34.8049 17.4997H47.5218C49.8717 17.4997 50.8967 20.4247 49.0492 21.8572L39.9996 29.9995C39.5943 30.3112 39.298 30.7432 39.1534 31.2337C39.0088 31.7241 39.0232 32.2478 39.1947 32.7295L42.4995 46.7368C43.3045 48.9868 40.6996 50.9192 38.7297 49.5343L26.4377 41.7344C26.0168 41.4385 25.5148 41.2798 25.0003 41.2798C24.4858 41.2798 23.9838 41.4385 23.5629 41.7344L11.2709 49.5343C9.3035 50.9192 6.69612 48.9843 7.50108 46.7368L10.8059 32.7295C10.9774 32.2478 10.9918 31.7241 10.8472 31.2337C10.7026 30.7432 10.4063 30.3112 10.001 29.9995L0.95137 21.8572C-0.898548 20.4247 0.131406 17.4997 2.4763 17.4997H15.1932C15.6939 17.5014 16.1834 17.351 16.5967 17.0684C17.0101 16.7858 17.3279 16.3844 17.5081 15.9173L22.6829 1.58248H22.6854Z" fill="white"/>
</svg>
