<svg width="20" height="20" viewBox="0 0 20 20" fill="none" xmlns="http://www.w3.org/2000/svg">
<path d="M7.52461 5.76267L7.76119 5.53736C8.347 4.92902 8.24561 4.64738 7.67106 4.07283L4.60682 0.974793C3.69431 0.0510139 3.52532 -0.388344 2.65787 0.434044L2.4213 0.659356L7.52461 5.76267ZM6.92753 6.26962L1.97067 1.31276C1.18208 2.37173 -0.66548 5.22192 0.247034 7.32859C1.06942 9.20994 1.47499 9.30007 2.50015 10.7083C4.58429 13.0853 7.20917 15.6313 9.25951 17.5465C10.679 18.5717 10.7353 19.0448 12.6392 19.7996C14.667 20.5995 17.5961 18.797 18.7001 18.0422L13.7432 13.0853L12.4139 14.9103C12.0308 15.4286 11.062 14.8427 10.3861 14.1668C9.21445 12.9839 6.80361 10.5843 5.87983 9.58171C5.21516 8.91704 4.61809 7.9482 5.1363 7.5539L6.92753 6.26962ZM19.3422 17.5915L19.5788 17.355C20.3449 16.5213 19.9055 16.3411 18.993 15.4398L15.9062 12.3756C15.3317 11.8236 15.0613 11.6996 14.4755 12.2517L14.2502 12.4882L19.3422 17.5915Z" fill="#48565C"/>
</svg>
