<svg width="20" height="20" viewBox="0 0 20 20" fill="none" xmlns="http://www.w3.org/2000/svg">
<path d="M18.8756 10.5279C19.2854 9.98909 19.5122 9.32897 19.5122 8.64217C19.5122 7.55249 18.9 6.52107 17.9146 5.94589C17.661 5.79784 17.3721 5.71992 17.078 5.72019H11.2293L11.3756 2.73755C11.4098 2.01676 11.1537 1.33238 10.6561 0.810598C10.4119 0.553417 10.1173 0.348793 9.79053 0.209374C9.46373 0.0699547 9.11166 -0.00129842 8.7561 1.79108e-05C7.4878 1.79108e-05 6.36585 0.849429 6.02927 2.0653L3.93415 9.61292H0.780488C0.34878 9.61292 0 9.95997 0 10.3895V19.2234C0 19.653 0.34878 20 0.780488 20H15.4463C15.6707 20 15.8902 19.9563 16.0927 19.8689C17.2537 19.3763 18.0024 18.2478 18.0024 16.9955C18.0024 16.6897 17.9585 16.3888 17.8707 16.0976C18.2805 15.5588 18.5073 14.8987 18.5073 14.2119C18.5073 13.9061 18.4634 13.6052 18.3756 13.3139C18.7854 12.7752 19.0122 12.115 19.0122 11.4282C19.0073 11.1224 18.9634 10.8191 18.8756 10.5279ZM1.7561 18.2526V11.3603H3.73171V18.2526H1.7561ZM17.278 9.68573L16.7439 10.1468L17.0829 10.7633C17.1946 10.9663 17.2525 11.1943 17.2512 11.4258C17.2512 11.8262 17.0756 12.2073 16.7732 12.4694L16.239 12.9305L16.578 13.5469C16.6897 13.75 16.7477 13.978 16.7463 14.2094C16.7463 14.6099 16.5707 14.9909 16.2683 15.253L15.7341 15.7141L16.0732 16.3305C16.1849 16.5336 16.2428 16.7616 16.2415 16.9931C16.2415 17.5367 15.9195 18.0269 15.422 18.2502H5.29268V11.2826L7.71951 2.53369C7.78209 2.30945 7.91642 2.11161 8.10215 1.97016C8.28789 1.8287 8.51489 1.75135 8.74878 1.7498C8.93415 1.7498 9.11707 1.8032 9.26341 1.91241C9.50488 2.092 9.63415 2.36381 9.61951 2.65261L9.38537 7.46755H17.0537C17.4878 7.73208 17.7561 8.17863 17.7561 8.64217C17.7561 9.0426 17.5805 9.4212 17.278 9.68573Z" fill="#F5490F"/>
</svg>
