<svg width="7" height="7" viewBox="0 0 7 7" fill="none" xmlns="http://www.w3.org/2000/svg">
<path d="M3.5 0.5C3.89782 0.5 4.27936 0.658035 4.56066 0.93934C4.84196 1.22064 5 1.60218 5 2C5 2.39782 4.84196 2.77936 4.56066 3.06066C4.27936 3.34196 3.89782 3.5 3.5 3.5C3.10217 3.5 2.72064 3.34196 2.43934 3.06066C2.15803 2.77936 2 2.39782 2 2C2 1.60218 2.15803 1.22064 2.43934 0.93934C2.72064 0.658035 3.10217 0.5 3.5 0.5ZM3.5 4.25C5.1575 4.25 6.5 4.92125 6.5 5.75V6.5H0.5V5.75C0.5 4.92125 1.8425 4.25 3.5 4.25Z" fill="black"/>
</svg>
