<svg width="54" height="45" viewBox="0 0 54 45" fill="none" xmlns="http://www.w3.org/2000/svg">
<path d="M35.9976 8.99879C35.9976 11.3854 35.0495 13.6743 33.3619 15.3619C31.6743 17.0495 29.3854 17.9976 26.9988 17.9976C24.6122 17.9976 22.3233 17.0495 20.6357 15.3619C18.9481 13.6743 18 11.3854 18 8.99879C18 6.61216 18.9481 4.32328 20.6357 2.63568C22.3233 0.948084 24.6122 0 26.9988 0C29.3854 0 31.6743 0.948084 33.3619 2.63568C35.0495 4.32328 35.9976 6.61216 35.9976 8.99879Z" fill="#48565C" fill-opacity="0.5"/>
<path d="M50.9925 14.9992C50.9925 16.5903 50.3605 18.1162 49.2354 19.2413C48.1103 20.3663 46.5844 20.9984 44.9933 20.9984C43.4022 20.9984 41.8763 20.3663 40.7513 19.2413C39.6262 18.1162 38.9941 16.5903 38.9941 14.9992C38.9941 13.4081 39.6262 11.8822 40.7513 10.7571C41.8763 9.63206 43.4022 9 44.9933 9C46.5844 9 48.1103 9.63206 49.2354 10.7571C50.3605 11.8822 50.9925 13.4081 50.9925 14.9992Z" fill="#48565C" fill-opacity="0.5"/>
<path d="M38.9929 35.9945C38.9929 32.8123 37.7288 29.7605 35.4786 27.5103C33.2285 25.2602 30.1766 23.9961 26.9945 23.9961C23.8123 23.9961 20.7605 25.2602 18.5103 27.5103C16.2602 29.7605 14.9961 32.8123 14.9961 35.9945V44.9933H38.9929V35.9945Z" fill="#48565C" fill-opacity="0.5"/>
<path d="M14.9964 14.9992C14.9964 16.5903 14.3644 18.1162 13.2393 19.2413C12.1142 20.3663 10.5883 20.9984 8.99724 20.9984C7.40615 20.9984 5.88024 20.3663 4.75517 19.2413C3.6301 18.1162 2.99805 16.5903 2.99805 14.9992C2.99805 13.4081 3.6301 11.8822 4.75517 10.7571C5.88024 9.63206 7.40615 9 8.99724 9C10.5883 9 12.1142 9.63206 13.2393 10.7571C14.3644 11.8822 14.9964 13.4081 14.9964 14.9992Z" fill="#48565C" fill-opacity="0.5"/>
<path d="M44.9938 44.997V35.9982C44.9982 32.9485 44.2238 29.9481 42.7441 27.2814C44.074 26.9411 45.464 26.909 46.8082 27.1876C48.1523 27.4662 49.4151 28.0481 50.5001 28.8889C51.5852 29.7298 52.4639 30.8073 53.0691 32.0394C53.6744 33.2715 53.9903 34.6255 53.9926 35.9982V44.997H44.9938Z" fill="#48565C" fill-opacity="0.5"/>
<path d="M11.2485 27.2857C9.76893 29.9525 8.99459 32.9529 8.99879 36.0026V45.0014H7.97053e-07V36.0026C-0.000577326 34.6289 0.313348 33.2733 0.917718 32.0397C1.52209 30.8061 2.40086 29.7272 3.48668 28.8858C4.57251 28.0443 5.83656 27.4627 7.18196 27.1853C8.52737 26.908 9.91841 26.9423 11.2485 27.2857Z" fill="#48565C" fill-opacity="0.5"/>
</svg>
