<svg width="4" height="21" viewBox="0 0 4 21" fill="none" xmlns="http://www.w3.org/2000/svg">
<path fill-rule="evenodd" clip-rule="evenodd" d="M1.5984 4.11666C2.3984 4.11666 3.19839 3.0875 3.19839 2.05833C3.19839 1.02917 2.3984 0 1.5984 0C0.798399 0 0 1.02917 0 2.05833C0 3.0875 0.798399 4.11666 1.5984 4.11666ZM1.5984 12.35C2.3984 12.35 3.19839 11.3208 3.19839 10.2917C3.19839 9.26249 2.3984 8.23333 1.5984 8.23333C0.798399 8.23333 0 9.26249 0 10.2917C0 11.3208 0.798399 12.35 1.5984 12.35ZM1.5984 20.5833C2.3984 20.5833 3.19839 19.5542 3.19839 18.525C3.19839 17.4958 2.3984 16.4667 1.5984 16.4667C0.798399 16.4667 0 17.4958 0 18.525C0 19.5542 0.798399 20.5833 1.5984 20.5833Z" fill="white"/>
</svg>
