<svg width="74" height="55" viewBox="0 0 74 55" fill="none" xmlns="http://www.w3.org/2000/svg">
<path d="M44.1959 40.5352C43.5565 40.5352 42.9433 40.7891 42.4912 41.2412C42.0391 41.6933 41.7852 42.3065 41.7852 42.9459C41.7852 43.5852 42.0391 44.1984 42.4912 44.6505C42.9433 45.1026 43.5565 45.3566 44.1959 45.3566H52.2316C52.8709 45.3566 53.4841 45.1026 53.9362 44.6505C54.3883 44.1984 54.6423 43.5852 54.6423 42.9459C54.6423 42.3065 54.3883 41.6933 53.9362 41.2412C53.4841 40.7891 52.8709 40.5352 52.2316 40.5352H44.1959Z" fill="#48565C" fill-opacity="0.5"/>
<path d="M8.83929 10C6.49496 10 4.24665 10.9313 2.58897 12.589C0.931279 14.2467 0 16.495 0 18.8393V46.1607C0 48.505 0.931279 50.7533 2.58897 52.411C4.24665 54.0687 6.49496 55 8.83929 55H55.4464C57.7908 55 60.0391 54.0687 61.6967 52.411C63.3544 50.7533 64.2857 48.505 64.2857 46.1607V18.8393C64.2857 16.495 63.3544 14.2467 61.6967 12.589C60.0391 10.9313 57.7908 10 55.4464 10H8.83929ZM4.82143 46.1607V29.2857H59.4643V46.1607C59.4643 48.3786 57.6643 50.1786 55.4464 50.1786H8.83929C6.62143 50.1786 4.82143 48.3786 4.82143 46.1607ZM4.82143 24.4643V18.8393C4.82143 16.6214 6.62143 14.8214 8.83929 14.8214H55.4464C57.6643 14.8214 59.4643 16.6214 59.4643 18.8393V24.4643H4.82143Z" fill="#48565C" fill-opacity="0.5"/>
<circle cx="58" cy="16" r="16" fill="white"/>
<path d="M58 0C49.2 0 42 7.2 42 16C42 24.8 49.2 32 58 32C66.8 32 74 24.8 74 16C74 7.2 66.8 0 58 0ZM58 3.55556C60.7556 3.55556 63.3333 4.53333 65.4667 6.04444L48.0444 23.4667C46.5333 21.3333 45.5556 18.7556 45.5556 16C45.5556 9.15556 51.1556 3.55556 58 3.55556ZM58 28.4444C55.2444 28.4444 52.6667 27.4667 50.5333 25.9556L67.9556 8.53333C69.4667 10.6667 70.4444 13.2444 70.4444 16C70.4444 22.8444 64.8444 28.4444 58 28.4444Z" fill="#FF0000"/>
</svg>
