<svg width="74" height="60" viewBox="0 0 74 60" fill="none" xmlns="http://www.w3.org/2000/svg">
<path d="M44.1959 45.5352C43.5565 45.5352 42.9433 45.7891 42.4912 46.2412C42.0391 46.6933 41.7852 47.3065 41.7852 47.9459C41.7852 48.5852 42.0391 49.1984 42.4912 49.6505C42.9433 50.1026 43.5565 50.3566 44.1959 50.3566H52.2316C52.8709 50.3566 53.4841 50.1026 53.9362 49.6505C54.3883 49.1984 54.6423 48.5852 54.6423 47.9459C54.6423 47.3065 54.3883 46.6933 53.9362 46.2412C53.4841 45.7891 52.8709 45.5352 52.2316 45.5352H44.1959Z" fill="#48565C" fill-opacity="0.5"/>
<path d="M8.83929 15C6.49496 15 4.24665 15.9313 2.58897 17.589C0.931279 19.2467 0 21.495 0 23.8393V51.1607C0 53.505 0.931279 55.7533 2.58897 57.411C4.24665 59.0687 6.49496 60 8.83929 60H55.4464C57.7908 60 60.0391 59.0687 61.6967 57.411C63.3544 55.7533 64.2857 53.505 64.2857 51.1607V23.8393C64.2857 21.495 63.3544 19.2467 61.6967 17.589C60.0391 15.9313 57.7908 15 55.4464 15H8.83929ZM4.82143 51.1607V34.2857H59.4643V51.1607C59.4643 53.3786 57.6643 55.1786 55.4464 55.1786H8.83929C6.62143 55.1786 4.82143 53.3786 4.82143 51.1607ZM4.82143 29.4643V23.8393C4.82143 21.6214 6.62143 19.8214 8.83929 19.8214H55.4464C57.6643 19.8214 59.4643 21.6214 59.4643 23.8393V29.4643H4.82143Z" fill="#48565C" fill-opacity="0.5"/>
<circle cx="58" cy="21" r="16" fill="white"/>
<circle cx="58" cy="21" r="15.5" stroke="#48565C" stroke-opacity="0.5"/>
<path d="M54.8198 25.806L54.6878 20.361H56.2058C57.3278 20.361 58.3508 20.262 59.2748 20.064C60.1988 19.866 60.9358 19.481 61.4858 18.909C62.0358 18.337 62.3108 17.501 62.3108 16.401C62.3108 15.345 61.9918 14.52 61.3538 13.926C60.7158 13.31 59.8688 13.002 58.8128 13.002C57.7128 13.002 56.8548 13.31 56.2388 13.926C55.6228 14.52 55.3148 15.334 55.3148 16.368H51.3218C51.2998 15.048 51.5858 13.871 52.1798 12.837C52.7738 11.803 53.6318 10.989 54.7538 10.395C55.8978 9.801 57.2618 9.504 58.8458 9.504C60.3198 9.504 61.6178 9.779 62.7398 10.329C63.8838 10.879 64.7748 11.671 65.4128 12.705C66.0728 13.717 66.4028 14.96 66.4028 16.434C66.4028 17.952 66.0618 19.206 65.3798 20.196C64.7198 21.186 63.8068 21.923 62.6408 22.407C61.4968 22.891 60.1658 23.144 58.6478 23.166L58.5488 25.806H54.8198ZM56.7008 33.231C55.9308 33.231 55.2928 32.989 54.7868 32.505C54.3028 32.021 54.0608 31.438 54.0608 30.756C54.0608 30.052 54.3028 29.458 54.7868 28.974C55.2928 28.49 55.9308 28.248 56.7008 28.248C57.4708 28.248 58.0978 28.49 58.5818 28.974C59.0658 29.458 59.3078 30.052 59.3078 30.756C59.3078 31.438 59.0658 32.021 58.5818 32.505C58.0978 32.989 57.4708 33.231 56.7008 33.231Z" fill="#F5490F" fill-opacity="0.75"/>
</svg>
