<svg width="74" height="55" viewBox="0 0 74 55" fill="none" xmlns="http://www.w3.org/2000/svg">
<path d="M44.1959 40.5352C43.5565 40.5352 42.9433 40.7891 42.4912 41.2412C42.0391 41.6933 41.7852 42.3065 41.7852 42.9459C41.7852 43.5852 42.0391 44.1984 42.4912 44.6505C42.9433 45.1026 43.5565 45.3566 44.1959 45.3566H52.2316C52.8709 45.3566 53.4841 45.1026 53.9362 44.6505C54.3883 44.1984 54.6423 43.5852 54.6423 42.9459C54.6423 42.3065 54.3883 41.6933 53.9362 41.2412C53.4841 40.7891 52.8709 40.5352 52.2316 40.5352H44.1959Z" fill="#48565C" fill-opacity="0.5"/>
<path d="M8.83929 10C6.49496 10 4.24665 10.9313 2.58897 12.589C0.931279 14.2467 0 16.495 0 18.8393V46.1607C0 48.505 0.931279 50.7533 2.58897 52.411C4.24665 54.0687 6.49496 55 8.83929 55H55.4464C57.7908 55 60.0391 54.0687 61.6967 52.411C63.3544 50.7533 64.2857 48.505 64.2857 46.1607V18.8393C64.2857 16.495 63.3544 14.2467 61.6967 12.589C60.0391 10.9313 57.7908 10 55.4464 10H8.83929ZM4.82143 46.1607V29.2857H59.4643V46.1607C59.4643 48.3786 57.6643 50.1786 55.4464 50.1786H8.83929C6.62143 50.1786 4.82143 48.3786 4.82143 46.1607ZM4.82143 24.4643V18.8393C4.82143 16.6214 6.62143 14.8214 8.83929 14.8214H55.4464C57.6643 14.8214 59.4643 16.6214 59.4643 18.8393V24.4643H4.82143Z" fill="#48565C" fill-opacity="0.5"/>
<circle cx="58" cy="16" r="16" fill="white"/>
<path d="M58 0C54.8355 0 51.7421 0.938383 49.1109 2.69649C46.4797 4.45459 44.4289 6.95345 43.2179 9.87706C42.0069 12.8007 41.6901 16.0177 42.3074 19.1214C42.9248 22.2251 44.4487 25.0761 46.6863 27.3137C48.9239 29.5513 51.7749 31.0752 54.8786 31.6926C57.9823 32.3099 61.1993 31.9931 64.1229 30.7821C67.0466 29.5711 69.5454 27.5203 71.3035 24.8891C73.0616 22.2579 74 19.1645 74 16C74 11.7565 72.3143 7.68687 69.3137 4.68629C66.3131 1.68571 62.2435 0 58 0ZM68.45 10.63L55.31 23.76L47.55 16C47.2848 15.7348 47.1358 15.3751 47.1358 15C47.1358 14.6249 47.2848 14.2652 47.55 14C47.8152 13.7348 48.1749 13.5858 48.55 13.5858C48.9251 13.5858 49.2848 13.7348 49.55 14L55.33 19.78L66.47 8.65C66.6013 8.51868 66.7572 8.41451 66.9288 8.34344C67.1004 8.27237 67.2843 8.23579 67.47 8.23579C67.6557 8.23579 67.8396 8.27237 68.0112 8.34344C68.1828 8.41451 68.3387 8.51868 68.47 8.65C68.6013 8.78132 68.7055 8.93722 68.7766 9.1088C68.8476 9.28038 68.8842 9.46428 68.8842 9.65C68.8842 9.83572 68.8476 10.0196 68.7766 10.1912C68.7055 10.3628 68.6013 10.5187 68.47 10.65L68.45 10.63Z" fill="#27AE60"/>
</svg>
